<svg width="246" height="246" viewBox="0 0 246 246" fill="none" xmlns="http://www.w3.org/2000/svg">
<path d="M92.2051 89.6337C84.7638 91.5498 79.3118 96.5983 77.0646 103.637C75.6279 108.132 76.07 114.47 78.0961 118.45L78.6118 119.482H83.806H89.037L87.7109 118.082C86.9741 117.345 85.9058 115.797 85.3532 114.691C84.4691 112.996 84.3218 112.186 84.3218 109.717C84.2849 107.211 84.4691 106.437 85.3164 104.668C86.532 102.199 88.9634 99.5831 90.9895 98.5144C93.4208 97.2984 96.9573 96.8193 99.757 97.2984C102.52 97.8143 104.288 98.7355 106.498 100.836C108.414 102.642 109.335 104.337 110.035 107.322C110.919 111.043 109.74 115.097 106.94 118.045L105.577 119.482H110.808H116.003L116.592 118.266C119.208 112.738 119.023 106.069 116.039 100.136C114.566 97.1878 110.072 92.729 107.125 91.3287C102.372 89.0072 96.8836 88.3808 92.2051 89.6337Z" fill="white"/>
<path d="M43.5789 104.742V119.482H47.2627H50.9465V113.954V108.427H57.209H63.4715V114.139V119.887L67.0816 119.777L70.6549 119.666L70.7654 104.816L70.8391 90.0021H67.1553H63.4715L63.3978 95.9717L63.2873 101.978H57.209H51.1307L51.0202 95.9717L50.9465 90.0021H47.2627H43.5789V104.742Z" fill="white"/>
<path d="M123.886 104.742V119.482H127.57H131.254V112.296C131.254 105.221 131.438 104.152 132.396 105.921C132.653 106.4 134.09 108.611 135.601 110.896L138.327 115.06H140.279H142.231L145.436 110.085C147.205 107.358 148.825 105.111 148.973 105.111C149.157 105.111 149.304 108.353 149.304 112.296V119.482H152.804H156.304V104.742V90.0021H153.651H150.962L145.657 97.9617C142.526 102.642 140.205 105.737 140.021 105.553C139.837 105.368 137.406 101.831 134.643 97.7037L129.596 90.1864L126.759 90.0758L123.886 89.9653V104.742Z" fill="white"/>
<path d="M162.198 104.926V119.851H173.433H184.669V116.718V113.586L177.044 113.512L169.381 113.402V110.822V108.243L176.012 108.059L182.643 107.874L182.753 104.816L182.864 101.794H176.012H169.16L169.271 99.1042L169.381 96.451L177.044 96.3405L184.669 96.2668V93.1345V90.0023H173.433H162.198V104.926Z" fill="white"/>
<path d="M90.9895 113.623C91.3579 114.286 92.2788 115.318 93.0524 115.945C94.3786 117.013 94.6733 117.087 97.3625 117.087C100.052 117.087 100.346 117.013 101.673 115.945C102.446 115.318 103.367 114.286 103.735 113.623L104.435 112.481H97.3625H90.2896L90.9895 113.623Z" fill="white"/>
<path d="M53.4881 126.262C49.2149 127.22 45.3469 129.911 43.3208 133.374C42.0683 135.549 41 139.197 41 141.408C41 143.619 42.0683 147.267 43.3208 149.441C49.4359 159.832 65.8289 159.427 70.7284 148.741C71.2073 147.672 71.723 146.198 71.8336 145.461L72.0546 144.171H68.3339H64.6501L64.2817 145.203C63.766 146.751 61.7031 148.925 60.2295 149.515C58.5718 150.215 55.3301 150.215 53.5987 149.515C51.9409 148.814 50.799 147.746 49.5465 145.83C48.2571 143.84 48.1834 139.639 49.3991 137.28C52.5304 131.274 61.3347 131.2 64.0239 137.207L64.687 138.644H68.3708H72.0546L71.8336 137.354C71.2441 133.706 68.0392 129.468 64.5764 127.663C62.8082 126.741 58.5718 125.71 56.7299 125.783C56.0668 125.82 54.6301 126.041 53.4881 126.262Z" fill="white"/>
<path d="M77.1013 141.371V156.332H80.6009H84.0637L84.1742 151.983L84.2848 147.672H87.2318H90.1789L93.0891 151.983L96.0361 156.332H100.199H104.398L100.936 151.246L97.5097 146.161L99.3516 144.319C104.583 139.196 103.256 131.089 96.6992 127.884L94.2311 126.668L85.6846 126.557L77.1013 126.41V141.371ZM90.9156 133.116C92.647 133.374 93.347 133.706 94.1574 134.59C96.1835 136.838 94.8573 140.118 91.6524 140.855C89.9947 141.26 85.5741 141.334 84.69 141.002C84.2111 140.818 84.1006 140.118 84.1006 136.985C84.1006 134.295 84.2479 133.116 84.5795 133.006C85.3531 132.674 88.5948 132.748 90.9156 133.116Z" fill="white"/>
<path d="M107.677 141.407V156.332L119.023 156.258L130.332 156.147L130.443 153.936C130.517 152.757 130.48 151.394 130.332 150.915L130.148 150.067H122.596H115.045V147.303V144.54H121.676H128.306V141.592V138.644H121.676H115.045V135.696V132.748L122.707 132.674L130.332 132.563V129.615V126.668L119.023 126.557L107.677 126.483V141.407Z" fill="white"/>
<path d="M134.938 141.408V156.406L143.152 156.222C150.336 156.074 151.588 155.964 153.32 155.3C157.261 153.753 160.061 151.284 161.719 147.893C162.677 145.977 162.75 145.498 162.75 141.408C162.75 137.318 162.677 136.839 161.719 134.922C160.061 131.532 157.261 129.063 153.32 127.516C151.588 126.852 150.336 126.742 143.152 126.594L134.938 126.41V141.408ZM151.588 134.185C153.357 135.254 154.572 136.912 155.346 139.307C155.898 140.966 155.935 141.555 155.567 142.992C155.014 145.351 153.651 147.267 151.773 148.483C150.373 149.367 149.82 149.515 146.284 149.625L142.305 149.773V141.408V133.043L146.284 133.19C149.525 133.338 150.446 133.485 151.588 134.185Z" fill="white"/>
<path d="M168.092 141.407V156.332H171.776H175.459V141.407V126.483H171.776H168.092V141.407Z" fill="white"/>
<path d="M178.849 129.689L178.959 132.932L183.859 133.043L188.721 133.153V144.724V156.332H192.221H195.72L195.794 144.798L195.905 133.3L200.804 133.19L205.667 133.079V129.8V126.483H192.221H178.738L178.849 129.689Z" fill="white"/>
</svg>
