<svg width="246" height="246" viewBox="0 0 246 246" fill="none" xmlns="http://www.w3.org/2000/svg">
<path d="M166.344 114.971L171.821 110.962H153.489V135.029H171.821V131.024H158.72V124.863H169.896V120.854H158.72V114.971H166.344Z" fill="white"/>
<path d="M139.655 120.346H133.29V114.971H143.452L148.929 110.962H128.059V135.029H138.984C145.112 135.029 148.625 132.274 148.625 127.469C148.62 122.875 145.436 120.346 139.655 120.346ZM138.743 131.024H133.29V124.351H138.743C142.063 124.351 143.612 125.467 143.612 127.685C143.612 129.956 141.971 131.024 138.743 131.024Z" fill="white"/>
<path d="M186.674 110.962H176.695V135.029H181.925V128.212H186.674C193.043 128.212 197 124.887 197 119.575C197 114.262 193.043 110.962 186.674 110.962ZM186.563 124.207H181.925V114.971H186.563C189.916 114.971 191.76 116.61 191.76 119.589C191.76 122.569 189.911 124.207 186.563 124.207Z" fill="white"/>
<path d="M119.079 129.822C117.738 130.554 116.174 130.942 114.563 130.942C109.848 130.942 106.422 127.599 106.422 122.995C106.422 118.392 109.843 115.048 114.563 115.048C116.348 115.048 117.945 115.546 119.321 116.528L123.075 113.783L122.829 113.568C120.638 111.656 117.709 110.646 114.365 110.646C110.736 110.646 107.44 111.862 105.086 114.066C102.721 116.284 101.418 119.407 101.418 122.861C101.418 126.329 102.716 129.496 105.076 131.786C107.44 134.08 110.727 135.345 114.331 135.345C118.105 135.345 121.396 134.037 123.63 131.666C121.907 130.406 120.242 129.189 120.242 129.189L119.079 129.822Z" fill="white"/>
<path d="M89.2921 122.995C89.2921 121.774 89.1811 120.576 88.9688 119.412L84.6308 122.583C84.6356 122.717 84.6356 122.856 84.6356 122.995C84.6356 131.474 77.687 138.372 69.146 138.372C60.6051 138.372 53.6565 131.474 53.6565 122.995C53.6565 114.516 60.6051 107.618 69.146 107.618C72.3839 107.618 75.3901 108.61 77.88 110.301L81.7983 107.436C78.3385 104.662 73.9377 103 69.146 103C58.0187 103 49 111.953 49 123C49 134.047 58.0187 143 69.146 143C80.2734 143 89.2921 134.042 89.2921 122.995Z" fill="white"/>
<path d="M85.0844 110.77C86.035 111.992 86.8505 113.323 87.4971 114.746L69.1412 128.178L61.4737 123.407V117.663L69.1412 122.435L85.0844 110.77Z" fill="white"/>
</svg>
