<svg width="246" height="246" viewBox="0 0 246 246" fill="none" xmlns="http://www.w3.org/2000/svg">
<path fill-rule="evenodd" clip-rule="evenodd" d="M75.603 120.662C75.1083 117.875 72.6345 115.891 68.7237 115.891C64.2478 115.844 61.4915 118.442 61.4915 121.843C61.4915 125.196 64.2478 127.793 68.7237 127.793C72.6814 127.77 75.0609 125.81 75.5793 122.999H71.9748C71.6215 124.275 70.3729 125.149 68.6295 125.149C66.4387 125.149 65.0958 123.684 65.0958 121.843C65.0958 120 66.4387 118.56 68.6295 118.56C70.3729 118.56 71.5977 119.41 71.9513 120.662H75.603ZM84.6893 127.439V119.198H89.5424V116.198H76.3022V119.198H81.1556V127.439H84.6893ZM90.9566 116.198V127.439H94.3726V124.416H97.9771C98.8251 124.416 99.6497 124.393 100.451 124.133C102.005 123.637 103.16 122.244 103.16 120.355C103.16 118.465 102.029 117.096 100.498 116.553C99.6497 116.246 98.8486 116.198 97.9771 116.198H90.9566ZM94.3726 118.914H97.4823C98.1419 118.914 98.5191 118.985 98.8251 119.103C99.3672 119.316 99.6263 119.811 99.6263 120.331C99.6263 120.898 99.3199 121.441 98.731 121.63C98.4483 121.724 98.1185 121.772 97.4823 121.772H94.3726V118.914ZM112.391 125.81H107.209L106.572 127.439H102.709L107.303 116.198H112.297L116.891 127.439H113.051L112.391 125.81ZM109.682 118.796L108.057 123.33H111.567L109.941 118.796H109.682ZM125.826 121.701L130.231 116.198H126.462L123.965 119.575L121.68 116.198H117.486L121.75 121.913L117.392 127.439H121.114L123.728 124.109L126.084 127.439H130.397L125.826 121.701ZM137.838 115.891C133.244 115.891 130.487 118.489 130.487 121.843C130.487 125.196 133.244 127.793 137.838 127.793C142.407 127.793 145.165 125.196 145.165 121.843C145.165 118.489 142.407 115.891 137.838 115.891ZM137.838 125.054C135.553 125.054 134.092 123.684 134.092 121.843C134.092 120 135.553 118.654 137.838 118.654C140.099 118.654 141.583 120 141.583 121.843C141.583 123.684 140.099 125.054 137.838 125.054ZM159.462 119.079C159.462 117.875 158.804 116.883 157.507 116.458C156.941 116.269 156.211 116.198 155.174 116.198H147.023V127.439H155.339C156.33 127.439 157.058 127.368 157.671 127.132C158.921 126.66 159.699 125.55 159.699 124.228C159.699 123.118 159.061 122.008 157.648 121.606C158.661 121.157 159.462 120.307 159.462 119.079ZM150.274 120.638V118.702H154.727C155.057 118.702 155.316 118.725 155.505 118.796C155.905 118.937 156.093 119.268 156.093 119.646C156.093 120.024 155.905 120.355 155.482 120.544C155.316 120.614 155.057 120.638 154.727 120.638H150.274ZM150.274 124.841V122.929H154.845C155.222 122.929 155.482 122.952 155.67 123.023C156.046 123.165 156.234 123.472 156.234 123.85C156.234 124.251 156.046 124.582 155.623 124.747C155.435 124.818 155.174 124.841 154.845 124.841H150.274ZM169.839 125.81L170.498 127.439H174.338L169.745 116.198H164.75L160.156 127.439H164.02L164.655 125.81H169.839ZM167.129 118.796H167.389L169.014 123.33H165.503L167.129 118.796ZM184.686 123.259V127.439H188.103V116.198H184.686V120.307H179.198V116.198H175.781V127.439H179.198V123.259H184.686ZM194.105 122.74V116.198H190.69V127.439H193.706L199.595 120.898V127.439H203.01V116.198H199.995L194.105 122.74ZM217 116.198H205.598V127.439H217V124.865H209.013V122.882H216.529V120.638H209.013V118.772H217V116.198Z" fill="white"/>
<path fill-rule="evenodd" clip-rule="evenodd" d="M28 109H55.1509V122.688C55.1509 126.196 53.2832 129.439 50.252 131.193L41.5754 136.216L32.8987 131.193C29.8672 129.439 28 126.196 28 122.688V109ZM35.4507 116.202V120.46C36.0312 119.802 37.0871 119.357 38.2947 119.357H39.6067V124.306C39.6067 125.623 39.2497 126.775 38.7202 127.409H44.4271C43.8986 126.774 43.5424 125.623 43.5424 124.309V119.357H44.8544C46.062 119.357 47.1179 119.802 47.6988 120.459V116.202H35.4507Z" fill="white"/>
</svg>
