<svg width="246" height="246" viewBox="0 0 246 246" fill="none" xmlns="http://www.w3.org/2000/svg">
<g clip-path="url(#clip0_4001_356)">
<path fill-rule="evenodd" clip-rule="evenodd" d="M69.8998 120.283C69.3396 117.109 66.5386 114.85 62.1106 114.85C57.0425 114.796 53.9216 117.755 53.9216 121.629C53.9216 125.448 57.0425 128.407 62.1106 128.407C66.5917 128.38 69.286 126.147 69.8729 122.946H65.7917C65.3916 124.399 63.9779 125.394 62.0038 125.394C59.5233 125.394 58.0027 123.726 58.0027 121.629C58.0027 119.53 59.5233 117.889 62.0038 117.889C63.9779 117.889 65.3647 118.858 65.765 120.283H69.8998ZM80.188 128.003V118.616H85.683V115.2H70.6915V118.616H76.1869V128.003H80.188ZM87.2843 115.2V128.003H91.1522V124.56H95.2334C96.1936 124.56 97.1273 124.534 98.0344 124.238C99.7946 123.673 101.102 122.086 101.102 119.934C101.102 117.782 99.8217 116.222 98.0876 115.603C97.1273 115.254 96.2202 115.2 95.2334 115.2H87.2843ZM91.1522 118.293H94.6732C95.4201 118.293 95.8471 118.374 96.1936 118.508C96.8074 118.75 97.1008 119.315 97.1008 119.907C97.1008 120.552 96.7538 121.171 96.087 121.386C95.767 121.494 95.3935 121.548 94.6732 121.548H91.1522V118.293ZM111.554 126.147H105.686L104.966 128.003H100.591L105.793 115.2H111.448L116.649 128.003H112.301L111.554 126.147ZM108.487 118.159L106.646 123.323H110.621L108.78 118.159H108.487ZM126.766 121.467L131.753 115.2H127.487L124.659 119.046L122.071 115.2H117.323L122.151 121.709L117.216 128.003H121.431L124.391 124.21L127.058 128.003H131.942L126.766 121.467ZM140.367 114.85C135.165 114.85 132.044 117.809 132.044 121.629C132.044 125.448 135.165 128.407 140.367 128.407C145.541 128.407 148.663 125.448 148.663 121.629C148.663 117.809 145.541 114.85 140.367 114.85ZM140.367 125.287C137.78 125.287 136.125 123.726 136.125 121.629C136.125 119.53 137.78 117.997 140.367 117.997C142.926 117.997 144.607 119.53 144.607 121.629C144.607 123.726 142.926 125.287 140.367 125.287ZM164.851 118.481C164.851 117.109 164.106 115.98 162.638 115.496C161.997 115.28 161.17 115.2 159.996 115.2H150.767V128.003H160.183C161.305 128.003 162.129 127.922 162.823 127.653C164.239 127.116 165.119 125.852 165.119 124.345C165.119 123.081 164.398 121.817 162.797 121.36C163.944 120.848 164.851 119.88 164.851 118.481ZM154.448 120.257V118.051H159.49C159.863 118.051 160.156 118.078 160.37 118.159C160.824 118.32 161.037 118.696 161.037 119.127C161.037 119.557 160.824 119.934 160.344 120.149C160.156 120.23 159.863 120.257 159.49 120.257H154.448ZM154.448 125.044V122.866H159.624C160.05 122.866 160.344 122.893 160.557 122.973C160.983 123.135 161.196 123.484 161.196 123.915C161.196 124.372 160.983 124.749 160.504 124.937C160.292 125.018 159.996 125.044 159.624 125.044H154.448ZM176.601 126.147L177.347 128.003H181.695L176.495 115.2H170.838L165.637 128.003H170.012L170.732 126.147H176.601ZM173.533 118.159H173.827L175.667 123.323H171.691L173.533 118.159ZM193.411 123.242V128.003H197.281V115.2H193.411V119.88H187.197V115.2H183.329V128.003H187.197V123.242H193.411ZM204.077 122.651V115.2H200.21V128.003H203.625L210.293 120.552V128.003H214.16V115.2H210.746L204.077 122.651ZM230 115.2H217.089V128.003H230V125.072H220.956V122.812H229.467V120.257H220.956V118.131H230V115.2Z" fill="white"/>
<path d="M46.7422 122.591C46.7422 126.587 44.6274 130.281 41.1953 132.279L31.3711 138L21.5469 132.279C18.1143 130.281 16 126.587 16 122.591V107H46.7422V122.591ZM24.4365 120.054C25.0938 119.305 26.289 118.798 27.6562 118.798H29.1416V124.435C29.1416 125.934 28.7373 127.247 28.1377 127.969H34.5996C34.0012 127.246 33.5986 125.935 33.5986 124.438V118.798H35.084C36.4512 118.798 37.647 119.304 38.3047 120.053V115.204H24.4365V120.054Z" fill="white"/>
</g>
<defs>
<clipPath id="clip0_4001_356">
<rect width="214" height="31" fill="white" transform="translate(16 107)"/>
</clipPath>
</defs>
</svg>
