<svg width="246" height="246" viewBox="0 0 246 246" fill="none" xmlns="http://www.w3.org/2000/svg">
<g clip-path="url(#clip0_4001_356)">
<mask id="mask0_4001_356" style="mask-type:luminance" maskUnits="userSpaceOnUse" x="36" y="110" width="174" height="26">
<path d="M210 110H36V136H210V110Z" fill="white"/>
</mask>
<g mask="url(#mask0_4001_356)">
<path d="M171.072 123.332C172.018 123.332 172.563 122.965 172.563 122.278C172.563 121.669 172.083 121.27 171.04 121.27H168.596V123.332H171.072ZM168.595 119.097H170.622C171.568 119.097 172.097 118.778 172.097 118.09C172.097 117.483 171.616 117.133 170.687 117.133H168.596L168.595 119.097ZM173.14 119.978C174.503 120.425 175.37 121.191 175.37 122.74C175.37 124.661 173.799 125.826 171.12 125.826H170.298V125.834H165.767V114.633H171.088C172.499 114.633 173.493 114.99 174.151 115.645C174.599 116.092 174.871 116.684 174.871 117.483C174.871 118.778 174.134 119.545 173.14 119.978ZM184.618 125.941V119.401L179.635 125.941H176.928V114.736H179.755V121.402L184.742 114.736H187.446V125.941L184.618 125.941ZM205.277 121.666L203.895 118.151L202.495 121.666H205.277ZM209.998 125.936H206.937L206.082 123.839H201.676L200.826 125.936H197.823L202.511 114.619H205.326L209.998 125.936ZM198.637 114.713V117.186H195.098V125.936H192.239V117.186H188.7V114.713H198.637ZM186.888 130.462H187.498V133.694L189.931 130.462H190.526V134.547H189.916V131.315L187.475 134.547H186.888V130.462ZM181.945 130.462H182.555V132.224H184.916V130.462H185.526V134.547H184.916V132.762H182.555V134.547H181.945V130.462ZM177.492 134.034L177.802 133.583C178.214 133.931 178.681 134.112 179.173 134.112C179.704 134.112 180.186 133.86 180.186 133.387C180.186 132.975 179.822 132.714 179.156 132.714H178.609V132.216H179.164C179.704 132.216 180.076 131.94 180.076 131.513C180.076 131.133 179.696 130.905 179.189 130.905C178.784 130.905 178.3 131.031 177.944 131.315L177.642 130.89C178.071 130.557 178.625 130.376 179.227 130.376C180.148 130.376 180.711 130.833 180.711 131.465C180.711 131.971 180.401 132.265 180.052 132.407C180.503 132.565 180.812 132.873 180.812 133.41C180.812 134.066 180.202 134.642 179.189 134.642C178.538 134.642 177.993 134.437 177.492 134.034ZM172.89 130.462H173.5V133.694L175.933 130.462H176.527V134.547H175.917V131.315L173.476 134.547H172.89V130.462ZM167.305 132.208L165.712 130.462H166.449L168.533 132.832V130.462H169.143V132.832L171.228 130.462H171.964L170.372 132.208L172.051 134.547H171.338L169.975 132.643L169.144 133.552V134.547H168.534V133.552L167.701 132.643L166.338 134.547H165.624L167.305 132.208Z" fill="white"/>
<path d="M164.269 120.232C164.269 121.108 163.556 121.819 162.676 121.819C161.799 121.821 161.085 121.111 161.084 120.233C161.084 120.232 161.084 120.232 161.084 120.232C161.085 119.353 161.797 118.643 162.675 118.644C162.676 118.644 162.676 118.644 162.676 118.644C163.554 118.642 164.267 119.353 164.269 120.232ZM135.82 124.171C134.712 125.393 133.158 126.094 131.538 126.094C128.344 126.094 125.747 123.503 125.747 120.318C125.747 117.135 128.344 114.543 131.538 114.543C133.025 114.543 134.437 115.119 135.527 116.166L134.126 118.123L134.014 118.226C133.419 117.554 132.565 117.168 131.667 117.165C129.922 117.165 128.506 118.578 128.506 120.318C128.506 122.057 129.922 123.471 131.667 123.471C132.427 123.471 133.158 123.193 133.743 122.685L133.757 122.693L133.993 122.472L135.82 124.171ZM86.8762 123.237C88.1117 122.853 89.0167 121.713 89.0167 120.352C89.0167 118.992 88.1117 117.855 86.8762 117.471C86.588 117.382 86.292 117.32 85.9748 117.32C84.7537 117.32 83.6505 118.049 83.1708 119.173C82.8573 119.929 82.8573 120.779 83.1708 121.534C83.6505 122.657 84.7531 123.387 85.9742 123.387C86.292 123.387 86.588 123.324 86.8762 123.237ZM85.9748 114.51C89.2125 114.51 91.8352 117.125 91.8352 120.352C91.8352 123.579 89.2125 126.196 85.9748 126.196C83.7557 126.193 81.7214 124.959 80.6925 122.991C80.176 123.687 79.5609 124.302 78.8661 124.819C77.8572 125.571 76.3135 126.155 74.9469 126.155H74.9191C74.704 126.161 74.4889 126.16 74.2781 126.144C71.0518 125.91 68.6219 123.109 68.8587 119.892C69.0943 116.674 71.9037 114.256 75.13 114.49C76.5921 114.596 77.8741 115.24 78.8287 116.202L77.1533 118.543C76.6416 117.846 75.8532 117.359 74.9239 117.292C73.2504 117.169 71.7919 118.427 71.6705 120.098C71.5473 121.767 72.7048 123.342 74.8206 123.342C78.2124 123.342 79.8654 118.705 81.136 116.992L81.1457 116.982C82.267 115.432 84.0626 114.513 85.9748 114.51ZM160.11 123.546V125.939H150.791V114.733H160.03V117.38H153.623V119.254H159.476V121.46H153.622V123.546H160.11ZM145.371 125.939V119.398L140.39 125.939H137.683V114.734H140.509V121.4L145.496 114.734H148.201V125.938L145.371 125.939ZM120.902 121.665L119.519 118.149L118.121 121.665H120.902ZM125.624 125.934H122.563L121.706 123.837H117.302L116.45 125.934H113.449L118.135 114.617H120.951L125.624 125.934ZM101.44 117.185H96.2655V125.934H93.4078V114.711H101.44L101.44 117.185ZM109.415 117.118H106.478V117.864C106.444 125.1 101.994 125.852 101.252 125.926V123.486C103.21 122.792 103.844 120.97 103.844 116.078V114.71H112.252V125.932H109.414L109.415 117.118ZM159.604 132.263C159.532 131.519 159.104 130.887 158.296 130.887C157.591 130.887 157.052 131.472 156.965 132.263H159.604ZM158.311 130.374C159.525 130.374 160.221 131.338 160.221 132.539C160.221 132.594 160.221 132.657 160.214 132.752H156.965C157.052 133.614 157.686 134.111 158.407 134.111C158.97 134.111 159.365 133.882 159.699 133.534L160.079 133.874C159.667 134.332 159.168 134.64 158.391 134.64C157.266 134.64 156.346 133.779 156.346 132.507C156.346 131.322 157.178 130.374 158.312 130.374H158.311ZM151.601 130.46H152.211V133.692L154.645 130.46H155.239V134.545H154.629V131.314L152.188 134.545H151.601V130.46ZM146.658 130.46H147.267V132.222H149.63V130.46H150.24V134.545H149.63V132.76H147.267V134.545H146.658V130.46ZM144.773 133.044V132.664C144.384 132.55 143.981 132.492 143.577 132.491C142.815 132.491 142.38 132.823 142.38 133.329C142.38 133.843 142.855 134.143 143.41 134.143C144.163 134.143 144.773 133.692 144.773 133.044ZM141.762 133.344C141.762 132.467 142.475 132.009 143.514 132.009C144.036 132.009 144.401 132.08 144.764 132.184V132.056C144.764 131.329 144.321 130.95 143.552 130.95C143.07 130.95 142.689 131.069 142.309 131.243L142.126 130.745C142.578 130.54 143.014 130.396 143.616 130.396C144.195 130.396 144.647 130.555 144.94 130.848C145.225 131.132 145.368 131.526 145.368 132.049V134.545H144.765V133.938C144.48 134.301 144.012 134.633 143.291 134.633C142.523 134.633 141.762 134.197 141.762 133.344ZM139.401 134.024C139.987 134.024 140.344 133.764 140.344 133.337C140.344 132.943 139.988 132.705 139.322 132.705H138.038V134.024H139.401ZM139.299 132.215C139.79 132.215 140.13 131.985 140.13 131.558C140.13 131.219 139.845 130.982 139.314 130.982H138.038V132.215H139.299ZM137.428 130.46H139.41C140.225 130.46 140.749 130.863 140.749 131.48C140.749 132.017 140.408 132.278 140.066 132.42C140.559 132.555 140.97 132.855 140.97 133.432C140.97 134.119 140.384 134.545 139.481 134.545H137.428V130.46ZM135.703 132.507C135.703 131.63 135.044 130.911 134.181 130.911C133.293 130.911 132.683 131.63 132.683 132.507C132.683 133.385 133.332 134.096 134.196 134.096C135.084 134.096 135.703 133.385 135.703 132.507ZM132.056 132.507C132.056 131.354 132.96 130.374 134.196 130.374C135.425 130.374 136.329 131.338 136.329 132.507C136.334 133.681 135.387 134.636 134.214 134.64C134.204 134.64 134.192 134.64 134.181 134.64C132.952 134.64 132.056 133.677 132.056 132.507ZM129.316 132.468L127.772 130.46H128.468L129.68 132.042L130.893 130.46H131.574L130.022 132.452L131.638 134.545H130.933L129.664 132.878L128.388 134.545H127.708L129.316 132.468ZM126.195 133.044V132.664C125.806 132.55 125.403 132.492 124.998 132.491C124.237 132.491 123.802 132.823 123.802 133.329C123.802 133.843 124.277 134.143 124.832 134.143C125.585 134.143 126.195 133.692 126.195 133.044ZM123.184 133.344C123.184 132.467 123.898 132.009 124.936 132.009C125.359 132.005 125.781 132.064 126.187 132.184V132.056C126.187 131.329 125.743 130.95 124.974 130.95C124.492 130.95 124.111 131.069 123.731 131.243L123.548 130.745C124 130.54 124.436 130.396 125.038 130.396C125.617 130.396 126.068 130.555 126.362 130.848C126.646 131.132 126.789 131.526 126.789 132.049V134.545H126.187V133.938C125.902 134.301 125.433 134.633 124.713 134.633C123.944 134.633 123.184 134.197 123.184 133.344ZM120.142 130.919C119.38 130.919 118.66 131.559 118.66 132.507C118.66 133.456 119.381 134.087 120.142 134.087C120.935 134.087 121.584 133.502 121.584 132.499C121.584 131.534 120.919 130.919 120.142 130.919ZM118.074 130.46H118.684V131.283C119.017 130.792 119.501 130.374 120.253 130.374C121.236 130.374 122.211 131.148 122.211 132.507C122.211 133.843 121.244 134.633 120.253 134.633C119.492 134.633 119.001 134.223 118.684 133.764V135.81H118.074V130.46ZM115.103 130.999H113.637V130.46H117.187V130.999H115.722V134.545H115.103V130.999ZM109.335 132.507C109.335 131.354 110.239 130.374 111.436 130.374C112.213 130.374 112.695 130.697 113.075 131.1L112.687 131.511C112.363 131.171 111.982 130.911 111.427 130.911C110.595 130.911 109.961 131.614 109.961 132.507C109.961 133.393 110.611 134.096 111.467 134.096C111.99 134.096 112.378 133.827 112.702 133.479L113.107 133.85C112.695 134.308 112.204 134.64 111.436 134.64C110.239 134.64 109.335 133.669 109.335 132.507Z" fill="white"/>
<path d="M56.0529 110.256C61.5871 110.256 66.0899 114.747 66.0899 120.267C66.0899 125.788 61.5871 130.277 56.0529 130.277C54.3038 130.277 52.585 129.823 51.0649 128.957C49.5394 129.832 47.8115 130.292 46.0533 130.291C40.5095 130.291 36 125.796 36 120.267C36 114.739 40.5095 110.242 46.0533 110.242C47.8145 110.242 49.5466 110.702 51.0649 111.578C52.5844 110.711 54.3038 110.256 56.0529 110.256ZM42.9521 120.24C43.6904 117.807 45.4866 115.463 48.2972 113.273C47.5716 113.041 46.8146 112.923 46.0533 112.925C41.9903 112.925 38.6885 116.217 38.6885 120.265C38.6885 124.312 41.9903 127.602 46.0533 127.602C47.02 127.602 47.9631 127.418 48.8518 127.052L48.8585 127.049C48.8814 127.041 51.4377 126.163 54.1993 123.352C56.3429 121.173 56.6873 119.734 56.7 119.053L56.6969 119.05V118.952C56.6945 118.06 55.9713 117.337 55.0802 117.336C54.4664 117.333 53.9045 117.679 53.6302 118.228L53.6241 118.241L53.5849 118.322L50.9531 123.389C50.912 123.485 50.8625 123.578 50.8081 123.668L50.7852 123.721V123.716C50.007 125.039 48.589 125.852 47.055 125.856C44.6789 125.856 42.7467 123.929 42.7467 121.56C42.7467 121.116 42.8132 120.679 42.9461 120.26L42.9521 120.24ZM59.168 120.29C58.4309 122.734 56.6438 125.076 53.8598 127.249C54.5884 127.485 55.3478 127.602 56.1206 127.602C60.1806 127.602 63.4793 124.312 63.4793 120.264C63.4793 116.217 60.1806 112.925 56.1206 112.925C55.1388 112.925 54.1836 113.115 53.2852 113.491C53.2526 113.501 50.7284 114.326 47.9716 117.134C45.8038 119.34 45.4474 120.787 45.4347 121.476V121.56C45.4377 122.453 46.1621 123.176 47.0544 123.175C47.6483 123.175 48.1921 122.852 48.4754 122.335L51.1912 117.088C51.2244 117.018 51.2606 116.949 51.2999 116.883L51.3628 116.758V116.77C52.1445 115.462 53.5541 114.659 55.0766 114.656C57.4515 114.656 59.3831 116.582 59.3831 118.952C59.3831 119.408 59.3106 119.857 59.168 120.287V120.29Z" fill="white"/>
</g>
</g>
<defs>
<clipPath id="clip0_4001_356">
<rect width="174" height="26" fill="white" transform="translate(36 110)"/>
</clipPath>
</defs>
</svg>
