<svg width="246" height="246" viewBox="0 0 246 246" fill="none" xmlns="http://www.w3.org/2000/svg">
    <mask id="mask0_4052_157" style="mask-type:luminance" maskUnits="userSpaceOnUse" x="44" y="103" width="158"
        height="42">
        <path d="M202 103.6H44V144.4H202V103.6Z" fill="white" />
    </mask>
    <g mask="url(#mask0_4052_157)">
        <path
            d="M49.4873 137.923C49.5399 137.952 49.5778 137.992 49.6023 138.039C49.6264 138.087 49.6216 138.143 49.5885 138.209L49.1421 138.944C49.0955 139.005 49.0497 139.038 49.0031 139.047C48.9573 139.056 48.9023 139.041 48.8372 139.003C48.6472 138.868 48.4402 138.765 48.2178 138.691C47.995 138.617 47.7592 138.579 47.5112 138.579C47.1967 138.579 46.9104 138.636 46.6489 138.75C46.3882 138.866 46.1618 139.02 45.9714 139.217C45.7815 139.413 45.6333 139.643 45.5267 139.909C45.4212 140.174 45.3679 140.458 45.3679 140.761C45.3679 141.061 45.4212 141.343 45.5267 141.606C45.6333 141.869 45.7815 142.1 45.9714 142.296C46.1618 142.491 46.3882 142.645 46.6489 142.759C46.9104 142.873 47.1967 142.93 47.5112 142.93C47.7592 142.93 47.9974 142.892 48.2249 142.818C48.4517 142.743 48.6594 142.64 48.8463 142.505C48.9138 142.467 48.9707 142.45 49.0149 142.456C49.0596 142.462 49.1054 142.494 49.1504 142.555L49.6074 143.299C49.6406 143.365 49.6453 143.419 49.6212 143.465C49.596 143.509 49.5577 143.547 49.5051 143.575C49.2199 143.763 48.9087 143.909 48.5725 144.011C48.2356 144.114 47.8852 144.165 47.5195 144.165C47.194 144.165 46.8811 144.125 46.5825 144.044C46.2819 143.964 46.0023 143.85 45.7416 143.701C45.4809 143.552 45.2431 143.376 45.0298 143.167C44.8161 142.961 44.6324 142.732 44.4791 142.48C44.3255 142.228 44.207 141.958 44.1244 141.669C44.0411 141.378 44 141.076 44 140.761C44 140.445 44.0411 140.142 44.1244 139.852C44.207 139.563 44.3255 139.29 44.4791 139.036C44.6324 138.782 44.8161 138.551 45.0298 138.342C45.2431 138.135 45.4809 137.957 45.7416 137.81C46.0023 137.663 46.2819 137.547 46.5825 137.466C46.8811 137.384 47.194 137.343 47.5195 137.343C47.8852 137.343 48.232 137.393 48.5611 137.493C48.8897 137.593 49.1982 137.736 49.4873 137.923Z"
            fill="white" />
        <path
            d="M52.5693 137.636C52.5693 137.583 52.5926 137.537 52.6392 137.498C52.6851 137.46 52.738 137.44 52.8004 137.44H57.5033C57.5589 137.44 57.6107 137.457 57.6585 137.489C57.7055 137.522 57.7327 137.57 57.7395 137.636V138.421C57.7395 138.487 57.7189 138.543 57.679 138.589C57.6392 138.635 57.5807 138.658 57.5033 138.658H55.8308V143.838C55.8308 143.863 55.8257 143.886 55.8134 143.911C55.8008 143.937 55.7858 143.961 55.7672 143.985C55.7491 144.01 55.7265 144.028 55.7005 144.043C55.6737 144.058 55.6471 144.066 55.6199 144.066H54.6984C54.6763 144.066 54.6526 144.059 54.6264 144.046C54.6 144.032 54.5759 144.016 54.553 143.995C54.5301 143.973 54.5108 143.949 54.4957 143.92C54.4796 143.893 54.4728 143.865 54.4728 143.838V138.658H52.8004C52.738 138.658 52.6851 138.637 52.6392 138.596C52.5926 138.555 52.5693 138.496 52.5693 138.421V137.636Z"
            fill="white" />
        <path
            d="M65.027 139.567C65.027 139.446 65.003 139.326 64.9551 139.211C64.9082 139.096 64.8405 138.991 64.7552 138.902C64.6691 138.811 64.5672 138.738 64.4507 138.681C64.3338 138.627 64.2046 138.6 64.064 138.6H62.7874V140.532H64.064C64.2015 140.532 64.3299 140.504 64.4484 140.451C64.5664 140.398 64.6691 140.327 64.7552 140.237C64.8405 140.148 64.9082 140.045 64.9551 139.93C65.003 139.812 65.027 139.693 65.027 139.567ZM61.4238 137.695C61.4238 137.617 61.4455 137.555 61.4882 137.509C61.5317 137.462 61.5945 137.439 61.677 137.439H64.2572C64.5672 137.439 64.8536 137.499 65.1163 137.616C65.3793 137.734 65.6057 137.89 65.7957 138.087C65.9869 138.283 66.1358 138.51 66.2428 138.77C66.3498 139.028 66.4044 139.297 66.4044 139.576C66.4044 139.851 66.3518 140.115 66.2476 140.368C66.1437 140.623 65.9959 140.849 65.8075 141.045C65.6187 141.241 65.3944 141.398 65.1348 141.516C64.875 141.633 64.5925 141.692 64.2848 141.692H62.7874V143.828C62.7874 143.986 62.7048 144.065 62.5385 144.065H61.6723C61.5925 144.065 61.5317 144.045 61.4882 144.004C61.4455 143.965 61.4238 143.906 61.4238 143.828V137.695Z"
            fill="white" />
        <path
            d="M71.5831 141.67H73.5369L72.5643 139.363L71.5831 141.67ZM72.0303 137.588C72.0517 137.547 72.0804 137.512 72.1172 137.483C72.1539 137.454 72.2144 137.44 72.2977 137.44H72.8318C72.8997 137.44 72.951 137.454 72.9878 137.483C73.0257 137.512 73.0541 137.547 73.0758 137.588L75.8168 143.861V143.887C75.8168 143.932 75.8017 143.973 75.7717 144.01C75.7401 144.048 75.6714 144.066 75.564 144.066H74.6792C74.6207 144.066 74.5765 144.057 74.5476 144.037C74.5188 144.017 74.4951 143.98 74.4765 143.928L74.0207 142.887H71.0992L70.643 143.928C70.6154 144.02 70.5581 144.066 70.4732 144.066H69.5142C69.4375 144.066 69.3846 144.052 69.3553 144.023C69.3262 143.995 69.3115 143.954 69.3115 143.9C69.3115 143.895 69.5422 143.367 70.0024 142.317C70.4633 141.266 71.1392 139.691 72.0303 137.588Z"
            fill="white" />
        <path
            d="M84.5254 143.762C84.5511 143.797 84.5696 143.83 84.5835 143.86C84.5969 143.889 84.6052 143.918 84.6088 143.945C84.6088 144.026 84.5594 144.065 84.4615 144.065H83.3688C83.3081 144.065 83.2523 144.049 83.2029 144.013C83.1548 143.98 83.1133 143.936 83.0794 143.882C82.84 143.54 82.5986 143.196 82.3557 142.852C82.1132 142.506 81.8738 142.164 81.6372 141.821C81.3978 142.169 81.1593 142.512 80.923 142.852C80.6864 143.19 80.4487 143.535 80.2093 143.882C80.1722 143.933 80.1283 143.976 80.0777 144.012C80.0264 144.047 79.9727 144.065 79.9134 144.065H78.822C78.7177 144.065 78.666 144.026 78.666 143.945C78.666 143.918 78.6798 143.88 78.7087 143.833C78.7387 143.786 78.7656 143.742 78.7897 143.704L80.8721 140.718C80.7279 140.511 80.581 140.298 80.4325 140.083C80.2835 139.868 80.1251 139.638 79.9576 139.399C79.7898 139.158 79.6104 138.9 79.4188 138.627C79.2261 138.352 79.014 138.05 78.7809 137.721C78.7347 137.652 78.711 137.598 78.711 137.555C78.711 137.511 78.7308 137.481 78.7691 137.464C78.8074 137.448 78.8576 137.439 78.9184 137.439H79.9501C80.0395 137.439 80.107 137.463 80.1535 137.509C80.1994 137.555 80.2519 137.62 80.31 137.703L81.6372 139.613L83.0189 137.64C83.1081 137.516 83.2203 137.449 83.3555 137.439H84.3366C84.4073 137.439 84.4626 137.448 84.5033 137.463C84.5432 137.477 84.5626 137.509 84.5626 137.56C84.5594 137.578 84.5538 137.601 84.5444 137.628C84.5353 137.654 84.5207 137.682 84.5033 137.711L82.4059 140.718L84.5254 143.762Z"
            fill="white" />
        <path
            d="M88.5153 140.761C88.5153 141.061 88.5682 141.343 88.6741 141.606C88.7808 141.869 88.9284 142.1 89.1185 142.296C89.3092 142.491 89.5356 142.646 89.7963 142.76C90.0581 142.873 90.3441 142.93 90.6585 142.93C90.9686 142.93 91.255 142.873 91.5177 142.76C91.7796 142.646 92.0071 142.491 92.1971 142.296C92.3871 142.1 92.536 141.869 92.6443 141.606C92.7513 141.343 92.805 141.061 92.805 140.761C92.805 140.458 92.7513 140.174 92.6443 139.908C92.536 139.643 92.3871 139.413 92.1971 139.217C92.0071 139.02 91.7796 138.866 91.5177 138.75C91.255 138.636 90.9686 138.579 90.6585 138.579C90.3441 138.579 90.0581 138.636 89.7963 138.75C89.5356 138.866 89.3092 139.02 89.1185 139.217C88.9284 139.413 88.7808 139.643 88.6741 139.908C88.5682 140.174 88.5153 140.458 88.5153 140.761ZM87.1475 140.761C87.1475 140.445 87.1893 140.142 87.2719 139.852C87.3552 139.563 87.4733 139.29 87.6265 139.037C87.7798 138.782 87.9635 138.551 88.1768 138.342C88.3909 138.135 88.6282 137.957 88.8886 137.81C89.1493 137.663 89.4301 137.547 89.7299 137.466C90.0285 137.384 90.341 137.343 90.6669 137.343C90.9896 137.343 91.3009 137.384 91.6026 137.466C91.9033 137.547 92.1845 137.663 92.4464 137.81C92.7066 137.957 92.9445 138.135 93.1597 138.342C93.3746 138.551 93.5587 138.782 93.7104 139.037C93.8625 139.29 93.9805 139.563 94.065 139.852C94.1496 140.142 94.1918 140.445 94.1918 140.761C94.1918 141.076 94.1496 141.378 94.065 141.669C93.9805 141.958 93.8625 142.228 93.7104 142.48C93.5587 142.732 93.3746 142.961 93.1597 143.167C92.9445 143.376 92.7066 143.552 92.4464 143.701C92.1845 143.85 91.9033 143.964 91.6026 144.044C91.3009 144.125 90.9896 144.165 90.6669 144.165C90.341 144.165 90.0285 144.125 89.7299 144.044C89.4301 143.964 89.1493 143.85 88.8886 143.701C88.6282 143.552 88.3909 143.376 88.1768 143.167C87.9635 142.961 87.7798 142.732 87.6265 142.48C87.4733 142.228 87.3552 141.958 87.2719 141.669C87.1893 141.378 87.1475 141.076 87.1475 140.761Z"
            fill="white" />
        <path
            d="M99.0103 141.172V142.911H100.66C100.777 142.911 100.886 142.889 100.989 142.841C101.093 142.796 101.183 142.734 101.261 142.656C101.339 142.579 101.401 142.489 101.446 142.386C101.49 142.285 101.512 142.176 101.512 142.059C101.512 141.95 101.49 141.84 101.446 141.733C101.401 141.627 101.34 141.531 101.263 141.448C101.186 141.365 101.096 141.297 100.994 141.248C100.891 141.196 100.78 141.172 100.66 141.172H99.0103ZM101.204 139.311C101.204 139.091 101.128 138.917 100.978 138.788C100.827 138.661 100.63 138.597 100.388 138.597H99.0103V140.118H100.379C100.499 140.118 100.609 140.098 100.71 140.056C100.812 140.015 100.899 139.957 100.974 139.884C101.047 139.812 101.104 139.725 101.143 139.628C101.183 139.529 101.204 139.423 101.204 139.311ZM102.568 139.288C102.568 139.529 102.526 139.754 102.441 139.965C102.356 140.174 102.237 140.356 102.084 140.511C102.204 140.603 102.314 140.708 102.415 140.826C102.516 140.943 102.603 141.069 102.676 141.205C102.747 141.34 102.804 141.483 102.844 141.633C102.884 141.783 102.903 141.936 102.903 142.091C102.903 142.355 102.852 142.606 102.749 142.846C102.647 143.085 102.506 143.296 102.328 143.475C102.15 143.655 101.94 143.798 101.698 143.906C101.457 144.013 101.201 144.067 100.927 144.067H97.9004C97.8266 144.067 97.7657 144.047 97.7176 144.006C97.6709 143.966 97.6465 143.907 97.6465 143.83V137.696C97.6465 137.619 97.6693 137.557 97.714 137.511C97.7578 137.464 97.8203 137.441 97.9004 137.441H100.637C100.904 137.441 101.155 137.488 101.39 137.584C101.625 137.68 101.83 137.81 102.006 137.975C102.18 138.139 102.318 138.335 102.417 138.559C102.518 138.783 102.568 139.026 102.568 139.288Z"
            fill="white" />
        <path
            d="M108.092 141.67H110.046L109.073 139.363L108.092 141.67ZM108.539 137.588C108.56 137.547 108.589 137.512 108.626 137.483C108.662 137.454 108.723 137.44 108.806 137.44H109.34C109.408 137.44 109.459 137.454 109.496 137.483C109.534 137.512 109.563 137.547 109.585 137.588L112.325 143.861V143.887C112.325 143.932 112.311 143.973 112.28 144.01C112.249 144.048 112.18 144.066 112.073 144.066H111.188C111.129 144.066 111.085 144.057 111.056 144.037C111.027 144.017 111.003 143.98 110.985 143.928L110.529 142.887H107.608L107.152 143.928C107.124 144.02 107.067 144.066 106.982 144.066H106.023C105.946 144.066 105.893 144.052 105.864 144.023C105.835 143.995 105.82 143.954 105.82 143.9C105.82 143.895 106.051 143.367 106.511 142.317C106.972 141.266 107.648 139.691 108.539 137.588Z"
            fill="white" />
        <path
            d="M116.526 139.957C116.567 140.071 116.626 140.171 116.705 140.259C116.783 140.347 116.881 140.415 116.998 140.467C117.115 140.517 117.247 140.542 117.394 140.542H119.001V138.659H117.426C117.282 138.659 117.15 138.688 117.032 138.744C116.914 138.8 116.813 138.873 116.728 138.962C116.644 139.051 116.579 139.152 116.533 139.264C116.487 139.375 116.463 139.487 116.463 139.601C116.463 139.725 116.484 139.845 116.526 139.957ZM120.361 143.879C120.361 143.945 120.341 143.992 120.301 144.022C120.261 144.051 120.213 144.067 120.158 144.067H119.204C119.069 144.067 119.001 144.004 119.001 143.879V141.751H117.583L116.56 143.929C116.526 144.021 116.468 144.067 116.384 144.067H115.284C115.207 144.067 115.154 144.053 115.125 144.024C115.096 143.996 115.081 143.955 115.081 143.901C115.081 143.895 115.082 143.889 115.085 143.882C115.089 143.874 115.09 143.868 115.09 143.862L116.265 141.475C116.1 141.383 115.947 141.271 115.809 141.14C115.671 141.009 115.553 140.864 115.457 140.705C115.36 140.545 115.285 140.374 115.232 140.189C115.177 140.006 115.151 139.812 115.151 139.61C115.151 139.313 115.207 139.032 115.321 138.768C115.434 138.505 115.591 138.276 115.79 138.08C115.99 137.882 116.226 137.728 116.498 137.612C116.77 137.499 117.063 137.441 117.38 137.441H120.158C120.293 137.441 120.361 137.513 120.361 137.655V143.879Z"
            fill="white" />
        <path
            d="M130.39 140.273C130.522 140.273 130.671 140.214 130.839 140.096C131.006 139.976 131.164 139.811 131.311 139.6C131.363 139.529 131.41 139.462 131.452 139.401C131.494 139.341 131.532 139.283 131.567 139.23C131.602 139.175 131.637 139.125 131.671 139.076C131.704 139.027 131.738 138.977 131.773 138.926C131.923 138.707 132.071 138.505 132.219 138.322C132.367 138.139 132.528 137.981 132.702 137.849C132.878 137.717 133.074 137.614 133.293 137.541C133.511 137.468 133.767 137.432 134.062 137.432C134.175 137.432 134.233 137.486 134.233 137.597V138.391C134.226 138.439 134.208 138.481 134.179 138.518C134.15 138.556 134.11 138.574 134.057 138.574C133.891 138.574 133.716 138.64 133.53 138.775C133.344 138.909 133.162 139.087 132.984 139.31C132.894 139.423 132.809 139.538 132.724 139.656C132.639 139.773 132.558 139.888 132.479 139.999C132.401 140.111 132.326 140.214 132.254 140.31C132.181 140.406 132.116 140.486 132.057 140.551L134.974 143.928H134.969C134.985 143.946 134.998 143.965 135.006 143.984C135.015 144.002 135.023 144.02 135.029 144.034C135.021 144.055 134.995 144.066 134.952 144.066H133.556C133.522 144.066 133.49 144.057 133.461 144.039C133.432 144.022 133.404 143.999 133.375 143.972C133.348 143.946 133.32 143.915 133.293 143.881C133.264 143.846 133.236 143.813 133.206 143.781L131.169 141.376C131.052 141.453 130.927 141.51 130.793 141.542C130.66 141.578 130.525 141.599 130.39 141.608V143.87C130.39 144.001 130.319 144.066 130.178 144.066H129.307C129.169 144.066 129.1 144.001 129.1 143.87V137.637C129.1 137.58 129.117 137.533 129.153 137.497C129.188 137.459 129.238 137.441 129.303 137.441H130.178C130.23 137.441 130.279 137.459 130.323 137.494C130.368 137.53 130.39 137.577 130.39 137.637V140.273Z"
            fill="white" />
        <path
            d="M139.6 140.761C139.6 141.061 139.653 141.343 139.758 141.606C139.865 141.869 140.013 142.1 140.203 142.296C140.393 142.491 140.62 142.646 140.88 142.76C141.142 142.873 141.429 142.93 141.743 142.93C142.053 142.93 142.339 142.873 142.602 142.76C142.864 142.646 143.091 142.491 143.281 142.296C143.471 142.1 143.62 141.869 143.728 141.606C143.836 141.343 143.889 141.061 143.889 140.761C143.889 140.458 143.836 140.174 143.728 139.908C143.62 139.643 143.471 139.413 143.281 139.217C143.091 139.02 142.864 138.866 142.602 138.75C142.339 138.636 142.053 138.579 141.743 138.579C141.429 138.579 141.142 138.636 140.88 138.75C140.62 138.866 140.393 139.02 140.203 139.217C140.013 139.413 139.865 139.643 139.758 139.908C139.653 140.174 139.6 140.458 139.6 140.761ZM138.231 140.761C138.231 140.445 138.273 140.142 138.356 139.852C138.439 139.563 138.557 139.29 138.711 139.037C138.865 138.782 139.047 138.551 139.262 138.342C139.475 138.135 139.712 137.957 139.973 137.81C140.234 137.663 140.514 137.547 140.814 137.466C141.113 137.384 141.425 137.343 141.751 137.343C142.074 137.343 142.385 137.384 142.687 137.466C142.987 137.547 143.268 137.663 143.53 137.81C143.791 137.957 144.029 138.135 144.244 138.342C144.459 138.551 144.643 138.782 144.795 139.037C144.946 139.29 145.065 139.563 145.15 139.852C145.234 140.142 145.276 140.445 145.276 140.761C145.276 141.076 145.234 141.378 145.15 141.669C145.065 141.958 144.946 142.228 144.795 142.48C144.643 142.732 144.459 142.961 144.244 143.167C144.029 143.376 143.791 143.552 143.53 143.701C143.268 143.85 142.987 143.964 142.687 144.044C142.385 144.125 142.074 144.165 141.751 144.165C141.425 144.165 141.113 144.125 140.814 144.044C140.514 143.964 140.234 143.85 139.973 143.701C139.712 143.552 139.475 143.376 139.262 143.167C139.047 142.961 138.865 142.732 138.711 142.48C138.557 142.228 138.439 141.958 138.356 141.669C138.273 141.378 138.231 141.076 138.231 140.761Z"
            fill="white" />
        <path
            d="M151.818 143.923C151.775 143.923 151.733 143.9 151.692 143.856C151.65 143.81 151.618 143.769 151.597 143.73C151.347 143.076 151.1 142.426 150.852 141.781C150.605 141.135 150.358 140.485 150.114 139.831L149.685 143.833C149.678 143.905 149.654 143.961 149.61 144.003C149.567 144.044 149.505 144.065 149.422 144.065H148.583C148.423 144.065 148.344 143.982 148.344 143.815L148.999 137.672C149.004 137.61 149.031 137.555 149.077 137.51C149.122 137.462 149.183 137.439 149.256 137.439H150.33C150.391 137.439 150.443 137.458 150.484 137.496C150.525 137.532 150.556 137.581 150.578 137.64C150.705 137.983 150.833 138.33 150.968 138.682C151.102 139.035 151.233 139.381 151.361 139.719L152.21 141.963L153.835 137.645V137.649C153.856 137.578 153.891 137.525 153.937 137.491C153.983 137.457 154.038 137.439 154.098 137.439H155.168C155.238 137.439 155.297 137.462 155.345 137.51C155.392 137.555 155.419 137.61 155.426 137.672L156.08 143.829C156.08 143.906 156.058 143.965 156.015 144.004C155.972 144.045 155.914 144.065 155.841 144.065H155.001C154.921 144.065 154.86 144.044 154.817 144.003C154.774 143.961 154.75 143.905 154.743 143.833L154.31 139.831L152.836 143.704C152.812 143.748 152.776 143.797 152.73 143.847C152.684 143.897 152.64 143.923 152.597 143.923H151.818Z"
            fill="white" />
        <path
            d="M164.704 137.441C164.753 137.441 164.795 137.456 164.83 137.488C164.866 137.518 164.884 137.563 164.884 137.62V143.879C164.884 143.937 164.865 143.981 164.829 144.015C164.792 144.05 164.743 144.067 164.68 144.067H163.782C163.725 144.067 163.676 144.049 163.638 144.013C163.599 143.978 163.58 143.932 163.58 143.874V138.62H160.847V143.879C160.847 143.937 160.827 143.981 160.787 144.015C160.748 144.05 160.699 144.067 160.64 144.067H159.737C159.682 144.067 159.636 144.05 159.597 144.018C159.559 143.985 159.539 143.94 159.539 143.883V137.625C159.539 137.502 159.598 137.441 159.715 137.441H164.704Z"
            fill="white" />
        <path
            d="M170.454 141.67H172.408L171.435 139.363L170.454 141.67ZM170.901 137.588C170.922 137.547 170.952 137.512 170.988 137.483C171.025 137.454 171.086 137.44 171.168 137.44H171.702C171.77 137.44 171.822 137.454 171.859 137.483C171.897 137.512 171.925 137.547 171.946 137.588L174.688 143.861V143.887C174.688 143.932 174.672 143.973 174.642 144.01C174.611 144.048 174.542 144.066 174.435 144.066H173.549C173.491 144.066 173.447 144.057 173.418 144.037C173.389 144.017 173.366 143.98 173.347 143.928L172.892 142.887H169.97L169.513 143.928C169.487 144.02 169.429 144.066 169.343 144.066H168.385C168.308 144.066 168.255 144.052 168.227 144.023C168.197 143.995 168.183 143.954 168.183 143.9C168.183 143.895 168.413 143.367 168.874 142.317C169.334 141.266 170.01 139.691 170.901 137.588Z"
            fill="white" />
        <path
            d="M177.903 137.637C177.903 137.593 177.922 137.549 177.959 137.507C177.996 137.462 178.042 137.441 178.097 137.441H179.05C179.097 137.441 179.144 137.461 179.192 137.499C179.239 137.538 179.263 137.584 179.263 137.637V139.944H182.313V137.637C182.313 137.584 182.333 137.538 182.374 137.499C182.414 137.461 182.464 137.441 182.524 137.441H183.438C183.492 137.441 183.545 137.459 183.597 137.495C183.647 137.531 183.671 137.578 183.671 137.637V143.871C183.671 144.001 183.593 144.067 183.438 144.067H182.524C182.47 144.067 182.421 144.05 182.378 144.018C182.335 143.984 182.313 143.936 182.313 143.871V141.162H179.263V143.871C179.263 143.93 179.241 143.978 179.197 144.013C179.152 144.049 179.096 144.067 179.028 144.067H178.097C177.969 144.067 177.903 144.001 177.903 143.871V137.637Z"
            fill="white" />
        <path
            d="M193.412 143.87C193.412 144 193.345 144.065 193.21 144.065H192.28C192.135 144.065 192.068 144 192.077 143.87V139.456L188.873 143.918C188.838 143.959 188.805 143.994 188.775 144.023C188.747 144.052 188.714 144.065 188.681 144.065H187.7C187.549 144.065 187.475 144 187.475 143.87V137.635C187.475 137.576 187.5 137.529 187.553 137.493C187.604 137.458 187.654 137.439 187.7 137.439H188.631C188.665 137.439 188.702 137.449 188.741 137.469C188.781 137.488 188.811 137.525 188.832 137.578V141.715L191.86 137.578C191.884 137.534 191.923 137.499 191.977 137.476C192.031 137.452 192.082 137.439 192.126 137.439H193.21C193.276 137.439 193.328 137.459 193.361 137.498C193.395 137.537 193.412 137.582 193.412 137.635V143.87Z"
            fill="white" />
        <path
            d="M198.165 139.956C198.207 140.07 198.266 140.17 198.344 140.258C198.423 140.346 198.521 140.414 198.638 140.466C198.754 140.516 198.886 140.541 199.033 140.541H200.641V138.658H199.065C198.922 138.658 198.79 138.687 198.671 138.743C198.553 138.799 198.452 138.872 198.368 138.961C198.284 139.05 198.219 139.151 198.172 139.263C198.126 139.374 198.103 139.486 198.103 139.6C198.103 139.724 198.124 139.844 198.165 139.956ZM202 143.878C202 143.944 201.981 143.991 201.941 144.021C201.9 144.05 201.853 144.066 201.798 144.066H200.843C200.709 144.066 200.641 144.003 200.641 143.878V141.75H199.222L198.2 143.928C198.166 144.02 198.107 144.066 198.024 144.066H196.923C196.847 144.066 196.793 144.052 196.764 144.023C196.735 143.995 196.721 143.954 196.721 143.9C196.721 143.894 196.722 143.888 196.725 143.881C196.728 143.873 196.729 143.867 196.729 143.861L197.905 141.474C197.739 141.382 197.587 141.27 197.449 141.139C197.311 141.008 197.193 140.863 197.097 140.704C196.999 140.544 196.924 140.373 196.871 140.188C196.817 140.005 196.79 139.811 196.79 139.609C196.79 139.312 196.847 139.031 196.96 138.767C197.074 138.504 197.231 138.275 197.43 138.079C197.63 137.881 197.865 137.727 198.138 137.611C198.409 137.498 198.703 137.44 199.019 137.44H201.798C201.934 137.44 202 137.512 202 137.654V143.878Z"
            fill="white" />
        <path fill-rule="evenodd" clip-rule="evenodd"
            d="M173.161 122.297H149.176C151.209 126.758 155.809 129.876 161.169 129.876C166.527 129.876 171.128 126.758 173.161 122.297Z"
            fill="white" />
        <path fill-rule="evenodd" clip-rule="evenodd"
            d="M148.244 116.317H154.115C154.115 112.563 157.258 109.519 161.134 109.519C165.011 109.519 168.154 112.563 168.154 116.317H174.025C174.025 109.423 168.254 103.834 161.134 103.834C154.015 103.834 148.244 109.423 148.244 116.317Z"
            fill="white" />
        <path d="M44 105.522H60.4166V111.209H50.2513V129.212H44V105.522Z" fill="white" />
        <path
            d="M74.7153 109.997C78.3026 109.997 80.3685 112.26 80.3144 115.156H68.3005C68.9522 112.051 70.9639 109.997 74.7153 109.997ZM81.454 123.407C80.0193 124.156 78.0735 124.737 75.856 124.737C71.9968 124.737 69.0616 122.788 68.5173 119.209H86.1856C86.457 118.314 86.5657 117.419 86.5657 115.945C86.5657 109.313 81.2928 104.943 74.9866 104.943C66.9412 104.943 62.0488 110.47 62.0488 117.367C62.0488 124.842 67.322 129.79 75.2042 129.79C77.3566 129.79 79.5291 129.415 81.454 128.64V123.407Z"
            fill="white" />
        <path
            d="M93.5001 105.522L93.1189 112.893C92.6176 121.346 90.1252 123.656 88.0771 123.795V129.243L88.1178 129.685C94.6962 129.685 97.9576 127 99.1537 114.103L99.3164 111.577H105.786V129.212H112.037V105.522H93.5001Z"
            fill="white" />
        <path
            d="M118.995 129.212V105.522H125.246V120.526L136.663 105.522H142.914V129.212H136.663V114.209L125.246 129.212H118.995Z"
            fill="white" />
        <path
            d="M201.448 125.685C199.383 128.369 195.687 129.79 191.718 129.79C183.781 129.79 178.454 124.842 178.454 117.367C178.454 110.471 183.672 104.943 191.12 104.943C195.142 104.943 198.676 105.944 200.96 108.155L198.024 112.945C196.175 111.208 194.164 110.629 191.935 110.629C188.457 110.629 185.14 113.208 185.14 117.367C185.14 121.579 188.51 124.158 192.207 124.158C194.871 124.158 196.936 122.947 198.513 121.263L201.448 125.685Z"
            fill="white" />
    </g>
</svg>