<svg width="246" height="246" viewBox="0 0 246 246" fill="none" xmlns="http://www.w3.org/2000/svg">
    <g clip-path="url(#clip0_4001_356)">
        <path
            d="M74.0825 105.358C76.6091 105.358 78.672 106.482 79.5387 107.322L78.0861 109.125C77.3782 108.495 75.8157 107.606 74.058 107.606C70.8843 107.606 68.8947 109.816 68.8947 112.842C68.8947 115.868 70.7745 118.078 74.0946 118.078C76.0111 118.078 77.6711 117.053 78.4035 116.337L79.7829 118.202C78.9162 119.128 76.7434 120.326 74.0825 120.326C69.4074 120.326 66.5144 117.152 66.5144 112.842C66.5265 108.532 69.4927 105.358 74.0825 105.358Z"
            fill="white" />
        <path
            d="M88.5228 105.358C92.8561 105.358 96.0054 108.532 96.0054 112.842C96.0054 117.165 92.8561 120.326 88.5228 120.326C84.1895 120.326 81.0403 117.152 81.0403 112.842C81.0403 108.532 84.1895 105.358 88.5228 105.358ZM88.5228 118.078C91.4524 118.078 93.6252 115.843 93.6252 112.842C93.6252 109.829 91.4647 107.606 88.5228 107.606C85.5932 107.606 83.4205 109.841 83.4205 112.842C83.4205 115.855 85.5932 118.078 88.5228 118.078Z"
            fill="white" />
        <path
            d="M110.873 115.855C110.873 117.967 109.542 120.005 106.076 120.005H98.532V105.679H105.636C108.505 105.679 110.165 107.482 110.165 109.507C110.165 110.656 109.64 111.693 108.383 112.533C109.652 112.965 110.873 113.891 110.873 115.855ZM100.863 107.939V111.743L105.355 111.718C106.954 111.718 107.785 110.816 107.785 109.754C107.785 108.766 107.077 107.939 105.661 107.939H100.863ZM106.222 117.757C107.858 117.757 108.493 116.831 108.493 115.83C108.493 114.744 107.748 113.867 106.271 113.867H100.876V117.757H106.222Z"
            fill="white" />
        <path
            d="M120.174 112.619L126.448 120.005H123.348L118.111 113.743H115.426V120.005H113.094V105.679H115.426V111.594H118.111L123.226 105.679H126.326L120.174 112.619Z"
            fill="white" />
        <path
            d="M133.626 105.358C137.959 105.358 141.109 108.532 141.109 112.842C141.109 117.165 137.959 120.326 133.626 120.326C129.293 120.326 126.143 117.152 126.143 112.842C126.143 108.532 129.293 105.358 133.626 105.358ZM133.626 118.078C136.555 118.078 138.728 115.843 138.728 112.842C138.728 109.829 136.568 107.606 133.626 107.606C130.684 107.606 128.524 109.841 128.524 112.842C128.524 115.855 130.684 118.078 133.626 118.078Z"
            fill="white" />
        <path
            d="M156.757 105.679H159.003V120.005H156.672V109.359L152.022 115.645H150.605L145.954 109.359V120.005H143.623V105.679H145.869L151.313 113.027L156.757 105.679Z"
            fill="white" />
        <path
            d="M169.659 111.533C172.772 111.533 174.468 113.373 174.468 115.744C174.468 118.115 172.772 120.005 169.818 120.005H162.128V105.679H173.15V107.926H164.459V111.533H169.659ZM169.72 117.757C171.343 117.757 172.064 116.855 172.064 115.769C172.064 114.707 171.331 113.78 169.72 113.78H164.459V117.745H169.72V117.757Z"
            fill="white" />
        <path
            d="M187.396 120.005L185.857 116.423H179.169L177.63 120.005H175.08L181.232 105.679H183.794L189.946 120.005H187.396ZM180.071 114.274H184.942L182.513 108.569L180.071 114.274Z"
            fill="white" />
        <path
            d="M202.178 105.679H204.509V120.005H202.178V113.867H193.987V120.005H191.655V105.679H193.987V111.619H202.178V105.679Z"
            fill="white" />
        <path
            d="M214.726 112.619L221 120.005H217.899L212.663 113.743H209.977V120.005H207.646V105.679H209.977V111.594H212.663L217.777 105.679H220.877L214.726 112.619Z"
            fill="white" />
        <path
            d="M25 122.5C25 132.17 32.7511 140 42.2966 140C42.5285 140 42.7604 140 42.9924 139.988V133.356H42.2966C36.3765 133.356 31.5671 128.502 31.5671 122.5C31.5671 116.51 36.3643 111.644 42.2966 111.644H42.9924V105.012C42.7604 105 42.5285 105 42.2966 105C32.7511 105 25 112.83 25 122.5Z"
            fill="white" />
        <path
            d="M45.7632 105.345V114.447H42.3088C37.9143 114.447 34.3501 118.053 34.3501 122.499C34.3501 126.945 37.9143 130.552 42.3088 130.552H45.7632V139.654C53.6609 138.036 59.6054 130.972 59.6054 122.499C59.6054 114.027 53.6609 106.963 45.7632 105.345Z"
            fill="white" />
        <path
            d="M73.6186 125.439C76.1331 125.439 78.0495 126.501 78.8551 127.317L77.488 128.984C76.7922 128.366 75.3763 127.564 73.5697 127.564C70.689 127.564 68.7726 129.663 68.7726 132.528C68.7726 135.406 70.6157 137.493 73.5697 137.493C75.5839 137.493 77.0852 136.567 77.7931 135.863L79.0749 137.592C78.2693 138.481 76.2552 139.63 73.6063 139.63C69.2853 139.63 66.5022 136.616 66.5022 132.528C66.5022 128.44 69.3829 125.439 73.6186 125.439Z"
            fill="white" />
        <path d="M91.9404 127.885H87.1433V139.333H84.9339V127.885H80.1123V125.748H91.9283V127.885H91.9404Z"
            fill="white" />
        <path
            d="M105.514 130.034C105.514 132.467 103.903 134.368 100.522 134.368H96.1152V139.333H93.9058V125.748H100.375C103.903 125.748 105.514 127.613 105.514 130.034ZM100.436 132.232C102.548 132.232 103.219 131.244 103.219 130.058C103.219 128.873 102.548 127.885 100.436 127.885H96.1152V132.232H100.436Z"
            fill="white" />
        <path
            d="M116.915 139.333L115.462 135.937H109.115L107.663 139.333H105.246L111.08 125.748H113.522L119.356 139.333H116.915ZM109.97 133.899H114.596L112.289 128.49L109.97 133.899Z"
            fill="white" />
        <path
            d="M133.809 139.333H131.123L126.937 134.035L122.713 139.333H120.052L125.496 132.442L120.235 125.748H122.884L126.912 130.799L130.94 125.748H133.601L128.34 132.405L133.809 139.333Z"
            fill="white" />
        <path
            d="M141.352 125.439C145.454 125.439 148.444 128.453 148.444 132.541C148.444 136.629 145.454 139.642 141.352 139.642C137.251 139.642 134.248 136.629 134.248 132.541C134.248 128.453 137.251 125.439 141.352 125.439ZM141.352 137.505C144.136 137.505 146.186 135.394 146.186 132.541C146.186 129.688 144.136 127.576 141.352 127.576C138.569 127.576 136.519 129.688 136.519 132.541C136.519 135.394 138.569 137.505 141.352 137.505Z"
            fill="white" />
        <path
            d="M162.836 135.393C162.836 137.394 161.567 139.333 158.295 139.333H151.142V125.748H157.881C160.603 125.748 162.177 127.452 162.177 129.379C162.177 130.466 161.677 131.454 160.492 132.257C161.688 132.652 162.836 133.529 162.836 135.393ZM153.339 127.885V131.491L157.672 131.466C159.174 131.466 159.894 130.614 159.894 129.601C159.894 128.675 159.186 127.872 157.807 127.872H153.339V127.885ZM158.417 137.197C159.967 137.197 160.566 136.307 160.566 135.356C160.566 134.331 159.967 133.516 158.515 133.516H153.339V137.209H158.417V137.197Z"
            fill="white" />
        <path
            d="M175.323 139.333L173.871 135.937H167.524L166.071 139.333H163.654L169.489 125.748H171.93L177.765 139.333H175.323ZM168.378 133.899H173.004L170.697 128.49L168.378 133.899Z"
            fill="white" />
        <path
            d="M189.629 125.748H191.839V139.333H189.629V133.417H181.854V139.333H179.644V125.748H181.854V131.281H189.629V125.748Z"
            fill="white" />
        <path
            d="M205.168 125.748H207.207V139.333H204.997V129.157L197.111 139.333H195.097V125.748H197.307V135.875L205.168 125.748Z"
            fill="white" />
        <path
            d="M212.663 137.197H220.816V139.333H210.454V125.748H220.622V127.885H212.663V131.417H219.987V133.553H212.663V137.197Z"
            fill="white" />
    </g>
    <defs>
        <clipPath id="clip0_4001_356">
            <rect width="196" height="35" fill="white" transform="translate(25 105)" />
        </clipPath>
    </defs>
</svg>