<svg width="246" height="246" viewBox="0 0 246 246" fill="none" xmlns="http://www.w3.org/2000/svg">
<path d="M93.2083 91.5964C86.2025 93.3998 81.0695 98.1513 78.9539 104.776C77.6013 109.007 78.0175 114.972 79.925 118.718L80.4105 119.689H85.3007H90.2256L88.977 118.371C88.2834 117.677 87.2776 116.221 86.7574 115.18C85.925 113.585 85.7863 112.822 85.7863 110.498C85.7516 108.14 85.925 107.411 86.7227 105.747C87.8672 103.423 90.1562 100.961 92.0638 99.9548C94.3528 98.8103 97.6823 98.3594 100.318 98.8103C102.919 99.2958 104.584 100.163 106.665 102.14C108.468 103.839 109.336 105.435 109.994 108.244C110.827 111.747 109.717 115.562 107.081 118.336L105.798 119.689H110.723H115.613L116.168 118.544C118.63 113.342 118.457 107.065 115.648 101.481C114.26 98.7062 110.029 94.5097 107.255 93.1917C102.781 91.0068 97.6129 90.4172 93.2083 91.5964Z" fill="white"/>
<path d="M47.4277 105.816V119.689H50.896H54.3642V114.486V109.284H60.2602H66.1561V114.66V120.07L69.555 119.966L72.9192 119.862L73.0232 105.885L73.0926 91.943H69.6244H66.1561L66.0868 97.5615L65.9827 103.215H60.2602H54.5376L54.4335 97.5615L54.3642 91.943H50.896H47.4277V105.816Z" fill="white"/>
<path d="M123.035 105.816V119.689H126.503H129.972V112.926C129.972 106.267 130.145 105.261 131.047 106.926C131.29 107.377 132.642 109.458 134.064 111.608L136.631 115.527H138.469H140.307L143.324 110.845C144.989 108.279 146.515 106.163 146.654 106.163C146.827 106.163 146.966 109.215 146.966 112.926V119.689H150.261H153.556V105.816V91.9432H151.058H148.527L143.532 99.4345C140.584 103.839 138.399 106.752 138.226 106.579C138.053 106.406 135.764 103.076 133.162 99.1918L128.411 92.1166L125.74 92.0125L123.035 91.9085V105.816Z" fill="white"/>
<path d="M159.105 105.99V120.036H169.683H180.261V117.088V114.14L173.082 114.071L165.868 113.967V111.539V109.111L172.111 108.938L178.353 108.764L178.457 105.886L178.561 103.042H172.111H165.66L165.764 100.51L165.868 98.0129L173.082 97.9089L180.261 97.8395V94.8915V91.9435H169.683H159.105V105.99Z" fill="white"/>
<path d="M92.064 114.174C92.4108 114.799 93.2779 115.77 94.0062 116.359C95.2548 117.365 95.5322 117.435 98.064 117.435C100.596 117.435 100.873 117.365 102.122 116.359C102.85 115.77 103.717 114.799 104.064 114.174L104.723 113.099H98.064H91.405L92.064 114.174Z" fill="white"/>
<path d="M56.7573 126.07C52.7341 126.972 49.0925 129.504 47.185 132.764C46.0058 134.81 45 138.244 45 140.325C45 142.406 46.0058 145.839 47.185 147.886C52.9422 157.666 68.3758 157.284 72.9886 147.227C73.4394 146.221 73.925 144.833 74.029 144.14L74.2371 142.926H70.7342H67.266L66.9192 143.897C66.4336 145.354 64.4914 147.4 63.1041 147.955C61.5434 148.614 58.4914 148.614 56.8613 147.955C55.3006 147.296 54.2255 146.29 53.0463 144.487C51.8324 142.614 51.763 138.66 52.9075 136.44C55.8555 130.787 64.1446 130.718 66.6764 136.371L67.3007 137.724H70.7689H74.2371L74.029 136.51C73.4741 133.076 70.4568 129.088 67.1966 127.388C65.5319 126.521 61.5434 125.55 59.8093 125.62C59.185 125.654 57.8324 125.862 56.7573 126.07Z" fill="white"/>
<path d="M78.9888 140.29V154.371H82.2836H85.5437L85.6478 150.279L85.7518 146.221H88.5264H91.301L94.0409 150.279L96.8154 154.371H100.735H104.688L101.428 149.585L98.2027 144.799L99.9368 143.065C104.862 138.244 103.613 130.614 97.4397 127.596L95.116 126.452L87.0697 126.348L78.9888 126.209V140.29ZM91.9946 132.521C93.6247 132.764 94.2836 133.076 95.0466 133.909C96.9542 136.024 95.7056 139.111 92.6883 139.805C91.1276 140.186 86.9657 140.255 86.1333 139.943C85.6824 139.77 85.5784 139.111 85.5784 136.163C85.5784 133.631 85.7171 132.521 86.0293 132.417C86.7576 132.105 89.8096 132.174 91.9946 132.521Z" fill="white"/>
<path d="M107.775 140.325V154.371L118.457 154.302L129.104 154.198L129.209 152.117C129.278 151.007 129.243 149.724 129.104 149.273L128.931 148.475H121.821H114.711V145.874V143.273H120.954H127.197V140.498V137.724H120.954H114.711V134.949V132.174L121.925 132.105L129.104 132.001V129.226V126.452L118.457 126.348L107.775 126.278V140.325Z" fill="white"/>
<path d="M133.44 140.325V154.44L141.174 154.267C147.937 154.128 149.116 154.024 150.746 153.4C154.457 151.943 157.093 149.62 158.654 146.429C159.556 144.625 159.625 144.174 159.625 140.325C159.625 136.475 159.556 136.024 158.654 134.221C157.093 131.03 154.457 128.706 150.746 127.25C149.116 126.625 147.937 126.521 141.174 126.383L133.44 126.209V140.325ZM149.116 133.527C150.781 134.533 151.926 136.094 152.654 138.348C153.174 139.909 153.209 140.463 152.862 141.816C152.342 144.036 151.059 145.839 149.29 146.984C147.972 147.816 147.452 147.955 144.122 148.059L140.376 148.198V140.325V132.452L144.122 132.591C147.174 132.729 148.041 132.868 149.116 133.527Z" fill="white"/>
<path d="M164.654 140.325V154.371H168.122H171.59V140.325V126.278H168.122H164.654V140.325Z" fill="white"/>
<path d="M174.781 129.296L174.885 132.348L179.498 132.452L184.076 132.556V143.446V154.371H187.371H190.666L190.735 143.516L190.839 132.695L195.452 132.591L200.03 132.487V129.4V126.278H187.371H174.677L174.781 129.296Z" fill="white"/>
</svg>
