<svg width="246" height="246" viewBox="0 0 246 246" fill="none" xmlns="http://www.w3.org/2000/svg">
<g clip-path="url(#clip0_4001_356)">
<mask id="mask0_4001_356" style="mask-type:luminance" maskUnits="userSpaceOnUse" x="10" y="106" width="225" height="34">
<path d="M235 106H10V140H235V106Z" fill="white"/>
</mask>
<g mask="url(#mask0_4001_356)">
<path d="M184.663 123.434C185.885 123.434 186.591 122.955 186.591 122.057C186.591 121.26 185.969 120.739 184.62 120.739H181.46V123.434H184.663ZM181.459 117.896H184.08C185.303 117.896 185.987 117.479 185.987 116.58C185.987 115.786 185.366 115.329 184.164 115.329H181.46L181.459 117.896ZM187.337 119.048C189.099 119.633 190.22 120.635 190.22 122.661C190.22 125.172 188.188 126.697 184.724 126.697H183.661V126.706H177.802V112.059H184.682C186.508 112.059 187.793 112.526 188.643 113.383C189.223 113.967 189.575 114.741 189.575 115.786C189.575 117.479 188.622 118.482 187.337 119.048ZM202.178 126.847V118.294L195.734 126.847H192.234V112.194H195.891V120.911L202.339 112.194H205.835V126.846L202.178 126.847ZM228.893 121.257L227.105 116.659L225.295 121.257H228.893ZM234.998 126.84H231.039L229.934 124.098H224.236L223.137 126.84H219.254L225.316 112.041H228.956L234.998 126.84ZM220.306 112.164V115.398H215.73V126.84H212.034V115.398H207.457V112.164H220.306ZM205.114 132.759H205.903V136.985L209.049 132.759H209.818V138.101H209.029V133.875L205.873 138.101H205.114V132.759ZM198.722 132.759H199.511V135.063H202.564V132.759H203.353V138.101H202.564V135.766H199.511V138.101H198.722V132.759ZM192.964 137.43L193.364 136.84C193.898 137.295 194.502 137.532 195.138 137.532C195.823 137.532 196.448 137.202 196.448 136.583C196.448 136.044 195.977 135.703 195.116 135.703H194.409V135.053H195.126C195.823 135.053 196.305 134.691 196.305 134.133C196.305 133.637 195.813 133.338 195.158 133.338C194.634 133.338 194.009 133.503 193.548 133.875L193.158 133.318C193.713 132.882 194.429 132.646 195.208 132.646C196.398 132.646 197.126 133.244 197.126 134.071C197.126 134.732 196.726 135.116 196.274 135.302C196.858 135.508 197.257 135.911 197.257 136.614C197.257 137.471 196.468 138.225 195.158 138.225C194.316 138.225 193.611 137.956 192.964 137.43ZM187.013 132.759H187.802V136.985L190.948 132.759H191.716V138.101H190.927V133.875L187.77 138.101H187.013V132.759ZM179.791 135.042L177.73 132.759H178.684L181.379 135.858V132.759H182.168V135.858L184.863 132.759H185.815L183.756 135.042L185.928 138.101H185.006L183.244 135.61L182.169 136.799V138.101H181.38V136.799L180.303 135.611L178.541 138.101H177.617L179.791 135.042Z" fill="#58A947"/>
<path d="M175.865 119.38C175.865 120.527 174.943 121.457 173.805 121.457C172.671 121.459 171.748 120.53 171.746 119.382C171.746 119.381 171.746 119.381 171.746 119.38C171.748 118.232 172.669 117.303 173.804 117.304C173.805 117.304 173.805 117.304 173.805 117.304C174.941 117.302 175.863 118.232 175.865 119.38ZM139.077 124.533C137.645 126.131 135.636 127.047 133.541 127.047C129.41 127.047 126.052 123.659 126.052 119.494C126.052 115.331 129.41 111.942 133.541 111.942C135.464 111.942 137.29 112.695 138.698 114.064L136.888 116.623L136.743 116.758C135.973 115.878 134.869 115.374 133.708 115.371C131.451 115.371 129.62 117.219 129.62 119.494C129.62 121.768 131.451 123.617 133.708 123.617C134.69 123.617 135.636 123.253 136.391 122.589L136.41 122.599L136.716 122.31L139.077 124.533ZM75.7883 123.31C77.386 122.808 78.5563 121.318 78.5563 119.539C78.5563 117.76 77.386 116.272 75.7883 115.77C75.4157 115.655 75.0328 115.572 74.6227 115.572C73.0438 115.573 71.6172 116.527 70.9969 117.997C70.5914 118.984 70.5914 120.096 70.9969 121.084C71.6172 122.553 73.043 123.506 74.6219 123.507C75.0328 123.507 75.4157 123.425 75.7883 123.31ZM74.6227 111.899C78.8094 111.899 82.2008 115.319 82.2008 119.539C82.2008 123.759 78.8094 127.18 74.6227 127.18C71.7531 127.177 69.1227 125.562 67.7922 122.989C67.1242 123.899 66.3289 124.703 65.4305 125.38C64.1258 126.363 62.1297 127.127 60.3625 127.127H60.3266C60.0485 127.135 59.7703 127.133 59.4977 127.113C55.3258 126.806 52.1836 123.143 52.4899 118.937C52.7945 114.728 56.4274 111.566 60.5992 111.872C62.4899 112.011 64.1477 112.853 65.3821 114.111L63.2156 117.172C62.5539 116.26 61.5344 115.625 60.3328 115.537C58.1688 115.376 56.2828 117.02 56.1258 119.206C55.9664 121.388 57.4633 123.448 60.1992 123.448C64.5852 123.448 66.7227 117.385 68.3656 115.144L68.3781 115.131C69.8281 113.104 72.15 111.902 74.6227 111.899ZM170.487 123.714V126.845H158.437V112.191H170.384V115.652H162.098V118.103H169.668V120.986H162.098V123.714H170.487ZM151.428 126.845V118.291L144.987 126.845H141.487V112.191H145.141V120.908L151.59 112.191H155.087V126.843L151.428 126.845ZM119.788 121.254L117.998 116.657L116.191 121.254H119.788ZM125.893 126.838H121.935L120.827 124.095H115.132L114.03 126.838H110.149L116.209 112.039H119.85L125.893 126.838ZM94.6203 115.396H87.9297V126.838H84.2344V112.161H94.6211L94.6203 115.396ZM104.933 115.309H101.135V116.284C101.091 125.746 95.3367 126.73 94.3774 126.827V123.636C96.9102 122.728 97.7289 120.347 97.7289 113.949V112.16H108.602V126.835H104.932L104.933 115.309ZM169.833 135.114C169.74 134.141 169.187 133.315 168.141 133.315C167.23 133.315 166.533 134.08 166.42 135.114H169.833ZM168.161 132.644C169.731 132.644 170.631 133.904 170.631 135.474C170.631 135.546 170.631 135.629 170.621 135.753H166.42C166.533 136.88 167.352 137.53 168.285 137.53C169.013 137.53 169.524 137.23 169.955 136.777L170.448 137.22C169.914 137.82 169.269 138.223 168.264 138.223C166.809 138.223 165.62 137.097 165.62 135.433C165.62 133.883 166.696 132.644 168.162 132.644H168.161ZM159.484 132.757H160.273V136.983L163.42 132.757H164.188V138.099H163.399V133.872L160.243 138.099H159.484V132.757ZM153.092 132.757H153.88V135.061H156.935V132.757H157.724V138.099H156.935V135.764H153.88V138.099H153.092V132.757ZM150.655 136.135V135.639C150.152 135.489 149.631 135.413 149.108 135.413C148.123 135.413 147.561 135.846 147.561 136.508C147.561 137.18 148.175 137.573 148.892 137.573C149.866 137.573 150.655 136.983 150.655 136.135ZM146.761 136.528C146.761 135.381 147.683 134.782 149.027 134.782C149.702 134.782 150.173 134.875 150.644 135.01V134.843C150.644 133.893 150.07 133.397 149.077 133.397C148.452 133.397 147.96 133.553 147.469 133.78L147.232 133.129C147.816 132.86 148.38 132.673 149.159 132.673C149.907 132.673 150.491 132.88 150.87 133.264C151.239 133.635 151.424 134.151 151.424 134.834V138.099H150.645V137.304C150.276 137.778 149.67 138.213 148.739 138.213C147.745 138.213 146.761 137.643 146.761 136.528ZM143.709 137.416C144.466 137.416 144.928 137.076 144.928 136.518C144.928 136.003 144.467 135.692 143.606 135.692H141.946V137.416H143.709ZM143.576 135.051C144.212 135.051 144.652 134.75 144.652 134.193C144.652 133.749 144.282 133.438 143.596 133.438H141.946V135.051H143.576ZM141.157 132.757H143.72C144.774 132.757 145.451 133.283 145.451 134.09C145.451 134.793 145.011 135.134 144.569 135.319C145.205 135.496 145.738 135.888 145.738 136.642C145.738 137.541 144.98 138.099 143.812 138.099H141.157V132.757ZM138.926 135.433C138.926 134.287 138.074 133.346 136.958 133.346C135.81 133.346 135.021 134.287 135.021 135.433C135.021 136.581 135.861 137.51 136.978 137.51C138.126 137.51 138.926 136.581 138.926 135.433ZM134.211 135.433C134.211 133.925 135.38 132.644 136.978 132.644C138.567 132.644 139.736 133.904 139.736 135.433C139.742 136.968 138.518 138.216 137.002 138.223C136.988 138.223 136.973 138.223 136.958 138.223C135.369 138.223 134.211 136.962 134.211 135.433ZM130.667 135.382L128.67 132.757H129.57L131.138 134.824L132.706 132.757H133.588L131.58 135.36L133.67 138.099H132.759L131.118 135.919L129.467 138.099H128.588L130.667 135.382ZM126.631 136.135V135.639C126.129 135.489 125.608 135.413 125.084 135.413C124.1 135.413 123.538 135.846 123.538 136.508C123.538 137.18 124.152 137.573 124.87 137.573C125.842 137.573 126.631 136.983 126.631 136.135ZM122.738 136.528C122.738 135.381 123.661 134.782 125.003 134.782C125.551 134.776 126.096 134.854 126.622 135.01V134.843C126.622 133.893 126.047 133.397 125.052 133.397C124.429 133.397 123.937 133.553 123.445 133.78L123.209 133.129C123.794 132.86 124.357 132.673 125.135 132.673C125.884 132.673 126.468 132.88 126.847 133.264C127.215 133.635 127.399 134.151 127.399 134.834V138.099H126.622V137.304C126.252 137.778 125.647 138.213 124.716 138.213C123.721 138.213 122.738 137.643 122.738 136.528ZM118.804 133.356C117.82 133.356 116.888 134.193 116.888 135.433C116.888 136.674 117.82 137.499 118.804 137.499C119.83 137.499 120.67 136.735 120.67 135.423C120.67 134.161 119.809 133.356 118.804 133.356ZM116.13 132.757H116.92V133.832C117.349 133.191 117.975 132.644 118.948 132.644C120.219 132.644 121.48 133.656 121.48 135.433C121.48 137.181 120.23 138.213 118.948 138.213C117.964 138.213 117.329 137.676 116.919 137.076V139.752H116.13V132.757ZM112.289 133.46H110.393V132.757H114.984V133.46H113.088V138.099H112.289V133.46ZM104.83 135.433C104.83 133.925 105.999 132.644 107.546 132.644C108.551 132.644 109.174 133.066 109.666 133.593L109.165 134.131C108.745 133.687 108.253 133.346 107.535 133.346C106.459 133.346 105.64 134.265 105.64 135.433C105.64 136.592 106.48 137.51 107.587 137.51C108.263 137.51 108.765 137.159 109.184 136.704L109.708 137.189C109.174 137.789 108.54 138.223 107.546 138.223C105.999 138.223 104.83 136.952 104.83 135.433Z" fill="#FF6700"/>
<path d="M35.9305 106.335C43.0867 106.335 48.9094 112.208 48.9094 119.427C48.9094 126.646 43.0867 132.516 35.9305 132.516C33.6688 132.517 31.4461 131.922 29.4805 130.79C27.5078 131.934 25.2734 132.536 23 132.535C15.8313 132.535 10 126.656 10 119.427C10 112.198 15.8313 106.316 23 106.316C25.2774 106.316 27.5172 106.919 29.4805 108.064C31.4453 106.93 33.6688 106.335 35.9305 106.335ZM18.9898 119.391C19.9445 116.21 22.2672 113.145 25.9016 110.28C24.9633 109.977 23.9844 109.823 23 109.825C17.7461 109.825 13.4766 114.13 13.4766 119.424C13.4766 124.716 17.7461 129.019 23 129.019C24.25 129.019 25.4695 128.778 26.6188 128.299L26.6273 128.295C26.657 128.285 29.9625 127.137 33.5336 123.461C36.3055 120.611 36.7508 118.729 36.7672 117.838L36.7633 117.835V117.706C36.7601 116.54 35.825 115.595 34.6727 115.594C33.8789 115.59 33.1523 116.042 32.7977 116.76L32.7898 116.777L32.7391 116.883L29.3359 123.509C29.2828 123.635 29.2188 123.757 29.1484 123.874L29.1187 123.943V123.936C28.1125 125.666 26.2789 126.73 24.2953 126.735C21.2227 126.735 18.7242 124.215 18.7242 121.117C18.7242 120.536 18.8102 119.965 18.982 119.417L18.9898 119.391ZM39.9586 119.457C39.0055 122.653 36.6945 125.715 33.0945 128.556C34.0367 128.865 35.0188 129.019 36.018 129.019C41.268 129.019 45.5336 124.716 45.5336 119.423C45.5336 114.13 41.268 109.825 36.018 109.825C34.7484 109.825 33.5133 110.074 32.3516 110.566C32.3094 110.579 29.0453 111.657 25.4805 115.329C22.6773 118.215 22.2164 120.107 22.2 121.008V121.117C22.2039 122.285 23.1406 123.23 24.2945 123.229C25.0625 123.229 25.7656 122.807 26.132 122.13L29.6438 115.269C29.6867 115.178 29.7336 115.088 29.7844 115.001L29.8656 114.838V114.853C30.8766 113.143 32.6992 112.093 34.668 112.089C37.7391 112.089 40.2367 114.608 40.2367 117.706C40.2367 118.303 40.143 118.89 39.9586 119.452V119.457Z" fill="#FF6700"/>
</g>
</g>
<defs>
<clipPath id="clip0_4001_356">
<rect width="225" height="34" fill="white" transform="translate(10 106)"/>
</clipPath>
</defs>
</svg>
