<svg width="246" height="246" viewBox="0 0 246 246" fill="none" xmlns="http://www.w3.org/2000/svg">
<g clip-path="url(#clip0_4001_356)">
<path d="M88.217 85.8215C79.902 87.9577 73.8099 93.5858 71.2989 101.432C69.6935 106.444 70.1875 113.51 72.4515 117.947L73.0278 119.097H78.8318H84.677L83.1951 117.536C82.3718 116.714 81.1781 114.989 80.5606 113.757C79.5727 111.867 79.4081 110.963 79.4081 108.211C79.3669 105.417 79.5727 104.554 80.5195 102.583C81.8779 99.8301 84.5947 96.9134 86.8586 95.722C89.5754 94.3664 93.5271 93.8323 96.6555 94.3664C99.7428 94.9415 101.719 95.9685 104.188 98.3101C106.329 100.323 107.358 102.213 108.14 105.54C109.128 109.69 107.811 114.209 104.682 117.495L103.159 119.097H109.004H114.809L115.467 117.741C118.39 111.579 118.184 104.144 114.85 97.5296C113.203 94.2431 108.181 89.2723 104.888 87.7112C99.5781 85.1231 93.4448 84.4247 88.217 85.8215Z" fill="black"/>
<path d="M33.8813 102.665V119.097H37.9977H42.114V112.935V106.773H49.1118H56.1095V113.141V119.549L60.1435 119.426L64.1364 119.303L64.2599 102.747L64.3422 86.2326H60.2259H56.1095L56.0272 92.8877L55.9037 99.5839H49.1118H42.3198L42.1963 92.8877L42.114 86.2326H37.9977H33.8813V102.665Z" fill="black"/>
<path d="M123.617 102.665V119.097H127.734H131.85V111.086C131.85 103.199 132.056 102.007 133.126 103.979C133.414 104.513 135.02 106.978 136.707 109.525L139.753 114.167H141.935H144.117L147.698 108.621C149.674 105.581 151.485 103.076 151.65 103.076C151.855 103.076 152.02 106.691 152.02 111.086V119.097H155.931H159.841V102.665V86.2323H156.877H153.872L147.945 95.1058C144.446 100.323 141.853 103.774 141.647 103.569C141.441 103.363 138.724 99.4193 135.637 94.8183L129.998 86.4377L126.828 86.3145L123.617 86.1912V102.665Z" fill="black"/>
<path d="M166.427 102.87V119.508H178.982H191.537V116.016V112.524L183.016 112.442L174.454 112.319V109.443V106.567L181.863 106.362L189.273 106.156L189.396 102.747L189.52 99.3781H181.863H174.207L174.331 96.3792L174.454 93.4213L183.016 93.2981L191.537 93.2159V89.724V86.2321H178.982H166.427V102.87Z" fill="black"/>
<path d="M86.8585 112.565C87.2702 113.305 88.2992 114.455 89.1637 115.153C90.6455 116.345 90.9749 116.427 93.9798 116.427C96.9847 116.427 97.314 116.345 98.7959 115.153C99.6603 114.455 100.689 113.305 101.101 112.565L101.883 111.292H93.9798H86.0764L86.8585 112.565Z" fill="black"/>
<path d="M44.9544 126.656C40.1794 127.724 35.8573 130.723 33.5933 134.585C32.1937 137.009 31 141.076 31 143.54C31 146.005 32.1937 150.072 33.5933 152.496C40.4264 164.081 58.7441 163.629 64.2188 151.716C64.7539 150.524 65.3302 148.881 65.4537 148.059L65.7007 146.622H61.5432H57.4268L57.0152 147.772C56.4389 149.497 54.1338 151.921 52.4872 152.578C50.6349 153.359 47.0125 153.359 45.0779 152.578C43.2255 151.798 41.9494 150.606 40.5499 148.47C39.1092 146.252 39.0268 141.569 40.3852 138.939C43.8841 132.243 53.7221 132.161 56.7271 138.857L57.468 140.459H61.5843H65.7007L65.4537 139.022C64.7951 134.955 61.2139 130.23 57.3445 128.217C55.3687 127.19 50.6349 126.04 48.5767 126.122C47.8358 126.163 46.2304 126.41 44.9544 126.656Z" fill="black"/>
<path d="M71.3401 143.499V160.178H75.2506H79.12L79.2434 155.331L79.3669 150.524H82.66H85.9531L89.205 155.331L92.498 160.178H97.1495H101.842L97.9727 154.509L94.1446 148.84L96.2027 146.786C102.048 141.076 100.566 132.038 93.239 128.464L90.481 127.108L80.9311 126.985L71.3401 126.82V143.499ZM86.7763 134.297C88.711 134.585 89.4931 134.954 90.3987 135.94C92.6627 138.446 91.1808 142.103 87.5996 142.924C85.7472 143.376 80.8076 143.458 79.8197 143.088C79.2846 142.883 79.1611 142.103 79.1611 138.611C79.1611 135.612 79.3258 134.297 79.6962 134.174C80.5607 133.804 84.183 133.886 86.7763 134.297Z" fill="black"/>
<path d="M105.506 143.54V160.178L118.184 160.096L130.821 159.973L130.945 157.508C131.027 156.193 130.986 154.673 130.821 154.139L130.615 153.194H122.177H113.738V150.113V147.032H121.148H128.557V143.746V140.459H121.148H113.738V137.173V133.886L122.3 133.804L130.821 133.681V130.394V127.108L118.184 126.985L105.506 126.903V143.54Z" fill="black"/>
<path d="M135.967 143.54V160.26L145.146 160.055C153.173 159.891 154.572 159.767 156.507 159.028C160.912 157.302 164.04 154.55 165.892 150.771C166.963 148.634 167.045 148.1 167.045 143.54C167.045 138.98 166.963 138.446 165.892 136.31C164.04 132.531 160.912 129.778 156.507 128.053C154.572 127.313 153.173 127.19 145.146 127.026L135.967 126.82V143.54ZM154.572 135.488C156.548 136.68 157.907 138.528 158.771 141.199C159.388 143.047 159.43 143.705 159.018 145.307C158.401 147.936 156.878 150.072 154.778 151.428C153.214 152.414 152.597 152.578 148.645 152.701L144.199 152.866V143.54V134.215L148.645 134.379C152.267 134.543 153.296 134.708 154.572 135.488Z" fill="black"/>
<path d="M173.013 143.54V160.178H177.13H181.246V143.54V126.903H177.13H173.013V143.54Z" fill="black"/>
<path d="M185.033 130.477L185.157 134.092L190.631 134.215L196.065 134.338V147.238V160.178H199.975H203.886L203.968 147.32L204.092 134.503L209.566 134.379L215 134.256V130.6V126.903H199.975H184.91L185.033 130.477Z" fill="black"/>
</g>
<defs>
<clipPath id="clip0_4001_356">
<rect width="184" height="76" fill="white" transform="translate(31 85)"/>
</clipPath>
</defs>
</svg>
