<svg width="246" height="246" viewBox="0 0 246 246" fill="none" xmlns="http://www.w3.org/2000/svg">
<g clip-path="url(#clip0_4001_356)">
<path d="M45.5582 117.304C45.9686 117.822 46.3192 118.389 46.5991 118.993L38.6848 124.701L35.3787 122.673V120.233L38.6848 122.261L45.5582 117.304Z" fill="white"/>
<path d="M32.006 122.5C32.006 122.39 32.0089 122.282 32.0146 122.173L30.0109 122.075C30.004 122.216 30 122.358 30 122.5C30 124.847 30.972 126.972 32.544 128.51L33.9649 127.12C32.755 125.936 32.006 124.302 32.006 122.5Z" fill="white"/>
<path d="M38.685 129.037C38.5729 129.037 38.462 129.034 38.351 129.029L38.251 130.989C38.3947 130.996 38.5396 131 38.685 131C41.0836 131 43.2552 130.049 44.8266 128.511L43.4058 127.12C42.1964 128.304 40.5266 129.037 38.685 129.037Z" fill="url(#paint0_linear_4001_356)"/>
<path d="M38.685 129.037C38.5729 129.037 38.462 129.034 38.351 129.029L38.251 130.989C38.3947 130.996 38.5396 131 38.685 131C41.0836 131 43.2552 130.049 44.8266 128.511L43.4058 127.12C42.1964 128.304 40.5266 129.037 38.685 129.037Z" fill="url(#paint1_linear_4001_356)"/>
<path d="M38.6854 115.964C38.7974 115.964 38.9083 115.968 39.0193 115.973L39.1193 114.011C38.9756 114.004 38.8307 114 38.6854 114C36.2867 114 34.1152 114.951 32.5437 116.49L33.9646 117.88C35.1739 116.697 36.8443 115.964 38.6854 115.964Z" fill="white"/>
<path d="M38.685 129.037C38.5729 129.037 38.462 129.034 38.351 129.029L38.251 130.989C38.3947 130.996 38.5396 131 38.685 131C41.0836 131 43.2552 130.049 44.8266 128.511L43.4058 127.12C42.1964 128.304 40.5266 129.037 38.685 129.037Z" fill="white"/>
<path d="M42.4508 117.104L44.1401 115.886C42.6491 114.707 40.7517 114 38.6853 114V115.964C40.0815 115.964 41.3782 116.385 42.4508 117.104Z" fill="white"/>
<path d="M47.3707 122.5C47.3707 121.98 47.323 121.471 47.2317 120.978L45.3618 122.326C45.3635 122.384 45.3642 122.442 45.3642 122.5C45.3642 124.419 44.5146 126.148 43.1638 127.345L44.5117 128.803C46.2677 127.248 47.3707 125 47.3707 122.5Z" fill="white"/>
<path d="M38.6849 129.036C36.7237 129.036 34.9574 128.205 33.7342 126.883L32.2444 128.202C33.8337 129.92 36.1306 130.999 38.6849 130.999V129.036Z" fill="white"/>
<path d="M34.2063 117.656L32.8584 116.198C31.103 117.753 30 120.001 30 122.501H32.0066C32.006 120.581 32.8556 118.853 34.2063 117.656Z" fill="white"/>
<path fill-rule="evenodd" clip-rule="evenodd" d="M60.1949 125.344C59.6166 125.656 58.943 125.821 58.2481 125.821C56.2145 125.821 54.739 124.401 54.739 122.444C54.739 120.487 56.2151 119.067 58.2481 119.067C59.0171 119.067 59.7069 119.278 60.2995 119.695L61.9169 118.528L61.81 118.437C60.8656 117.625 59.6034 117.195 58.1607 117.195C56.5956 117.195 55.1747 117.712 54.1609 118.65C53.1406 119.593 52.5791 120.921 52.5791 122.388C52.5791 123.862 53.1389 125.209 54.1551 126.181C55.1747 127.156 56.5922 127.693 58.1464 127.693C59.7724 127.693 61.1921 127.139 62.1543 126.129L60.695 125.077L60.1949 125.344ZM69.066 121.317H66.3215V119.032H70.7029L73.0641 117.329H64.066V127.558H68.7752C71.4163 127.558 72.9313 126.387 72.9313 124.345C72.9313 122.392 71.5588 121.317 69.066 121.317ZM68.6734 125.856H66.3215V123.02H68.6734C70.1051 123.02 70.7719 123.494 70.7719 124.438C70.7719 125.402 70.0655 125.856 68.6734 125.856ZM80.573 119.032L82.9342 117.329H75.0316V127.559H82.9342V125.856H77.287V123.237H82.1043V121.533H77.287V119.032H80.573ZM85.0345 117.329H89.3372C92.083 117.329 93.7889 118.732 93.7889 120.99C93.7889 123.248 92.083 124.661 89.3372 124.661H87.2899V127.558H85.0345V117.329ZM87.2899 122.958H89.2889C90.7339 122.958 91.53 122.261 91.53 120.995C91.53 119.729 90.7339 119.032 89.2889 119.032H87.2899V122.958ZM108.333 126.598C108.205 126.753 108.021 126.909 107.782 127.064C107.554 127.209 107.281 127.345 106.963 127.471C106.645 127.587 106.288 127.684 105.891 127.762C105.503 127.84 105.086 127.878 104.639 127.878C103.785 127.878 103.011 127.757 102.316 127.515C101.621 127.272 101.025 126.928 100.528 126.482C100.042 126.026 99.6593 125.473 99.3812 124.824C99.1132 124.174 98.9791 123.437 98.9791 122.613C98.9791 121.847 99.1132 121.144 99.3812 120.504C99.6494 119.864 100.032 119.311 100.528 118.845C101.025 118.38 101.621 118.021 102.316 117.769C103.021 117.507 103.805 117.376 104.669 117.376C105.493 117.376 106.199 117.478 106.784 117.682C107.37 117.876 107.817 118.079 108.125 118.293V120.824C107.966 120.601 107.768 120.382 107.529 120.169C107.301 119.956 107.038 119.767 106.74 119.602C106.452 119.437 106.129 119.306 105.772 119.209C105.424 119.102 105.056 119.049 104.669 119.049C104.103 119.049 103.592 119.136 103.135 119.311C102.678 119.486 102.291 119.728 101.973 120.038C101.655 120.349 101.412 120.727 101.243 121.173C101.074 121.609 100.99 122.094 100.99 122.627C100.99 123.122 101.064 123.587 101.213 124.024C101.372 124.45 101.601 124.824 101.899 125.144C102.206 125.464 102.589 125.721 103.046 125.915C103.502 126.099 104.029 126.196 104.625 126.206C105.081 126.206 105.498 126.157 105.876 126.06C106.263 125.963 106.611 125.832 106.918 125.667C107.236 125.503 107.514 125.309 107.753 125.086C107.991 124.863 108.185 124.62 108.333 124.358V126.598ZM117.985 119.209H114.47V127.718H112.608V119.209H109.152V117.536H117.985V119.209ZM121.413 127.718V124.547H123.021C124.561 124.547 125.728 124.252 126.522 123.66C127.316 123.069 127.713 122.176 127.713 120.984C127.713 119.839 127.341 118.981 126.597 118.409C125.862 117.827 124.67 117.536 123.021 117.536H119.551V127.718H121.413ZM121.413 122.875V119.209H123.185C124.099 119.209 124.759 119.34 125.166 119.602C125.574 119.864 125.778 120.31 125.778 120.94C125.778 121.638 125.559 122.138 125.122 122.438C124.685 122.729 124.029 122.875 123.156 122.875H121.413ZM138.419 127.718H136.438L135.44 125.304H130.659L129.676 127.718H127.784L132.014 117.536H134.13L138.419 127.718ZM134.755 123.631L133.043 119.456L131.329 123.631H134.755ZM139.106 117.536L142.636 122.54L138.912 127.718H141.087L143.947 123.617L146.911 127.718H149.131L145.273 122.438L148.997 117.536H146.837L144.007 121.391L141.341 117.536H139.106ZM149.427 122.613C149.427 121.847 149.556 121.144 149.814 120.504C150.082 119.864 150.459 119.311 150.946 118.845C151.432 118.38 152.018 118.021 152.704 117.769C153.389 117.507 154.158 117.376 155.012 117.376C155.847 117.376 156.607 117.498 157.291 117.74C157.987 117.982 158.578 118.332 159.064 118.787C159.551 119.233 159.928 119.781 160.196 120.431C160.464 121.081 160.599 121.818 160.599 122.642C160.599 123.408 160.464 124.111 160.196 124.751C159.938 125.391 159.566 125.944 159.079 126.409C158.593 126.875 158.002 127.238 157.306 127.5C156.622 127.752 155.856 127.878 155.012 127.878C154.179 127.878 153.413 127.762 152.719 127.529C152.033 127.287 151.447 126.943 150.961 126.497C150.474 126.041 150.097 125.488 149.829 124.838C149.561 124.179 149.427 123.437 149.427 122.613ZM151.393 122.627C151.393 123.122 151.467 123.587 151.616 124.024C151.775 124.46 152.008 124.838 152.316 125.158C152.624 125.478 153.002 125.735 153.449 125.929C153.905 126.114 154.432 126.206 155.027 126.206C155.584 126.206 156.08 126.118 156.517 125.944C156.964 125.769 157.341 125.527 157.649 125.217C157.967 124.906 158.21 124.533 158.379 124.096C158.548 123.65 158.632 123.161 158.632 122.627C158.632 122.133 158.553 121.667 158.394 121.231C158.245 120.795 158.017 120.416 157.709 120.096C157.401 119.776 157.019 119.524 156.561 119.34C156.115 119.146 155.593 119.049 154.998 119.049C154.441 119.049 153.94 119.136 153.493 119.311C153.046 119.486 152.664 119.733 152.346 120.053C152.038 120.363 151.8 120.736 151.631 121.173C151.472 121.609 151.393 122.094 151.393 122.627ZM162.551 117.536V127.718H166.826C167.461 127.718 168.027 127.665 168.524 127.558C169.03 127.442 169.457 127.267 169.805 127.035C170.162 126.792 170.436 126.482 170.624 126.104C170.813 125.726 170.907 125.275 170.907 124.751C170.907 124.082 170.758 123.553 170.461 123.166C170.162 122.768 169.691 122.516 169.045 122.409C169.581 122.206 169.974 121.91 170.222 121.522C170.47 121.134 170.594 120.649 170.594 120.067C170.594 118.38 169.423 117.536 167.079 117.536H162.551ZM168.524 125.711C168.186 125.934 167.66 126.046 166.945 126.046H164.412V123.267H166.974C167.63 123.267 168.136 123.369 168.494 123.573C168.851 123.776 169.03 124.126 169.03 124.62C169.03 125.115 168.862 125.478 168.524 125.711ZM168.211 121.478C167.873 121.721 167.406 121.842 166.811 121.842H164.412V119.209H166.855C167.521 119.209 167.997 119.316 168.286 119.529C168.583 119.742 168.733 120.053 168.733 120.46C168.733 120.896 168.558 121.236 168.211 121.478ZM182.408 127.718H180.427L179.429 125.304H174.648L173.665 127.718H171.773L176.003 117.536H178.119L182.408 127.718ZM178.744 123.631L177.031 119.456L175.318 123.631H178.744ZM185.738 123.311H191.443V127.718H193.305V117.536H191.443V121.638H185.738V117.536H183.876V127.718H185.738V123.311ZM197.884 125.144L203.574 117.536H205.601V127.718H203.738V119.995L198.018 127.718H196.022V117.536H197.884V125.144ZM210.176 123.311H214.972V121.638H210.176V119.209H215.523V117.536H208.314V127.718H215.687V126.046H210.176V123.311Z" fill="white"/>
</g>
<defs>
<linearGradient id="paint0_linear_4001_356" x1="38.1188" y1="129.816" x2="44.4905" y2="128.344" gradientUnits="userSpaceOnUse">
<stop offset="0.1226" stop-color="#A3CD39"/>
<stop offset="0.2846" stop-color="#86C339"/>
<stop offset="0.8693" stop-color="#21A038"/>
</linearGradient>
<linearGradient id="paint1_linear_4001_356" x1="38.1188" y1="129.816" x2="44.4905" y2="128.344" gradientUnits="userSpaceOnUse">
<stop offset="0.1226" stop-color="#A3CD39"/>
<stop offset="0.2846" stop-color="#86C339"/>
<stop offset="0.8693" stop-color="#21A038"/>
</linearGradient>
<clipPath id="clip0_4001_356">
<rect width="186" height="17" fill="white" transform="translate(30 114)"/>
</clipPath>
</defs>
</svg>
