<svg width="246" height="246" viewBox="0 0 246 246" fill="none" xmlns="http://www.w3.org/2000/svg">
<g clip-path="url(#clip0_4001_322)">
<path d="M43.93 142.764C36.1991 142.764 32 137.252 32 130.345C32 123.368 36.9426 117.644 45.0581 117.644C47.2124 117.644 49.0815 117.923 50.7061 118.762V123.262C48.5518 122.006 46.8254 121.759 45.2364 121.759C39.7309 121.759 37.6989 125.774 37.6989 129.995C37.6989 134.705 40.2581 138.438 44.7398 138.438C46.7184 138.438 48.3099 137.896 50.2146 136.885L51.5872 140.532C48.7326 142.311 46.2931 142.764 43.93 142.764ZM130.863 142.764C125.143 142.764 122.215 138.614 122.215 133.66C122.215 128.112 126.099 124.448 131.286 124.448C133.58 124.448 134.78 124.901 135.732 125.46V129.439C134.461 128.53 133.437 128.216 132.027 128.216C129.098 128.216 127.211 130.345 127.211 133.416C127.211 136.172 128.673 138.858 131.955 138.858C132.872 138.858 134.087 138.465 135.391 137.803L136.613 141.09C135.133 142.067 132.663 142.764 130.863 142.764ZM146.77 128.774V142.417H141.688V128.774H136.748V124.798H152.349L151.247 128.774H146.77ZM171.349 126.856C171.349 132.996 171.102 136.207 169.974 137.672C169.408 138.405 168.527 138.896 167.608 139.032L169.018 142.764C170.182 142.729 171.985 142.241 173.22 141.02C174.845 139.449 175.372 137.461 175.619 135.367C175.83 133.587 175.973 131.495 175.973 129.645V128.772H179.948V142.415H185.031V124.795H171.349V126.856ZM113.717 124.448C111.741 124.448 110.224 125.392 108.918 126.403L108.352 124.798H104.082V151L109.165 149.465V142.032C110.084 142.52 111.283 142.764 112.589 142.764C117.848 142.764 121.023 138.334 121.023 133.101C121.023 127.519 117.812 124.448 113.717 124.448ZM111.354 139.137C110.435 139.137 109.73 138.823 109.165 138.44V130.101C109.765 129.195 111.354 128.113 112.694 128.113C114.741 128.113 115.941 129.404 115.941 133.033C115.941 136.034 114.812 139.137 111.354 139.137ZM159.652 124.448C157.251 124.448 154.926 124.815 152.487 126.376L154.028 129.416C155.225 128.749 156.765 128.231 158.568 128.231C160.33 128.231 161.907 129.001 161.907 130.854V131.153L158.825 131.269C154.328 131.417 151.29 133.346 151.29 137.053C151.29 140.542 153.837 142.764 157.213 142.764C159.505 142.764 161.079 141.914 162.24 140.874L163.029 142.417H167.007V130.974C167.007 126.338 164.381 124.448 159.652 124.448ZM161.907 138.055C161.42 138.425 160.404 138.87 159.054 138.87C157.325 138.87 156.353 138.017 156.353 136.686C156.353 135.349 157.402 134.609 159.579 134.534L161.907 134.461V138.055ZM194.903 130.519H192.29V124.03L187.208 125.376V142.417H193.704C198.432 142.417 202.845 141.159 202.845 136.311C202.845 132.195 199.28 130.519 194.903 130.519ZM194.055 138.941H192.29V134.023H193.986C195.784 134.023 197.763 134.302 197.763 136.394C197.763 138.453 196.067 138.941 194.055 138.941ZM81.2481 132.822V132.681C82.9058 132.334 84.2834 131.251 84.2834 128.948C84.2834 126.2 81.9483 125.198 79.6539 124.893C78.9512 124.8 77.4105 124.798 76.5524 124.798H69.2874V142.417H75.3887C76.0635 142.417 77.0693 142.415 77.8536 142.392C81.0622 142.241 85.0244 141.108 85.0244 137.008C85.0244 134.496 83.6468 133.24 81.2481 132.822ZM74.4694 128.153H76.5524C78.6328 128.153 79.4121 128.782 79.4121 129.864C79.4121 131.224 78.1414 131.641 76.0227 131.641H74.4694V128.153ZM76.4455 139.074H74.3625V134.748H76.1985C78.6328 134.748 79.9392 135.306 79.9392 136.877C79.9392 138.551 78.2101 139.074 76.4455 139.074ZM67.6144 133.451C67.6144 128.007 64.2251 124.448 59.3538 124.448C54.0241 124.448 51.0244 128.704 51.0244 133.66C51.0244 138.299 53.637 142.764 59.9904 142.764C62.1421 142.764 64.5409 142.279 67.0134 140.741L65.8828 137.567C63.8712 138.511 62.5648 138.823 60.8358 138.823C58.4701 138.823 56.2115 137.358 56.1045 134.984H67.6144V133.451ZM56.0001 131.533C56.0001 129.927 57.1664 128.113 59.2112 128.113C61.368 128.113 62.3178 129.857 62.4248 131.533H56.0001ZM102.628 133.451C102.628 128.007 99.2386 124.448 94.3673 124.448C89.0376 124.448 86.0379 128.704 86.0379 133.66C86.0379 138.299 88.6505 142.764 95.0039 142.764C97.1556 142.764 99.5569 142.279 102.027 140.741L100.896 137.567C98.8871 138.511 97.5783 138.823 95.8493 138.823C93.4862 138.823 91.2275 137.358 91.1206 134.984H102.628V133.451ZM91.0136 131.533C91.0136 129.927 92.1798 128.113 94.2246 128.113C96.3789 128.113 97.3313 129.857 97.4383 131.533H91.0136Z" fill="white"/>
<path d="M211.893 112.35C211.603 112.549 211.304 112.705 211.002 112.801C209.996 113.116 208.756 112.826 207.643 112.373C206.849 112.048 206.016 111.628 205.142 111.097C205.598 109.997 206.026 108.741 206.39 107.352C206.956 105.194 207.226 103.294 207.281 101.625C207.317 100.593 207.266 99.6493 207.151 98.791C206.994 97.6105 206.627 96.4098 205.848 95.7025C205.601 95.4836 205.3 95.2998 204.964 95.1488C206.556 94.9776 207.969 94.965 209.217 95.0557C210.528 95.1664 211.862 95.4861 212.641 96.2412C213.42 96.9963 213.765 98.3127 213.902 99.604C214.029 100.837 214.04 102.234 213.891 103.815C213.742 105.373 213.436 107.105 212.934 109.025H212.937C212.621 110.213 212.26 111.349 211.893 112.35ZM192.675 111.374C192.644 111.026 192.657 110.692 192.726 110.385C192.952 109.365 193.826 108.452 194.781 107.722C195.464 107.206 196.245 106.702 197.149 106.219C197.885 107.16 198.771 108.152 199.807 109.159C201.415 110.722 202.945 111.902 204.379 112.783C205.265 113.33 206.115 113.758 206.925 114.09C208.038 114.543 209.273 114.832 210.284 114.518C210.599 114.414 210.91 114.251 211.21 114.039C210.563 115.487 209.868 116.705 209.166 117.727C208.412 118.794 207.467 119.778 206.416 120.065C205.363 120.355 204.04 119.992 202.84 119.464C201.697 118.958 200.467 118.266 199.156 117.349C197.867 116.443 196.5 115.316 195.068 113.924C194.185 113.065 193.368 112.189 192.675 111.374ZM203.113 95.4081C203.433 95.5566 203.719 95.7353 203.953 95.9467C204.733 96.6515 205.097 97.8572 205.259 99.0377C205.371 99.8784 205.42 100.802 205.392 101.817C204.197 101.975 202.886 102.237 201.486 102.622C199.313 103.216 197.513 103.936 196.023 104.724C195.102 105.209 194.3 105.723 193.607 106.252C192.652 106.977 191.781 107.89 191.552 108.912C191.483 109.234 191.47 109.582 191.509 109.944C190.564 108.668 189.843 107.462 189.301 106.35C188.741 105.172 188.353 103.87 188.626 102.826C188.899 101.781 189.879 100.827 190.941 100.067C191.957 99.3397 193.176 98.6324 194.635 97.9704C196.075 97.321 197.748 96.7144 199.68 96.1858C200.877 95.8536 202.054 95.5943 203.113 95.4081Z" fill="white"/>
</g>
<defs>
<clipPath id="clip0_4001_322">
<rect width="182" height="56" fill="white" transform="translate(32 95)"/>
</clipPath>
</defs>
</svg>
