<svg width="246" height="246" viewBox="0 0 246 246" fill="none" xmlns="http://www.w3.org/2000/svg">
<g clip-path="url(#clip0_4001_356)">
<path fill-rule="evenodd" clip-rule="evenodd" d="M66.6704 120.712C66.0813 117.436 63.1363 115.103 58.4807 115.103C53.1522 115.048 49.8708 118.102 49.8708 122.101C49.8708 126.043 53.1522 129.097 58.4807 129.097C63.1922 129.07 66.025 126.765 66.642 123.461H62.351C61.9304 124.96 60.444 125.988 58.3685 125.988C55.7604 125.988 54.1617 124.266 54.1617 122.101C54.1617 119.935 55.7604 118.241 58.3685 118.241C60.444 118.241 61.9021 119.241 62.323 120.712H66.6704ZM77.4874 128.681V118.991H83.2649V115.464H67.5027V118.991H73.2806V128.681H77.4874ZM84.9484 115.464V128.681H89.0151V125.127H93.3061C94.3157 125.127 95.2973 125.099 96.2511 124.794C98.1018 124.211 99.4761 122.572 99.4761 120.351C99.4761 118.13 98.1303 116.52 96.307 115.881C95.2973 115.52 94.3437 115.464 93.3061 115.464H84.9484ZM89.0151 118.657H92.7171C93.5024 118.657 93.9513 118.741 94.3157 118.88C94.961 119.129 95.2695 119.713 95.2695 120.323C95.2695 120.99 94.9047 121.629 94.2036 121.851C93.8671 121.962 93.4745 122.017 92.7171 122.017H89.0151V118.657ZM110.466 126.765H104.296L103.539 128.681H98.9391L104.408 115.464H110.354L115.823 128.681H111.251L110.466 126.765ZM107.241 118.519L105.305 123.85H109.484L107.549 118.519H107.241ZM126.46 121.934L131.703 115.464H127.217L124.244 119.435L121.524 115.464H116.531L121.607 122.184L116.419 128.681H120.85L123.962 124.766L126.767 128.681H131.902L126.46 121.934ZM140.76 115.103C135.291 115.103 132.009 118.158 132.009 122.101C132.009 126.043 135.291 129.097 140.76 129.097C146.199 129.097 149.482 126.043 149.482 122.101C149.482 118.158 146.199 115.103 140.76 115.103ZM140.76 125.877C138.039 125.877 136.3 124.266 136.3 122.101C136.3 119.935 138.039 118.352 140.76 118.352C143.451 118.352 145.218 119.935 145.218 122.101C145.218 124.266 143.451 125.877 140.76 125.877ZM166.502 118.852C166.502 117.436 165.719 116.27 164.175 115.77C163.501 115.548 162.632 115.464 161.398 115.464H151.694V128.681H161.594C162.774 128.681 163.641 128.598 164.37 128.32C165.858 127.765 166.784 126.46 166.784 124.905C166.784 123.6 166.025 122.295 164.343 121.823C165.549 121.295 166.502 120.296 166.502 118.852ZM155.565 120.684V118.408H160.865C161.258 118.408 161.566 118.435 161.791 118.519C162.268 118.685 162.492 119.074 162.492 119.518C162.492 119.963 162.268 120.351 161.764 120.573C161.566 120.657 161.258 120.684 160.865 120.684H155.565ZM155.565 125.627V123.378H161.006C161.454 123.378 161.764 123.406 161.988 123.489C162.436 123.655 162.659 124.016 162.659 124.46C162.659 124.933 162.436 125.321 161.932 125.516C161.708 125.599 161.398 125.627 161.006 125.627H155.565ZM178.857 126.765L179.64 128.681H184.212L178.744 115.464H172.797L167.329 128.681H171.929L172.685 126.765H178.857ZM175.63 118.519H175.939L177.874 123.85H173.694L175.63 118.519ZM196.531 123.766V128.681H200.599V115.464H196.531V120.296H189.997V115.464H185.93V128.681H189.997V123.766H196.531ZM207.744 123.156V115.464H203.679V128.681H207.269L214.28 120.99V128.681H218.346V115.464H214.756L207.744 123.156ZM235 115.464H221.426V128.681H235V125.655H225.492V123.322H234.439V120.684H225.492V118.491H235V115.464Z" fill="#333333"/>
<path fill-rule="evenodd" clip-rule="evenodd" d="M10 107H42.3225V123.094C42.3225 127.219 40.099 131.032 36.4905 133.095L26.1612 139L15.8318 133.095C12.2228 131.032 10 127.219 10 123.094V107Z" fill="#FDDB2D"/>
<path fill-rule="evenodd" clip-rule="evenodd" d="M18.8699 115.469V120.475C19.561 119.701 20.818 119.178 22.2555 119.178H23.8175V124.997C23.8175 126.545 23.3925 127.9 22.7621 128.645H29.556C28.9268 127.899 28.5028 126.546 28.5028 125V119.178H30.0647C31.5023 119.178 32.7593 119.701 33.4509 120.474V115.469H18.8699Z" fill="#333333"/>
</g>
<defs>
<clipPath id="clip0_4001_356">
<rect width="225" height="32" fill="white" transform="translate(10 107)"/>
</clipPath>
</defs>
</svg>
