<svg width="246" height="246" viewBox="0 0 246 246" fill="none" xmlns="http://www.w3.org/2000/svg">
<g clip-path="url(#clip0_4001_356)">
<path d="M29.0932 146.146C19.9604 146.146 15 139.551 15 131.288C15 122.94 20.8388 116.092 30.4258 116.092C32.9707 116.092 35.1787 116.426 37.0978 117.429V122.813C34.553 121.311 32.5135 121.016 30.6364 121.016C24.1327 121.016 21.7322 125.819 21.7322 130.869C21.7322 136.504 24.7554 140.97 30.0497 140.97C32.3871 140.97 34.2672 140.322 36.5173 139.112L38.1387 143.475C34.7665 145.604 31.8847 146.146 29.0932 146.146ZM131.788 146.146C125.032 146.146 121.573 141.18 121.573 135.254C121.573 128.617 126.16 124.232 132.288 124.232C134.998 124.232 136.415 124.774 137.54 125.442V130.204C136.039 129.117 134.83 128.74 133.163 128.74C129.703 128.74 127.475 131.288 127.475 134.962C127.475 138.259 129.201 141.473 133.079 141.473C134.161 141.473 135.597 141.003 137.137 140.211L138.581 144.144C136.833 145.312 133.915 146.146 131.788 146.146ZM150.58 129.409V145.731H144.576V129.409H138.741V124.65H157.171L155.868 129.409H150.58ZM179.615 127.114C179.615 134.459 179.323 138.302 177.991 140.054C177.323 140.931 176.282 141.518 175.196 141.68L176.862 146.146C178.237 146.104 180.367 145.52 181.826 144.059C183.745 142.18 184.368 139.801 184.659 137.296C184.91 135.167 185.078 132.664 185.078 130.451V129.406H189.773V145.728H195.778V124.647H179.615V127.114ZM111.534 124.232C109.2 124.232 107.408 125.361 105.865 126.572L105.196 124.65H100.152V156L106.156 154.163V145.27C107.242 145.854 108.659 146.146 110.202 146.146C116.414 146.146 120.165 140.846 120.165 134.585C120.165 127.906 116.372 124.232 111.534 124.232ZM108.743 141.807C107.657 141.807 106.824 141.43 106.156 140.973V130.996C106.866 129.912 108.743 128.617 110.325 128.617C112.744 128.617 114.161 130.162 114.161 134.504C114.161 138.094 112.828 141.807 108.743 141.807ZM165.798 124.232C162.962 124.232 160.215 124.672 157.334 126.539L159.154 130.177C160.568 129.379 162.387 128.758 164.517 128.758C166.598 128.758 168.461 129.68 168.461 131.896V132.254L164.821 132.393C159.509 132.571 155.92 134.878 155.92 139.313C155.92 143.487 158.928 146.146 162.916 146.146C165.624 146.146 167.483 145.129 168.855 143.885L169.787 145.731H174.486V132.041C174.486 126.493 171.384 124.232 165.798 124.232ZM168.461 140.512C167.886 140.955 166.686 141.488 165.092 141.488C163.049 141.488 161.9 140.467 161.9 138.874C161.9 137.275 163.14 136.389 165.711 136.299L168.461 136.212V140.512ZM207.44 131.496H204.354V123.732L198.35 125.343V145.731H206.024C211.609 145.731 216.823 144.225 216.823 138.425C216.823 133.501 212.611 131.496 207.44 131.496ZM206.439 141.572H204.354V135.688H206.357C208.481 135.688 210.819 136.022 210.819 138.524C210.819 140.988 208.815 141.572 206.439 141.572ZM73.1776 134.251V134.082C75.1359 133.667 76.7634 132.372 76.7634 129.616C76.7634 126.328 74.0049 125.129 71.2945 124.765C70.4643 124.653 68.6443 124.65 67.6306 124.65H59.0483V145.731H66.2559C67.053 145.731 68.2412 145.728 69.1677 145.701C72.958 145.52 77.6387 144.165 77.6387 139.259C77.6387 136.254 76.0113 134.751 73.1776 134.251ZM65.1699 128.665H67.6306C70.0882 128.665 71.0088 129.418 71.0088 130.713C71.0088 132.339 69.5076 132.839 67.0049 132.839H65.1699V128.665ZM67.5043 141.732H65.0436V136.555H67.2125C70.0882 136.555 71.6314 137.223 71.6314 139.103C71.6314 141.105 69.5889 141.732 67.5043 141.732ZM57.072 135.004C57.072 128.49 53.0681 124.232 47.3135 124.232C41.0175 124.232 37.4739 129.324 37.4739 135.254C37.4739 140.804 40.5602 146.146 48.0656 146.146C50.6074 146.146 53.4412 145.565 56.362 143.725L55.0264 139.928C52.65 141.057 51.1068 141.43 49.0643 141.43C46.2697 141.43 43.6015 139.678 43.4751 136.838H57.072V135.004ZM43.3518 132.709C43.3518 130.788 44.7295 128.617 47.1451 128.617C49.693 128.617 50.815 130.704 50.9414 132.709H43.3518ZM98.434 135.004C98.434 128.49 94.4302 124.232 88.6756 124.232C82.3796 124.232 78.8359 129.324 78.8359 135.254C78.8359 140.804 81.9223 146.146 89.4277 146.146C91.9695 146.146 94.8062 145.565 97.7241 143.725L96.3885 139.928C94.015 141.057 92.4688 141.43 90.4263 141.43C87.6348 141.43 84.9666 139.678 84.8402 136.838H98.434V135.004ZM84.7138 132.709C84.7138 130.788 86.0916 128.617 88.5071 128.617C91.052 128.617 92.177 130.704 92.3034 132.709H84.7138Z" fill="#002F6C"/>
<path d="M227.51 109.759C227.168 109.996 226.816 110.183 226.458 110.298C225.27 110.674 223.805 110.328 222.49 109.786C221.552 109.397 220.568 108.894 219.536 108.259C220.075 106.943 220.58 105.44 221.01 103.778C221.678 101.197 221.997 98.9232 222.063 96.9266C222.106 95.6919 222.045 94.5626 221.91 93.5356C221.723 92.1233 221.29 90.6868 220.369 89.8405C220.078 89.5785 219.723 89.3587 219.326 89.178C221.206 88.9732 222.875 88.9582 224.35 89.0666C225.899 89.1991 227.474 89.5816 228.395 90.485C229.315 91.3885 229.722 92.9635 229.884 94.5084C230.034 95.984 230.047 97.6554 229.872 99.5466C229.695 101.411 229.333 103.483 228.741 105.78H228.744C228.371 107.202 227.944 108.56 227.51 109.759ZM204.808 108.59C204.772 108.174 204.787 107.774 204.869 107.407C205.136 106.187 206.168 105.094 207.296 104.22C208.103 103.603 209.026 103.001 210.094 102.423C210.963 103.549 212.01 104.735 213.234 105.94C215.133 107.81 216.94 109.223 218.634 110.276C219.681 110.93 220.686 111.442 221.642 111.839C222.957 112.382 224.415 112.728 225.61 112.351C225.983 112.228 226.35 112.032 226.705 111.779C225.94 113.511 225.119 114.968 224.289 116.191C223.398 117.468 222.283 118.645 221.041 118.989C219.798 119.335 218.234 118.901 216.816 118.269C215.466 117.664 214.013 116.836 212.464 115.739C210.942 114.655 209.327 113.306 207.636 111.641C206.592 110.614 205.626 109.566 204.808 108.59ZM217.139 89.4882C217.517 89.6659 217.854 89.8797 218.132 90.1327C219.052 90.9759 219.482 92.4184 219.675 93.8308C219.807 94.8366 219.864 95.9418 219.831 97.1555C218.42 97.3452 216.871 97.6584 215.217 98.1192C212.65 98.8298 210.524 99.6911 208.764 100.634C207.675 101.215 206.728 101.829 205.909 102.462C204.781 103.329 203.752 104.422 203.482 105.645C203.401 106.03 203.385 106.446 203.43 106.88C202.315 105.353 201.463 103.91 200.822 102.579C200.161 101.17 199.703 99.6128 200.026 98.3631C200.347 97.1133 201.505 95.9719 202.76 95.0625C203.96 94.1922 205.401 93.3459 207.124 92.5539C208.824 91.7769 210.801 91.0512 213.084 90.4188C214.497 90.0212 215.888 89.7111 217.139 89.4882Z" fill="#002F6C"/>
</g>
<defs>
<clipPath id="clip0_4001_356">
<rect width="215" height="67" fill="white" transform="translate(15 89)"/>
</clipPath>
</defs>
</svg>
