<svg width="246" height="246" viewBox="0 0 246 246" fill="none" xmlns="http://www.w3.org/2000/svg">
<g clip-path="url(#clip0_4001_356)">
<path d="M42.4047 133.285H37.9789V119.535L28.2638 133.285H24V112.33H28.4797V126.08L38.2488 112.33H42.4047V133.285ZM45.643 112.385H50.1767V120.635H59.2441V112.385H63.7778V133.285H59.2441V124.87H50.1767V133.285H45.643V112.385ZM71.4959 133.285H67.0162V112.33H80.9411V116.51H71.4959V133.285ZM102.692 122.835C102.692 116.455 98.1584 112.11 91.8975 112H91.7896C85.5288 112.055 80.9951 116.455 80.9951 122.78C80.9951 129.16 85.5288 133.505 91.7896 133.56H91.8975C98.1584 133.56 102.692 129.16 102.692 122.835ZM91.8436 129.38C88.2274 129.38 85.6907 126.85 85.6907 122.835C85.6907 118.765 88.2274 116.29 91.8436 116.29C95.4597 116.29 97.9964 118.82 97.9964 122.835C97.9964 126.85 95.4597 129.38 91.8436 129.38ZM149.918 116.62H143.279V112.385H161.036V116.62H154.452V133.285H149.918V116.62ZM163.789 112.385H173.018C177.93 112.385 180.898 115.355 180.898 119.645C180.898 124.485 177.228 127.015 172.587 127.015H168.323V133.285H163.789V112.385ZM172.695 122.89C174.961 122.89 176.257 121.515 176.257 119.645C176.257 117.61 174.853 116.455 172.587 116.455H168.269V122.835H172.695V122.89ZM221.324 133.285L214.038 122.56L221 112.33H215.819L211.447 118.765L207.075 112.33H201.732L208.748 122.67L201.462 133.285H206.643L211.339 126.41L215.981 133.285H221.324ZM196.388 133.285H200.976L192.179 112.22H188.023L179.225 133.285H183.813L185.756 128.445H194.445L196.388 133.285ZM187.375 124.375L190.128 117.83L192.88 124.375H187.375ZM115.484 129.38C111.867 129.38 109.331 126.85 109.331 122.835C109.331 118.765 111.867 116.29 115.484 116.29C117.373 116.29 118.938 116.84 120.287 117.995L123.094 115.135C121.205 113.265 118.668 112.055 115.538 112.055H115.43C109.169 112.11 104.635 116.51 104.635 122.835C104.635 129.215 109.169 133.56 115.43 133.615H115.538C118.614 133.56 121.151 132.35 123.094 130.535L120.287 127.675C118.938 128.83 117.373 129.38 115.484 129.38ZM134.32 129.38C130.704 129.38 128.167 126.85 128.167 122.835C128.167 118.765 130.704 116.29 134.32 116.29C136.209 116.29 137.774 116.84 139.124 117.995L141.93 115.135C140.041 113.265 137.504 112.055 134.374 112.055H134.266C128.005 112.11 123.472 116.51 123.472 122.835C123.472 129.215 128.005 133.56 134.266 133.615H134.374C137.45 133.56 139.987 132.35 141.93 130.535L139.124 127.675C137.774 128.83 136.209 129.38 134.32 129.38Z" fill="#0047BB"/>
</g>
<defs>
<clipPath id="clip0_4001_356">
<rect width="197" height="22" fill="white" transform="translate(24 112)"/>
</clipPath>
</defs>
</svg>
