<svg width="246" height="246" viewBox="0 0 246 246" fill="none" xmlns="http://www.w3.org/2000/svg">
<path fill-rule="evenodd" clip-rule="evenodd" d="M35 123C35 144.504 52.3862 162 73.7583 162V156.222C55.5523 156.222 40.7415 141.319 40.7415 123C40.7415 104.681 55.5523 89.7789 73.7583 89.7789V84C52.3862 84 35 101.495 35 123Z" fill="white"/>
<path fill-rule="evenodd" clip-rule="evenodd" d="M103.235 128.218C103.149 127.967 103.041 127.684 102.891 127.38L102.231 128.272C102.254 128.301 102.254 128.301 102.254 128.301C102.524 128.481 102.706 128.627 102.858 128.732C103.365 129.089 103.365 129.089 103.365 129.089C103.365 129.089 103.365 128.732 103.235 128.218ZM93.5879 129.885C93.5879 129.885 93.5339 129.761 93.4468 129.581C93.3693 129.351 93.2416 129.037 93.1134 128.732L92.5512 129.476C92.844 129.634 93.0802 129.726 93.2635 129.812C93.4794 129.864 93.5879 129.885 93.5879 129.885ZM70.4272 104.622L66.0763 110.544C66.5509 110.283 67.0484 110.053 67.5571 109.853L70.868 105.345C70.7393 105.189 70.5886 104.937 70.4272 104.622ZM69.8763 109.109L74.4948 102.787C74.3452 102.841 74.1822 102.913 74.0203 103.018C73.5992 103.217 73.2326 103.428 72.9307 103.626L68.6558 109.446C69.056 109.309 69.4546 109.214 69.8763 109.109ZM61.0367 103.092L58.5118 106.519C58.2959 107.16 58.0902 107.903 57.908 108.648L61.4359 103.836C61.3285 103.573 61.1997 103.322 61.0367 103.092ZM94.2142 116.585C94.1377 116.531 94.0319 116.478 93.9224 116.426C93.7925 116.353 93.6632 116.299 93.5339 116.247L88.1565 123.512C88.1565 124.025 88.1042 124.507 88.0518 124.97L92.2391 119.266C91.9468 119.119 91.7411 119.016 91.7411 119.016C91.7411 119.016 91.9789 118.785 92.8205 118.479L94.2142 116.585ZM60.1202 129.498C59.9899 129.246 59.8589 128.994 59.7542 128.732L55.825 134.058H56.774L60.1202 129.498ZM85.6215 115.022C85.7845 115.252 85.9357 115.483 86.0746 115.712L90.5543 109.623C90.2422 109.592 89.951 109.571 89.6581 109.539L85.6215 115.022ZM58.7175 125.325L52.2955 134.058C52.6086 134.089 52.9212 134.089 53.2338 134.089L58.9318 126.331C58.857 125.995 58.802 125.66 58.7175 125.325ZM71.1074 96.5611L63.917 106.32V106.394C63.8095 107.085 63.6268 107.725 63.4104 108.313L71.4527 97.4106C71.2902 97.0229 71.1384 96.7391 71.1074 96.5611ZM61.6731 104.58L57.5072 110.262C57.3784 110.871 57.271 111.467 57.194 111.971L61.889 105.629C61.857 105.294 61.7827 104.937 61.6731 104.58ZM88.0518 121.289C88.1042 121.678 88.1277 122.056 88.1565 122.432L92.929 115.964C92.6591 115.87 92.4213 115.765 92.1852 115.66L88.0518 121.289ZM59.1472 127.117L54.0525 134.089C54.3672 134.089 54.6905 134.058 55.0026 134.058L59.4619 128.02C59.354 127.735 59.2444 127.433 59.1472 127.117ZM64.5988 111.488L70.2102 103.836C70.1568 103.428 70.2102 102.935 70.4806 102.4C70.6329 102.096 70.7719 101.834 70.9012 101.603L55.165 122.998C55.2409 123.156 55.2724 123.333 55.2954 123.46C55.3184 123.691 55.3489 123.867 55.3702 124.025L59.2236 118.785C60.1737 115.838 62.0728 113.281 64.5988 111.488ZM86.8099 117.096L92.2391 109.729H91.872C91.6877 109.696 91.5049 109.696 91.3206 109.675L86.4428 116.332C86.5711 116.585 86.702 116.835 86.8099 117.096ZM61.7827 106.854C61.7816 106.859 61.7811 106.863 61.78 106.867L61.8041 106.834C61.8041 106.834 61.8041 106.854 61.7827 106.854ZM52.9752 118.816C53.105 119.088 53.2338 119.35 53.3749 119.581L61.6197 108.366C61.6197 107.856 61.6518 107.327 61.78 106.867L57.1069 113.208C57.1069 113.407 57.1069 113.585 57.1406 113.762C57.2165 114.224 57.2165 114.224 57.2165 114.224C57.2165 114.224 56.9231 114.152 56.5362 113.993L52.9752 118.816ZM54.8412 122.306L71.7647 99.3279V99.1511C71.7647 98.7935 71.7423 98.4585 71.6675 98.1746L54.4527 121.572C54.605 121.856 54.7456 122.107 54.8412 122.306ZM87.4469 118.627L93.878 109.873C93.6098 109.853 93.318 109.822 93.0049 109.801L87.1231 117.758C87.2294 118.04 87.3373 118.355 87.4469 118.627ZM85.9357 107.423L82.676 111.898C82.8583 112.055 83.0645 112.201 83.2478 112.391L86.8628 107.473C86.5187 107.423 86.2045 107.39 85.9357 107.423ZM52.0793 116.585L54.7985 112.872C54.605 112.663 54.4527 112.432 54.3453 112.18L51.7862 115.66C51.8637 115.964 51.9706 116.279 52.0793 116.585ZM78.3268 109.518L82.2453 104.193C81.8007 104.319 81.3492 104.497 80.9276 104.706L77.5594 109.288C77.8197 109.361 78.0559 109.446 78.3268 109.518ZM54.1075 111.415C53.9996 111.005 53.9237 110.723 53.8478 110.462L51.5836 113.532C51.5505 113.941 51.5506 114.383 51.6036 114.823L54.1075 111.415ZM59.0611 104.675L60.6482 102.524C60.4644 102.347 60.2816 102.169 60.0652 102.013L59.1151 103.291C59.1472 103.71 59.1472 104.172 59.0611 104.675ZM93.4254 120.042C93.2416 119.885 93.0252 119.759 92.7885 119.601L87.7611 126.456C87.5436 127.328 87.2294 128.146 86.8858 128.941L93.4254 120.042ZM93.846 114.687L97.3536 109.948C97.2232 109.948 97.1158 109.948 97.0084 109.98C96.7695 110 96.5654 110.031 96.3292 110.031L92.844 114.768C93.2095 114.768 93.5879 114.737 93.846 114.687ZM82.1491 111.488L84.5966 108.166C84.4357 107.903 84.3267 107.547 84.6206 107.055C85.0722 106.29 85.6215 106.059 86.3899 105.754L89.2376 101.866C89.2584 101.687 89.2584 101.688 89.2584 101.688C89.2584 101.688 88.5263 102.735 87.5741 103.06C87.5003 103.092 87.4143 103.113 87.3373 103.144L81.51 111.079C81.7259 111.204 81.9306 111.363 82.1491 111.488ZM79.6975 110.083L84.3598 103.71C83.9927 103.784 83.6144 103.836 83.2478 103.91L78.952 109.768C79.1903 109.853 79.4591 109.948 79.6975 110.083ZM95.9819 113.355C96.2971 112.642 96.7172 112.107 97.6667 111.929L98.9294 110.157C98.6692 110.083 98.379 110.031 98.1193 110.001L94.8169 114.455C95.3251 114.277 95.7243 113.941 95.9819 113.355ZM80.9591 110.723L86.3562 103.376C86.0217 103.428 85.6541 103.5 85.2784 103.553L80.2698 110.367C80.5054 110.494 80.7218 110.597 80.9591 110.723ZM101.248 111.792L101.67 111.236C101.541 111.185 101.411 111.1 101.227 111.059C101.153 111.005 101.044 110.953 100.969 110.922L100.278 111.823C100.625 111.823 100.969 111.823 101.248 111.792ZM71.8732 108.774L76.7942 102.064C76.3934 102.148 76.006 102.242 75.6058 102.379L70.7948 108.899C71.1609 108.847 71.5061 108.805 71.8732 108.774ZM43.6934 129.037C43.5425 128.941 43.4555 128.889 43.4555 128.889C43.4555 128.889 43.5093 128.994 43.5953 129.174C43.6713 129.351 43.8341 129.603 43.9848 129.917L44.3839 129.371C44.0714 129.224 43.8556 129.119 43.6934 129.037ZM99.4585 111.823L100.333 110.672C100.095 110.566 99.8357 110.462 99.5974 110.367L98.5084 111.844C98.7996 111.844 99.1443 111.844 99.4585 111.823ZM54.7124 128.376L50.5778 134.006C50.8916 134.036 51.183 134.036 51.4961 134.058L55.6086 128.481C55.4028 128.429 55.0795 128.376 54.7124 128.376ZM75.3172 108.826L78.7693 104.172C78.8222 104.014 78.8986 103.889 79.006 103.73C80.1185 102.191 80.6689 101.688 80.7977 100.817C80.7977 100.817 80.5925 100.891 80.0646 101.089L74.4526 108.721C74.7337 108.752 75.0249 108.774 75.3172 108.826ZM95.3791 117.402C95.2172 117.253 95.0109 117.096 94.7726 116.918L93.846 118.166C94.3205 118.072 94.6892 117.987 94.9788 117.935L95.3791 117.402ZM92.0318 114.768L95.5292 110.031C95.2492 110 94.9569 109.98 94.6336 109.948L91.0838 114.768C91.3205 114.768 91.6556 114.791 92.0318 114.768ZM88.8715 108.26C89.3354 108.114 89.7351 108.061 89.9707 108.029C90.2422 107.977 90.3704 107.977 90.3704 107.977C90.3704 107.977 90.263 107.955 90.0471 107.903C89.8644 107.852 89.5732 107.777 89.2376 107.725L88.8715 108.26ZM73.6532 108.7L78.952 101.478C78.9322 101.509 78.8767 101.53 78.8222 101.55C78.4561 101.656 78.112 101.761 77.7433 101.834L72.7148 108.7H73.6532ZM46.4133 130.138L45.2802 131.657C45.4416 131.855 45.6241 132.033 45.8301 132.212L47.2547 130.295C46.9631 130.242 46.7037 130.189 46.4133 130.138ZM87.682 119.402C87.7611 119.728 87.8343 120.063 87.9214 120.399L91.6123 115.379C91.2345 115.198 90.9967 115.072 90.9214 115.001L87.682 119.402ZM79.4805 105.546C79.2443 105.754 79.0391 105.985 78.952 106.184C78.952 106.184 78.6934 105.953 78.564 105.524L76.06 108.931C76.3202 108.984 76.6099 109.036 76.8706 109.109L79.4805 105.546ZM52.5322 128.962L48.9173 133.879C49.1004 133.911 49.2841 133.93 49.4669 133.952C49.5976 133.952 49.7047 133.952 49.8136 133.983L53.8713 128.429C53.2659 128.532 52.8988 128.732 52.5322 128.962ZM44.9876 129.656L44.3839 130.504C44.5132 130.704 44.6766 130.933 44.8599 131.164L45.7228 129.938C45.4851 129.864 45.2471 129.781 44.9876 129.656ZM87.6302 107.547L83.7218 112.821C83.9366 112.998 84.09 113.177 84.2834 113.355L87.3058 109.266C87.208 109.161 87.0686 108.899 87.8145 108.596L88.5263 107.621C88.397 107.6 88.2554 107.6 88.1042 107.6C87.9423 107.567 87.7809 107.567 87.6302 107.547ZM48.0212 130.347L46.3044 132.652C46.5204 132.8 46.7258 132.935 46.9416 133.082L48.9925 130.295C48.6794 130.325 48.3662 130.347 48.0212 130.347ZM49.9197 130.138L47.5144 133.396C47.7511 133.522 47.9891 133.627 48.2571 133.7L51.161 129.726C50.8381 129.864 50.4169 130.012 49.9197 130.138ZM88.0187 109.393L84.7264 113.869C84.9102 114.077 85.0722 114.277 85.2223 114.487L88.8924 109.497C88.5466 109.446 88.2554 109.413 88.0187 109.393ZM54.2165 123.208C53.9996 123.125 53.7083 123.051 53.3952 123.03L51.1832 126.016C51.4744 126.1 51.7345 126.143 52.0042 126.195L54.2165 123.208ZM55.2409 124.204C55.133 123.993 54.9833 123.743 54.7664 123.533L52.6845 126.374C52.9538 126.425 53.2124 126.509 53.4721 126.604L55.2409 124.204ZM102.254 111.541L102.068 111.792C102.362 111.772 102.544 111.772 102.544 111.772C102.544 111.772 102.576 111.719 102.254 111.541ZM54.0872 126.866C54.27 126.94 54.4527 127.044 54.605 127.17C54.6584 127.201 54.6905 127.225 54.7456 127.275L58.5877 122.023C58.6406 121.499 58.6951 120.964 58.802 120.451L54.0872 126.866ZM61.6518 109.412L53.7083 120.22C53.8478 120.472 53.9771 120.734 54.1075 120.964L61.8041 110.513C61.7495 110.21 61.694 109.822 61.6518 109.412ZM92.2391 134.698L89.951 137.801C90.099 138.03 90.263 138.261 90.3934 138.491L92.3679 135.828C92.3139 135.442 92.291 135.084 92.2391 134.698ZM49.2304 125.2L50.762 123.125C50.687 123.125 50.5778 123.156 50.4929 123.176C50.0718 123.333 49.7907 123.439 49.5214 123.512L48.6794 124.665C48.8405 124.843 49.0244 125.021 49.2304 125.2ZM49.7588 125.554C49.9746 125.692 50.213 125.788 50.4488 125.839C50.471 125.839 50.471 125.839 50.4929 125.871L52.6294 122.946C52.3179 122.946 52.0042 122.946 51.6804 122.977L49.7588 125.554ZM52.6845 118.144L55.9308 113.721C55.7149 113.585 55.4798 113.46 55.2724 113.302L52.3377 117.297C52.4467 117.579 52.5536 117.861 52.6845 118.144ZM92.5068 127.17L91.2896 128.805C91.4728 128.837 91.7411 128.941 92.0318 129.119L92.8205 128.02C92.7682 127.894 92.7131 127.789 92.6907 127.705C92.6388 127.558 92.5512 127.349 92.5068 127.17ZM90.9753 129.246L86.8628 134.822C87.0686 134.854 87.3058 134.907 87.6302 135.105L91.3419 130.044C91.2345 129.726 91.1057 129.498 90.9753 129.246ZM91.6123 130.788L88.1277 135.494C88.3088 135.671 88.4932 135.849 88.6759 136.059L91.817 131.783C91.7411 131.395 91.6556 131.059 91.6123 130.788ZM85.7305 139.591C85.7513 139.738 85.7845 139.843 85.8058 139.969L86.4642 139.047C86.593 138.545 86.6811 137.978 86.6811 137.484L85.5135 139.047C85.6006 139.237 85.676 139.415 85.7305 139.591ZM86.5187 135.315L84.6516 137.852C84.8039 138.03 84.9851 138.23 85.147 138.46L86.6272 136.468C86.593 135.975 86.5518 135.568 86.5187 135.315ZM92.0008 132.956C92.0008 132.853 91.9789 132.778 91.9789 132.675L89.0976 136.593C89.2584 136.793 89.4203 137.003 89.5732 137.234L92.1306 133.753C92.0756 133.492 92.0532 133.218 92.0008 132.956ZM92.4759 136.771L90.7595 139.078C90.8995 139.277 90.9967 139.488 91.1057 139.665C91.1597 139.717 91.1795 139.739 91.2115 139.791L92.6041 137.852C92.5512 137.484 92.5298 137.13 92.4759 136.771ZM81.0906 151.165C81.455 151.312 81.5432 151.364 81.5432 151.364C81.5432 151.364 81.5635 150.986 81.587 150.442C81.6169 150.064 81.6388 149.602 81.6388 149.11L80.3243 150.882C80.6689 151.008 80.9062 151.082 81.0906 151.165ZM79.6975 150.672L81.6169 148.04C81.587 147.581 81.672 147.015 81.8232 146.448L79.006 150.315C79.2224 150.442 79.4281 150.568 79.6975 150.672ZM53.9237 108.648C54.0525 108.26 54.0525 108.26 54.0525 108.26C54.0525 108.26 52.5536 109.853 51.8637 112.055L53.7083 109.571C53.7083 109.34 53.7954 109.057 53.9237 108.648ZM48.2571 124.13L48.6241 123.617C48.5172 123.584 48.4429 123.565 48.3124 123.512C48.1294 123.439 47.9891 123.386 47.8918 123.333C47.7077 123.249 47.7077 123.249 47.7077 123.249C47.7077 123.249 47.729 123.333 47.8058 123.439C47.8918 123.617 48.0427 123.867 48.2571 124.13ZM93.3693 140.305L92.7131 141.227C92.8205 141.25 92.9504 141.25 93.1134 141.25H93.6403C94.1378 141.227 94.3205 141.174 94.3205 141.174C94.3205 141.174 94.1377 141.101 93.8994 140.893C93.7386 140.766 93.5542 140.568 93.3693 140.305ZM92.7682 138.774L91.5787 140.358C91.7635 140.64 91.9238 140.818 92.1093 140.974L93.0252 139.686C92.929 139.415 92.8205 139.1 92.7682 138.774ZM57.0653 145.609L57.271 145.328C56.688 145.378 56.4502 145.378 56.4502 145.378C56.4502 145.378 56.688 145.474 57.0653 145.609ZM59.4619 101.729C59.191 101.687 58.9318 101.635 58.6406 101.688C58.6406 101.688 58.802 101.959 58.9543 102.421L59.4619 101.729ZM77.7117 148.577L84.0686 139.917C84.1749 139.309 84.2311 138.774 84.2311 138.408L77.4526 147.632C77.506 147.957 77.5813 148.272 77.7117 148.577ZM98.4111 123.921L95.8536 127.399C96.1454 127.433 96.4254 127.475 96.7172 127.506L99.0903 124.309C98.8536 124.172 98.6494 124.047 98.4111 123.921ZM97.1388 123.249L94.3536 127.065C94.6128 127.149 94.9035 127.225 95.1418 127.275L97.8292 123.617C97.5919 123.512 97.3755 123.386 97.1388 123.249ZM100.86 125.378L99.1443 127.684C99.1982 127.684 99.2747 127.705 99.3281 127.705H100.095L101.486 125.818C101.282 125.66 101.066 125.503 100.86 125.378ZM78.5111 149.886L82.6231 144.278C82.7514 144.047 82.8583 143.786 82.9897 143.586C83.2799 143.041 83.5396 142.276 83.7571 141.457L78.0366 149.237C78.1649 149.467 78.3268 149.677 78.5111 149.886ZM99.6428 124.612L97.484 127.578C97.7747 127.611 98.0873 127.63 98.3791 127.664L100.3 125.021C100.095 124.864 99.8785 124.739 99.6428 124.612ZM96.5654 122.946C96.3292 122.82 96.1133 122.695 95.9071 122.537L92.9504 126.562C93.1657 126.656 93.4254 126.763 93.6835 126.835L96.5654 122.946ZM102.068 126.3C102.048 126.279 101.995 126.248 101.963 126.229L100.883 127.735C101.153 127.756 101.39 127.81 101.67 127.935L102.524 126.814C102.383 126.634 102.231 126.456 102.068 126.3ZM65.052 103.679L66.5728 101.635C65.9155 102.148 65.4399 102.559 65.052 103.679ZM84.0686 137.338C84.0686 137.338 84.122 137.359 84.1749 137.411L92.291 126.352C92.291 126.331 92.291 126.3 92.291 126.3C92.291 126.3 92.291 126.331 92.3139 126.331L95.3999 122.149C95.1958 121.971 95.0109 121.804 94.8169 121.626L77.475 145.2C77.3986 145.662 77.3446 146.144 77.3767 146.658L84.09 137.484C84.0686 137.338 84.0686 137.338 84.0686 137.338ZM64.9424 134.907C64.7276 134.749 64.5229 134.591 64.307 134.445L60.7775 139.256C61.1457 139.204 61.5118 139.133 61.889 139.025L64.9424 134.907ZM73.362 137.464C73.1242 137.464 72.8987 137.464 72.6609 137.443L68.3122 143.355C69.5316 142.276 70.4475 141.301 71.2683 140.608L73.5778 137.464H73.362ZM71.0321 137.285L65.1284 145.295C65.6013 145.117 66.0988 144.885 66.5728 144.634L71.9063 137.39C71.613 137.359 71.2902 137.338 71.0321 137.285ZM69.4985 136.95L62.8621 145.987C63.2287 145.891 63.6268 145.809 64.0473 145.682L70.3176 137.161C70.0269 137.108 69.7683 137.023 69.4985 136.95ZM77.5279 136.876C77.1394 136.982 76.76 137.076 76.3737 137.161L74.5814 139.591C74.8742 139.613 75.0554 139.665 75.0554 139.665C75.0554 139.665 74.3105 140.43 73.8915 141.814L77.5279 136.876ZM75.4449 137.307C75.1099 137.359 74.7657 137.39 74.4195 137.411L72.6929 139.77C72.7688 139.738 72.8206 139.739 72.8757 139.717C73.2123 139.665 73.5036 139.613 73.7617 139.613L75.4449 137.307ZM78.5865 136.541L73.394 143.607C73.3192 143.963 73.2642 144.298 73.2642 144.707V145.063L79.978 135.955C79.5355 136.154 79.061 136.365 78.5865 136.541ZM68.084 136.521L66.9939 137.978C67.3401 138.03 67.524 138.124 67.524 138.124C67.524 138.124 67.0804 138.385 66.3895 138.796L60.8529 146.323C61.1457 146.301 61.5117 146.25 61.912 146.164L68.8401 136.771C68.5815 136.7 68.3122 136.593 68.084 136.521ZM62.7531 133.115C62.5693 132.904 62.386 132.726 62.2022 132.526L60.7775 134.498C61.0688 134.571 61.3285 134.643 61.5438 134.749L62.7531 133.115ZM66.1533 135.65C65.9155 135.514 65.7108 135.388 65.473 135.263L62.8824 138.774C63.335 138.636 63.7566 138.513 64.1238 138.385L66.1533 135.65ZM59.8071 139.382H59.8809L63.8095 134.058C63.5947 133.879 63.4104 133.722 63.2287 133.542L62.1471 135.031L61.694 135.62L58.912 139.415C59.191 139.435 59.4833 139.415 59.8071 139.382ZM60.2496 136.49C59.386 137.181 58.8244 137.695 58.1666 137.999L57.3234 139.153C57.5836 139.237 57.8529 139.277 58.1666 139.33L60.2496 136.49ZM57.1406 138.334C56.5592 138.408 56.2455 138.46 56.0628 138.491C55.8458 138.545 55.8458 138.545 55.8458 138.545C55.8458 138.545 55.9003 138.565 55.9757 138.617C56.1151 138.691 56.3529 138.816 56.688 138.952L57.1406 138.334ZM58.7175 145.168C58.5118 145.2 58.2959 145.221 58.1447 145.243L57.7236 145.808C57.9603 145.912 58.2195 145.987 58.4894 146.072L59.191 145.096C59.0408 145.117 58.8784 145.149 58.7175 145.168ZM62.1268 142.968C61.3605 143.659 60.9074 144.174 60.4104 144.561L59.1696 146.218C59.4619 146.301 59.7542 146.342 60.0123 146.375L64.8147 139.843C63.7775 140.693 63.4435 141.846 62.1268 142.968ZM66.2404 137.904L67.4491 136.259C67.2108 136.154 66.9725 136.059 66.7352 135.924L65.1492 138.083C65.418 137.998 65.6574 137.946 65.8396 137.927C65.9695 137.927 66.0988 137.904 66.2404 137.904ZM58.4894 134.109L60.9074 130.828C60.7572 130.598 60.5942 130.367 60.4644 130.138L57.5617 134.058C57.8754 134.089 58.1987 134.089 58.4894 134.109ZM78.478 140.378L83.4637 133.577C82.8054 134.184 82.093 134.729 81.3267 135.191L76.76 141.385C77.7978 140.588 78.1852 140.232 78.478 140.378ZM60.0871 134.32L61.7827 132.033C61.5967 131.834 61.4359 131.605 61.2745 131.395L59.2444 134.161C59.4833 134.184 59.7205 134.235 59.9359 134.288C59.9899 134.288 60.0433 134.288 60.0871 134.32ZM55.2409 127.664C55.5118 127.894 55.6615 128.093 55.7699 128.218L58.6197 124.383C58.5877 123.973 58.5652 123.584 58.5652 123.176L55.2409 127.664ZM78.2397 143.093L94.3975 121.111C94.2142 120.881 94.0619 120.65 93.8994 120.504L78.8024 141.019C78.8222 141.479 78.6079 142.149 78.2397 143.093ZM70.2712 119.617C67.5571 120.385 63.1234 121.635 60.1496 122.475C60.1374 122.716 60.1133 122.955 60.1133 123.198C60.1133 124.066 60.2041 124.914 60.3693 125.735C63.8357 123.594 68.0172 121.009 70.2712 119.617ZM64.8232 113.248C64.2942 113.689 63.8005 114.169 63.3473 114.685C65.2716 115.234 68.1155 116.045 70.3011 116.669C68.6077 115.611 66.4632 114.273 64.8232 113.248ZM60.2538 121.391C63.2105 120.558 67.3711 119.383 69.9719 118.649H60.9635C60.63 119.524 60.3912 120.44 60.2538 121.391ZM62.6623 115.543C62.176 116.198 61.7528 116.899 61.3958 117.639L70.0072 117.639C67.6688 116.972 64.5748 116.089 62.6623 115.543ZM84.4881 130.983C81.8584 128.062 77.6775 123.412 75.5732 121.077C76.9722 124.058 79.8765 130.239 81.5544 133.816C82.676 133.023 83.6646 132.067 84.4881 130.983ZM75.7121 136.158C75.1179 132.074 74.0914 124.987 73.6099 121.662C73.1332 124.776 72.0923 131.544 71.3848 136.138C72.1153 136.256 72.8607 136.332 73.6259 136.332C74.3366 136.332 75.0287 136.263 75.7121 136.158ZM72.57 121.606C71.1502 124.614 68.2812 130.712 66.5557 134.376C67.7206 135.074 68.9999 135.602 70.3673 135.932C71.0647 131.385 72.0853 124.746 72.57 121.606ZM65.6798 133.805C67.4272 130.097 70.2679 124.059 71.6514 121.12C69.5188 123.504 65.3459 128.171 62.7921 131.025C63.6065 132.088 64.579 133.025 65.6798 133.805ZM77.2677 118.649C79.8171 119.373 83.95 120.544 86.9943 121.409C86.8591 120.451 86.6202 119.529 86.2857 118.649H77.2677ZM76.9011 119.598C79.4896 121.221 84.09 124.111 86.8591 125.848C87.0413 124.993 87.1348 124.106 87.1348 123.198C87.1348 122.959 87.1118 122.725 87.098 122.488C83.9922 121.609 79.5484 120.348 76.9011 119.598ZM71.9213 110.181C71.4612 110.238 71.0107 110.315 70.5661 110.416C71.2373 111.846 71.9769 113.42 72.5967 114.736C72.3899 113.348 72.1468 111.698 71.9213 110.181ZM85.0946 130.118C85.7321 129.119 86.2408 128.033 86.5871 126.88C83.9051 125.197 79.1743 122.227 76.4576 120.523C78.5496 122.849 82.5024 127.238 85.0946 130.118ZM76.387 115.819C77.9768 114.826 79.9646 113.582 81.5603 112.586C81.0906 112.253 80.6032 111.938 80.0886 111.663C78.9103 112.989 77.5188 114.548 76.387 115.819ZM74.6396 121.524C75.1179 124.83 76.1401 131.874 76.7333 135.969C78.1488 135.645 79.4736 135.104 80.6775 134.386C79.0161 130.845 76.0669 124.562 74.6396 121.524ZM75.6015 115.158C76.6745 113.951 77.9827 112.486 79.1214 111.208C78.6597 111.008 78.19 110.827 77.7048 110.678C77.0144 112.148 76.2406 113.793 75.6015 115.158ZM74.6546 114.736C75.2734 113.42 76.014 111.846 76.6852 110.416C76.239 110.315 75.7885 110.238 75.3279 110.181C75.1051 111.698 74.8598 113.348 74.6546 114.736ZM77.242 117.639H85.8518C85.4964 116.899 85.0722 116.198 84.5864 115.544C82.676 116.089 79.5815 116.972 77.242 117.639ZM68.1305 111.208C69.2681 112.485 70.5757 113.953 71.6504 115.158C71.0091 113.793 70.237 112.148 69.5455 110.678C69.0608 110.827 68.5879 111.008 68.1305 111.208ZM67.1617 111.663C66.6471 111.938 66.1597 112.252 65.6879 112.586C67.2835 113.582 69.274 114.826 70.8622 115.819C69.7325 114.548 68.3389 112.989 67.1617 111.663ZM74.2912 110.1C74.0695 110.088 73.8498 110.066 73.6259 110.066C73.4004 110.066 73.1813 110.088 72.9601 110.098C73.1813 111.597 73.4234 113.224 73.6259 114.592C73.829 113.224 74.0684 111.597 74.2912 110.1ZM62.184 130.162C64.757 127.285 68.8102 122.756 70.8851 120.435C68.5879 121.856 64.1825 124.577 60.6327 126.771C60.9838 127.983 61.5118 129.119 62.184 130.162ZM76.9486 116.669C79.1342 116.045 81.976 115.234 83.9019 114.687C83.4487 114.169 82.9534 113.689 82.427 113.248C80.7838 114.273 78.641 115.611 76.9486 116.669Z" fill="white"/>
<path fill-rule="evenodd" clip-rule="evenodd" d="M116.28 126.159L114.786 121.232L113.32 126.159H116.28ZM120.301 131.414H117.932L116.984 128.406H112.652L111.758 131.414H109.434L113.649 118.133H115.963L120.301 131.414Z" fill="white"/>
<path fill-rule="evenodd" clip-rule="evenodd" d="M123.255 124.764C123.255 126.292 123.544 127.438 124.121 128.201C124.697 128.965 125.412 129.348 126.266 129.348C127.126 129.348 127.839 128.969 128.404 128.211C128.969 127.453 129.251 126.289 129.251 124.719C129.251 123.179 128.976 122.04 128.426 121.304C127.876 120.567 127.157 120.199 126.266 120.199C125.377 120.199 124.652 120.57 124.094 121.313C123.535 122.056 123.255 123.206 123.255 124.764ZM121.004 124.855C121.004 123.273 121.237 121.969 121.702 120.946C122.167 119.922 122.775 119.16 123.525 118.659C124.275 118.157 125.184 117.907 126.253 117.907C127.801 117.907 129.063 118.501 130.038 119.691C131.015 120.881 131.502 122.575 131.502 124.773C131.502 126.995 130.986 128.732 129.954 129.982C129.047 131.087 127.816 131.64 126.262 131.64C124.695 131.64 123.459 131.094 122.553 130C121.521 128.75 121.004 127.035 121.004 124.855Z" fill="white"/>
<path fill-rule="evenodd" clip-rule="evenodd" d="M143.89 122.509L141.972 126.589L143.89 130.78H142.261L139.928 126.589L142.261 122.509H143.89ZM140.992 122.509L139.082 126.589L140.992 130.78H139.361L137.029 126.589L139.361 122.509H140.992Z" fill="white"/>
<path fill-rule="evenodd" clip-rule="evenodd" d="M152.757 126.531L154.873 127.355C154.544 128.841 153.994 129.926 153.226 130.611C152.458 131.296 151.512 131.64 150.39 131.64C148.979 131.64 147.836 131.094 146.959 130C145.951 128.739 145.447 127.035 145.447 124.891C145.447 122.626 145.955 120.854 146.97 119.573C147.853 118.462 149.04 117.907 150.53 117.907C151.743 117.907 152.759 118.323 153.576 119.157C154.158 119.749 154.585 120.628 154.856 121.793L152.694 122.427C152.556 121.708 152.281 121.157 151.869 120.773C151.457 120.39 150.972 120.199 150.412 120.199C149.613 120.199 148.96 120.549 148.455 121.249C147.951 121.95 147.698 123.106 147.698 124.719C147.698 126.392 147.944 127.581 148.436 128.288C148.928 128.995 149.567 129.348 150.353 129.348C150.929 129.348 151.428 129.122 151.848 128.672C152.268 128.223 152.571 127.509 152.757 126.531Z" fill="white"/>
<path fill-rule="evenodd" clip-rule="evenodd" d="M158.548 124.764C158.548 126.292 158.836 127.438 159.413 128.201C159.99 128.965 160.706 129.348 161.559 129.348C162.419 129.348 163.132 128.969 163.696 128.211C164.261 127.453 164.544 126.289 164.544 124.719C164.544 123.179 164.269 122.04 163.719 121.304C163.169 120.567 162.449 120.199 161.559 120.199C160.67 120.199 159.945 120.57 159.387 121.313C158.828 122.056 158.547 123.206 158.548 124.764ZM156.296 124.855C156.296 123.273 156.53 121.969 156.994 120.946C157.46 119.922 158.068 119.16 158.818 118.659C159.568 118.157 160.477 117.907 161.546 117.907C163.095 117.907 164.356 118.501 165.332 119.691C166.307 120.881 166.795 122.575 166.795 124.773C166.795 126.995 166.278 128.732 165.246 129.982C164.34 131.087 163.11 131.64 161.555 131.64C159.988 131.64 158.752 131.094 157.846 130C156.813 128.75 156.296 127.035 156.296 124.855Z" fill="white"/>
<path fill-rule="evenodd" clip-rule="evenodd" d="M172.717 131.414V118.133H180.749V120.38H174.897V123.324H180.334V125.562H174.897V129.167H180.946V131.414H172.717Z" fill="white"/>
<path fill-rule="evenodd" clip-rule="evenodd" d="M186.097 125.906V123.659H189.482C189.375 122.55 189.087 121.697 188.621 121.098C188.155 120.498 187.566 120.199 186.854 120.199C185.694 120.199 184.922 120.932 184.54 122.4L182.389 121.802C182.633 120.546 183.14 119.583 183.91 118.913C184.68 118.242 185.637 117.907 186.782 117.907C188.304 117.907 189.517 118.53 190.425 119.777C191.334 121.024 191.787 122.713 191.787 124.846C191.787 126.905 191.342 128.551 190.453 129.787C189.563 131.022 188.378 131.64 186.899 131.64C184.436 131.64 182.921 130.218 182.352 127.373L184.54 126.531C184.648 127.44 184.918 128.136 185.352 128.621C185.785 129.105 186.325 129.348 186.97 129.348C188.4 129.348 189.237 128.2 189.482 125.906H186.097Z" fill="white"/>
<path fill-rule="evenodd" clip-rule="evenodd" d="M200.476 126.531L202.592 127.355C202.262 128.841 201.712 129.926 200.945 130.611C200.175 131.296 199.231 131.64 198.108 131.64C196.698 131.64 195.555 131.094 194.678 130C193.67 128.739 193.165 127.035 193.165 124.891C193.165 122.626 193.673 120.854 194.689 119.573C195.572 118.462 196.758 117.907 198.248 117.907C199.462 117.907 200.477 118.323 201.294 119.157C201.876 119.749 202.303 120.628 202.574 121.793L200.413 122.427C200.275 121.708 199.998 121.157 199.588 120.773C199.176 120.39 198.69 120.199 198.131 120.199C197.331 120.199 196.679 120.549 196.174 121.249C195.668 121.95 195.417 123.106 195.417 124.719C195.417 126.392 195.662 127.581 196.154 128.288C196.646 128.995 197.286 129.348 198.072 129.348C198.648 129.348 199.147 129.122 199.567 128.672C199.987 128.223 200.29 127.509 200.476 126.531Z" fill="white"/>
<path fill-rule="evenodd" clip-rule="evenodd" d="M207.04 130.78L208.949 126.68L207.04 122.509H208.669L211 126.68L208.669 130.78H207.04ZM204.141 130.78L206.058 126.68L204.141 122.509H205.77L208.101 126.68L205.77 130.78H204.141Z" fill="white"/>
</svg>
