<svg width="246" height="246" viewBox="0 0 246 246" fill="none" xmlns="http://www.w3.org/2000/svg">
<g clip-path="url(#clip0_4052_113)">
<path fill-rule="evenodd" clip-rule="evenodd" d="M119.903 126.114C119.595 126.229 119.166 126.269 118.624 126.269H110.95V123.309H118.624C119.247 123.309 119.749 123.35 120.137 123.545C120.599 123.78 120.834 124.204 120.834 124.749C120.834 125.294 120.559 125.879 119.903 126.114ZM122.695 119.691C121.691 119.3 120.372 119.186 118.939 119.186H110.957V116.697H124.677V112.413H105.338V130.944H118.436C120.258 130.944 121.61 130.789 122.622 130.399C124.751 129.579 126.184 127.594 126.184 124.991C126.184 122.388 124.825 120.518 122.695 119.697V119.691Z" fill="white"/>
<path fill-rule="evenodd" clip-rule="evenodd" d="M134.963 124.164L137.635 116.691H138.063L140.735 124.164H134.963ZM141.941 112.413H133.724L126.171 130.944H132.525L133.57 128.26H142.095L143.179 130.944H149.494L141.941 112.413Z" fill="white"/>
<path fill-rule="evenodd" clip-rule="evenodd" d="M156.726 124.049V130.937H151.108V112.413H156.726V119.186H165.753V112.413H171.378V130.937H165.753V124.049H156.726Z" fill="white"/>
<path fill-rule="evenodd" clip-rule="evenodd" d="M180.27 123.935V130.937H174.652V112.413H180.27V119.381H181.817L188.601 112.413H195.652L186.659 121.285L196 130.937H188.52L181.817 123.935H180.27Z" fill="white"/>
<path fill-rule="evenodd" clip-rule="evenodd" d="M50 100.5H94.7984V123.128C94.7984 128.926 91.7181 134.287 86.716 137.193L72.3992 145.493L58.0825 137.193C53.0803 134.294 50 128.933 50 123.128V100.5Z" fill="white"/>
<path fill-rule="evenodd" clip-rule="evenodd" d="M62.2944 112.413V119.448C63.252 118.359 64.9931 117.626 66.9886 117.626H69.1515V125.805C69.1515 127.984 68.5622 129.888 67.6917 130.937H77.1067C76.2362 129.888 75.6469 127.984 75.6469 125.812V117.626H77.8098C79.7986 117.626 81.5464 118.359 82.5039 119.448V112.413H62.2944Z" fill="#17A5E4"/>
</g>
<defs>
<clipPath id="clip0_4052_113">
<rect width="146" height="45" fill="white" transform="translate(50 100.5)"/>
</clipPath>
</defs>
</svg>
