<svg width="246" height="246" viewBox="0 0 246 246" fill="none" xmlns="http://www.w3.org/2000/svg">
<g clip-path="url(#clip0_4001_322)">
<path d="M194.182 109.137C194.182 109.205 194.482 109.683 194.85 110.207C196.024 111.914 197.498 115.101 198.281 117.65C198.627 118.834 198.834 119.927 198.696 119.927C198.627 119.927 197.199 119.039 195.518 117.946C192.524 116.034 188.449 113.553 188.287 113.553C188.218 113.553 187.804 113.302 187.32 113.007C185.801 112.05 181.495 109.888 181.287 109.956C181.195 110.002 181.725 110.685 182.462 111.481C186.745 116.034 189.853 122.272 192.363 131.355C192.547 132.083 192.686 132.22 193.215 132.22C193.561 132.22 194.205 132.106 194.643 131.992C195.748 131.65 204.936 131.673 206.824 131.992C207.653 132.128 209.426 132.47 210.762 132.72C212.097 132.994 213.433 133.244 213.755 133.289C214.193 133.381 213.617 132.698 211.406 130.512C209.772 128.942 208.459 127.53 208.459 127.394C208.459 127.257 208.666 127.211 208.989 127.302C209.265 127.371 210.485 127.644 211.706 127.894C212.926 128.168 214.285 128.463 214.699 128.577C215.92 128.919 216.104 128.873 215.62 128.281C215.39 128.008 214.377 126.824 213.41 125.663C209.058 120.473 203.094 115.192 196.37 110.48C195.495 109.865 194.735 109.273 194.689 109.182C194.597 108.977 194.182 108.932 194.182 109.137ZM201.206 121.702C203.715 123.546 208.045 127.029 207.952 127.12C207.906 127.143 205.972 127.12 203.623 127.029L199.363 126.87L199.225 124.707C199.133 123.524 198.995 121.998 198.903 121.338C198.811 120.678 198.811 120.155 198.926 120.155C199.041 120.155 200.077 120.837 201.206 121.702Z" fill="white"/>
<path d="M36.2176 116.831C34.5597 117.286 33.5465 117.855 32.4412 118.925C31.405 119.973 30.4609 121.612 30.4609 122.408C30.4609 122.659 30.3688 122.932 30.2306 123C29.9313 123.182 29.9313 126.005 30.2306 126.187C30.3458 126.255 30.4609 126.529 30.4609 126.779C30.4609 128.236 32.5333 130.763 34.4906 131.651C37.415 132.971 40.1092 132.948 43.1487 131.582L44.208 131.104L44.3692 129.579C44.4613 128.737 44.4843 128.031 44.4152 127.963C44.3692 127.917 44.0007 128.327 43.5862 128.896C42.4579 130.444 40.5697 131.537 39.0269 131.537C35.1584 131.514 32.234 127.462 32.9938 123.16C33.4314 120.678 34.5367 119.153 36.6091 118.22C39.3032 116.99 41.9513 117.878 43.8626 120.61C44.254 121.179 44.254 121.156 44.254 119.563C44.277 117.696 44.3231 117.742 41.3756 116.968C39.4644 116.467 37.7604 116.421 36.2176 116.831Z" fill="white"/>
<path d="M117.088 116.808C113.865 118.015 112.99 121.794 115.5 123.66C115.914 123.956 117.134 124.73 118.24 125.367C120.496 126.665 121.187 127.462 121.187 128.691C121.187 130.125 119.783 131.537 118.309 131.537C117.019 131.537 115.2 130.194 114.417 128.623C114.026 127.849 113.473 127.598 113.657 128.281C113.726 128.509 113.842 129.192 113.934 129.829C114.026 130.444 114.21 131.104 114.325 131.263C114.786 131.787 117.319 132.675 118.424 132.675C120.105 132.675 122.292 131.263 122.914 129.784C123.352 128.759 123.352 126.915 122.937 126.119C122.431 125.185 121.487 124.411 119.345 123.228C116.72 121.748 116.121 121.202 116.121 120.154C116.121 119.198 116.582 118.447 117.503 117.992C118.931 117.263 120.612 117.878 121.694 119.54L122.339 120.496V119.062V117.628L121.256 117.15C119.944 116.558 118.125 116.421 117.088 116.808Z" fill="white"/>
<path d="M147.944 116.99C146.586 117.514 145.826 118.379 145.388 119.881C144.813 121.885 145.872 123.387 149.026 125.094C152.158 126.802 152.987 128.054 152.135 129.829C151.421 131.355 149.924 131.878 148.313 131.218C147.415 130.854 145.734 129.146 145.48 128.35C145.181 127.439 144.974 128.19 145.112 129.693C145.25 131.081 145.273 131.15 146.171 131.628C146.678 131.924 147.645 132.288 148.336 132.447C151.813 133.267 154.944 130.626 154.484 127.257C154.254 125.595 153.471 124.776 150.776 123.319C148.359 122.044 147.898 121.725 147.553 121.065C147 120.018 147.138 119.472 148.128 118.515C148.865 117.833 149.257 117.65 149.924 117.65C151.007 117.65 152.112 118.311 152.78 119.358C153.079 119.79 153.402 120.155 153.494 120.155C153.77 120.155 153.402 117.559 153.102 117.377C152.642 117.059 150.477 116.512 149.809 116.535C149.464 116.535 148.612 116.74 147.944 116.99Z" fill="white"/>
<path d="M159.641 116.831C158.421 117.218 156.97 118.743 156.809 119.836C156.464 121.93 157.339 123.456 159.526 124.617C162.566 126.187 163.211 126.711 163.717 127.849C164.132 128.828 163.809 129.921 162.842 130.74C161.921 131.491 161.184 131.651 160.056 131.332C158.997 131.013 157.201 129.351 156.97 128.486C156.717 127.485 156.418 127.826 156.418 129.078C156.418 131.082 157.062 131.787 159.48 132.402C160.977 132.789 161.507 132.743 162.957 132.197C164.477 131.651 165.237 130.808 165.767 129.169C166.55 126.711 165.444 124.958 162.036 123.228C159.872 122.112 158.72 121.111 158.72 120.314C158.72 119.335 159.135 118.584 159.918 118.106C161.415 117.195 163.188 117.764 164.362 119.495C164.684 120.018 165.03 120.382 165.099 120.314C165.145 120.246 165.122 119.608 165.053 118.925C164.869 117.514 164.684 117.332 162.98 116.808C161.898 116.467 160.77 116.467 159.641 116.831Z" fill="white"/>
<path d="M46.7642 116.854C46.6721 116.945 46.6952 117.263 46.8333 117.582C46.9485 117.878 47.0406 121.315 47.0406 125.185C47.0406 129.715 47.1327 132.22 47.2708 132.242C48.2149 132.311 49.0669 132.265 49.3202 132.129C49.5045 131.992 49.5966 131.081 49.5735 128.964C49.5505 127.302 49.5505 125.777 49.5505 125.55C49.5735 125.299 49.7577 125.163 50.1492 125.163C51.3006 125.163 51.8302 125.663 53.396 128.259C55.1 131.127 55.3993 131.537 56.2513 131.924C56.9652 132.242 59.2218 132.447 59.383 132.197C59.4291 132.106 59.1988 131.855 58.8534 131.673C58.0244 131.263 57.4027 130.558 56.6658 129.26C54.8006 125.914 54.271 125.163 53.8105 125.163C53.2348 125.163 53.6954 124.73 54.7776 124.207C57.0573 123.159 57.7711 120.655 56.4125 118.652C55.5375 117.332 54.3631 116.968 50.4255 116.831C48.4913 116.74 46.8564 116.763 46.7642 116.854ZM53.0045 118.424C53.9486 118.925 54.4092 119.768 54.4092 120.974C54.4092 122.863 53.0276 124.024 50.7249 124.024C49.942 124.024 49.5735 123.933 49.4814 123.66C49.4123 123.455 49.3433 122.294 49.3433 121.065C49.3433 119.836 49.4123 118.675 49.4814 118.47C49.6656 117.992 52.1065 117.969 53.0045 118.424Z" fill="white"/>
<path d="M61.2017 116.968C61.1096 117.104 61.1557 117.355 61.2938 117.514C61.455 117.696 61.5702 120.314 61.5932 125.026L61.6623 132.243H65.9222H70.1822L70.4586 131.491C70.5967 131.082 70.7349 130.49 70.7349 130.194L70.7579 129.648L70.2513 130.103C69.3072 130.945 68.7546 131.082 66.4058 131.082C64.3564 131.082 64.0801 131.036 64.0571 130.672C63.988 128.418 64.0801 124.685 64.1952 124.503C64.2643 124.343 65.2084 124.252 66.4058 124.252C68.4322 124.252 68.4552 124.252 68.4552 123.683C68.4552 123.137 68.4322 123.137 66.2446 123.069L64.011 123V120.61V118.22L66.2216 118.152C68.3631 118.083 68.4782 118.106 69.0539 118.675C69.3533 118.994 69.6756 119.244 69.7447 119.244C69.8138 119.244 69.8368 118.698 69.7908 118.038L69.7217 116.854L65.5308 116.786C62.7445 116.74 61.2938 116.809 61.2017 116.968Z" fill="white"/>
<path d="M72.7378 117.104C72.853 117.332 72.9681 120.838 73.0142 124.867C73.0602 130.421 73.1523 132.22 73.3596 132.22C76.0767 132.334 80.2676 132.129 81.1196 131.856C83.5605 131.036 85.1494 129.648 86.1165 127.462C86.9455 125.618 86.9224 122.932 86.0704 121.248C85.0572 119.267 83.8829 118.265 81.5111 117.4C80.59 117.059 79.4157 116.922 76.4222 116.808C72.6227 116.672 72.5306 116.672 72.7378 117.104ZM80.0834 118.584C81.6723 119.176 82.5473 119.904 83.3763 121.27C83.9289 122.204 83.998 122.545 83.998 124.48C83.998 126.574 83.952 126.711 83.1921 127.986C82.271 129.488 81.6032 130.034 79.8992 130.649C78.5637 131.127 76.0537 131.218 75.6392 130.808C75.432 130.604 75.3629 128.874 75.3629 124.48C75.3629 121.134 75.432 118.334 75.5241 118.265C75.8695 117.901 78.84 118.129 80.0834 118.584Z" fill="white"/>
<path d="M88.6273 117.127C88.7424 117.355 88.8575 120.838 88.9036 124.867L88.9727 132.174L90.0089 132.265C90.5846 132.311 91.0912 132.288 91.1602 132.242C91.2063 132.197 91.2523 128.668 91.2523 124.434V116.74H89.8477C88.5812 116.74 88.4661 116.786 88.6273 117.127Z" fill="white"/>
<path d="M93.9463 116.899C93.8542 116.968 93.7852 117.56 93.7852 118.174V119.312L94.3839 118.698C94.9365 118.151 95.1668 118.106 96.8017 118.106H98.6208V125.163V132.22H99.5419C100.048 132.22 100.532 132.22 100.647 132.22C100.739 132.22 100.854 129.078 100.924 125.231L101.039 118.22L102.835 118.151C104.47 118.083 104.654 118.129 105.183 118.675C105.506 118.994 105.828 119.244 105.897 119.244C105.966 119.244 105.989 118.698 105.943 118.038L105.874 116.854L99.9794 116.786C96.7556 116.763 94.0385 116.808 93.9463 116.899Z" fill="white"/>
<path d="M125.01 116.945C124.917 117.059 124.964 117.218 125.102 117.309C125.24 117.4 125.332 119.198 125.332 122.089C125.332 128.372 125.677 129.898 127.404 131.377C128.279 132.106 129.937 132.675 131.227 132.675C132.401 132.675 133.944 132.083 134.911 131.241C136.5 129.852 136.638 129.192 136.569 122.522L136.5 116.854L135.855 116.785C134.934 116.672 134.382 116.899 134.727 117.241C134.934 117.446 135.003 119.13 135.003 123.068C135.003 129.215 134.911 129.715 133.53 130.694C132.516 131.4 130.559 131.377 129.523 130.649C128.049 129.624 128.003 129.306 127.865 122.772L127.75 116.854L126.437 116.785C125.723 116.74 125.079 116.808 125.01 116.945Z" fill="white"/>
<path d="M139.539 116.877C139.47 116.968 139.493 117.218 139.632 117.469C139.77 117.719 139.862 120.564 139.839 124.935C139.839 130.148 139.908 131.992 140.115 132.129C140.345 132.265 141.197 132.311 142.141 132.243C142.28 132.22 142.372 129.511 142.372 124.617C142.372 117.901 142.326 116.991 142.003 116.877C141.52 116.695 139.724 116.695 139.539 116.877Z" fill="white"/>
<path d="M168.116 116.854C168.047 116.922 168.139 117.4 168.323 117.901C168.553 118.63 168.622 120.337 168.622 125.436C168.599 129.078 168.645 132.083 168.691 132.152C168.853 132.288 176.958 132.265 177.096 132.106C177.303 131.901 177.81 129.852 177.695 129.739C177.626 129.67 177.442 129.83 177.257 130.08C176.751 130.808 175.392 131.127 173.113 131.036L171.04 130.968V127.667V124.366L173.113 124.343C175.162 124.298 175.185 124.298 175.254 123.706L175.323 123.114H173.136H170.925V120.61V118.106H173.159C175.277 118.106 175.415 118.129 176.06 118.721L176.705 119.358L176.636 118.106L176.567 116.854L172.399 116.786C170.119 116.763 168.185 116.786 168.116 116.854Z" fill="white"/>
</g>
<defs>
<clipPath id="clip0_4001_322">
<rect width="186" height="28" fill="white" transform="translate(30 109)"/>
</clipPath>
</defs>
</svg>
