<svg width="246" height="246" viewBox="0 0 246 246" fill="none" xmlns="http://www.w3.org/2000/svg">
<path d="M66.2137 123C66.2137 119.113 68.8184 115.926 72.5529 115.926C75.4087 115.926 77.7938 117.52 78.39 119.877H84.8862C84.541 114.397 79.614 110 72.7099 110C65.4605 110 60 115.353 60 123C60 130.647 65.4605 136 72.7099 136C79.7395 136 84.7293 131.603 84.8862 125.613H78.39C77.8879 128.353 75.6284 130.073 72.5529 130.073C69.1322 130.105 66.2137 127.015 66.2137 123ZM108.235 124.243C104.312 125.198 101.582 128.576 100.954 134.056C100.326 128.608 97.596 125.198 93.6732 124.243C92.9828 119.973 96.7173 116.213 100.954 116.213C105.191 116.245 108.894 119.973 108.235 124.243ZM113.727 123C113.727 115.831 107.984 110 100.923 110C93.8615 110 88.1186 115.831 88.1186 123C88.1186 130.169 93.8615 136 100.923 136C108.015 136.032 113.727 130.201 113.727 123ZM123.894 116.755H133.78V110.988H117.084V135.012H123.894V116.755ZM153.927 123C153.927 126.792 151.134 129.596 147.776 129.596C144.481 129.596 141.625 126.823 141.625 123C141.625 119.208 144.481 116.404 147.776 116.404C151.134 116.436 153.927 119.208 153.927 123ZM153.457 135.044H160.266V110.988H153.457V113.632C151.699 111.434 149.377 110.51 146.866 110.51C140.464 110.51 135.381 115.512 135.381 123.032C135.381 130.551 140.464 135.554 146.866 135.554C149.377 135.554 151.699 134.63 153.457 132.431V135.044ZM185.466 117.551C185.466 113.569 182.109 110.35 175.33 110.35C168.112 110.35 164.378 114.461 164.378 119.527H170.999C170.999 116.882 172.443 115.512 175.204 115.512C177.809 115.512 178.939 116.468 178.939 117.966C178.939 119.463 178.123 120.515 176.083 120.515H172.317V124.848H175.989C178.311 124.848 179.284 125.868 179.284 127.524C179.284 129.086 178.28 130.583 175.298 130.583C172.098 130.583 170.654 128.926 170.654 126.186H164.032C164.032 132.368 168.332 135.681 175.298 135.681C182.172 135.681 186 132.75 186 128.066C186 125.645 184.745 123.86 182.328 122.841C184.462 121.757 185.466 119.686 185.466 117.551Z" fill="white"/>
</svg>
