<svg width="246" height="246" viewBox="0 0 246 246" fill="none" xmlns="http://www.w3.org/2000/svg">
<g clip-path="url(#clip0_4001_322)">
<path fill-rule="evenodd" clip-rule="evenodd" d="M97.9013 111.648L100.93 109.418H90.79V122.778H100.93V120.548H93.6873V117.137H99.8765V114.906H93.6873V111.648H97.9013Z" fill="white"/>
<path fill-rule="evenodd" clip-rule="evenodd" d="M83.1302 114.622H79.6182V111.648H85.237L88.2659 109.418H76.7209V122.778H82.7567C86.137 122.778 88.0901 121.248 88.0901 118.58C88.0901 116.021 86.3343 114.622 83.1302 114.622ZM82.6468 120.548H79.6182V116.852H82.6468C84.4907 116.852 85.3468 117.465 85.3468 118.711C85.3468 119.957 84.4251 120.548 82.6468 120.548Z" fill="white"/>
<path fill-rule="evenodd" clip-rule="evenodd" d="M109.139 109.418H103.63V122.778H106.527V118.996H109.161C112.673 118.996 114.867 117.158 114.867 114.207C114.867 111.254 112.673 109.418 109.139 109.418ZM109.073 116.765H106.505V111.648H109.073C110.939 111.648 111.948 112.566 111.948 114.207C111.948 115.846 110.939 116.765 109.073 116.765Z" fill="white"/>
<path fill-rule="evenodd" clip-rule="evenodd" d="M71.7611 119.892C70.9927 120.307 70.1362 120.526 69.2587 120.526C66.6467 120.526 64.7593 118.667 64.7593 116.108C64.7593 113.551 66.6467 111.691 69.2587 111.691C70.2022 111.67 71.1243 111.976 71.8924 112.523L73.9777 110.992L73.8461 110.86C72.6383 109.789 71.0145 109.243 69.1709 109.243C67.1736 109.243 65.3517 109.92 64.0348 111.145C62.718 112.413 61.9721 114.184 62.0157 116.021C61.9938 117.88 62.718 119.673 64.0348 120.985C65.4178 122.275 67.2614 122.997 69.1488 122.953C71.2342 122.953 73.056 122.231 74.2849 120.919L72.4192 119.542L71.7611 119.892Z" fill="white"/>
<path fill-rule="evenodd" clip-rule="evenodd" d="M52.951 109.33C53.4777 110.007 53.9171 110.751 54.2897 111.538L44.15 118.995L39.8916 116.327V113.135L44.1276 115.781L52.951 109.33Z" fill="white"/>
<mask id="mask0_4001_322" style="mask-type:luminance" maskUnits="userSpaceOnUse" x="33" y="115" width="6" height="9">
<path fill-rule="evenodd" clip-rule="evenodd" d="M35.5682 116.109C35.5682 115.956 35.5682 115.825 35.5901 115.671L33.0218 115.54C33.0218 115.715 33 115.912 33 116.087C33 119.148 34.2513 121.925 36.2704 123.937L38.0923 122.122C36.5337 120.592 35.5682 118.47 35.5682 116.109Z" fill="white"/>
</mask>
<g mask="url(#mask0_4001_322)">
<path d="M35.5682 116.109C35.5682 115.956 35.5682 115.825 35.5901 115.671L33.0218 115.54C33.0218 115.715 33 115.912 33 116.087C33 119.148 34.2513 121.925 36.2704 123.937L38.0923 122.122C36.5337 120.592 35.5682 118.47 35.5682 116.109Z" fill="white"/>
</g>
<mask id="mask1_4001_322" style="mask-type:luminance" maskUnits="userSpaceOnUse" x="36" y="105" width="9" height="6">
<path fill-rule="evenodd" clip-rule="evenodd" d="M44.1275 107.58C44.2815 107.58 44.4133 107.58 44.5668 107.602L44.6985 105.044C44.5225 105.044 44.3253 105.022 44.1499 105.022C41.0767 105.022 38.2893 106.268 36.2703 108.28L38.0921 110.095C39.6282 108.543 41.7794 107.58 44.1275 107.58Z" fill="white"/>
</mask>
<g mask="url(#mask1_4001_322)">
<path d="M44.1275 107.58C44.2815 107.58 44.4133 107.58 44.5668 107.602L44.6985 105.044C44.5225 105.044 44.3253 105.022 44.1499 105.022C41.0767 105.022 38.2893 106.268 36.2703 108.28L38.0921 110.095C39.6282 108.543 41.7794 107.58 44.1275 107.58Z" fill="white"/>
</g>
<mask id="mask2_4001_322" style="mask-type:luminance" maskUnits="userSpaceOnUse" x="43" y="122" width="9" height="6">
<path fill-rule="evenodd" clip-rule="evenodd" d="M44.1275 124.636C43.974 124.636 43.8423 124.636 43.6887 124.614L43.5571 127.173C43.7324 127.173 43.9302 127.195 44.1056 127.195C47.1788 127.195 49.9662 125.948 51.9852 123.937L50.1635 122.122C48.627 123.696 46.498 124.636 44.1275 124.636Z" fill="white"/>
</mask>
<g mask="url(#mask2_4001_322)">
<path d="M44.1275 124.636C43.974 124.636 43.8423 124.636 43.6887 124.614L43.5571 127.173C43.7324 127.173 43.9302 127.195 44.1056 127.195C47.1788 127.195 49.9662 125.948 51.9852 123.937L50.1635 122.122C48.627 123.696 46.498 124.636 44.1275 124.636Z" fill="white"/>
</g>
<mask id="mask3_4001_322" style="mask-type:luminance" maskUnits="userSpaceOnUse" x="44" y="105" width="8" height="5">
<path fill-rule="evenodd" clip-rule="evenodd" d="M48.9565 109.067L51.1292 107.471C49.22 105.941 46.7839 105 44.1277 105V107.559C45.9277 107.58 47.5959 108.127 48.9565 109.067Z" fill="white"/>
</mask>
<g mask="url(#mask3_4001_322)">
<path d="M48.9565 109.067L51.1292 107.471C49.22 105.941 46.7839 105 44.1277 105V107.559C45.9277 107.58 47.5959 108.127 48.9565 109.067Z" fill="white"/>
</g>
<path fill-rule="evenodd" clip-rule="evenodd" d="M55.2775 116.108C55.2775 115.431 55.2114 114.775 55.1021 114.119L52.7094 115.89C52.7094 115.956 52.7094 116.043 52.7094 116.108C52.7094 118.623 51.6122 120.875 49.8782 122.428L51.6122 124.331C53.8509 122.319 55.2775 119.367 55.2775 116.108Z" fill="white"/>
<mask id="mask4_4001_322" style="mask-type:luminance" maskUnits="userSpaceOnUse" x="35" y="121" width="10" height="7">
<path fill-rule="evenodd" clip-rule="evenodd" d="M44.1276 124.636C41.6035 124.636 39.3431 123.543 37.7845 121.815L35.8752 123.543C37.9162 125.796 40.8577 127.195 44.1276 127.195V124.636Z" fill="white"/>
</mask>
<g mask="url(#mask4_4001_322)">
<path d="M44.1276 124.636C41.6035 124.636 39.3431 123.543 37.7845 121.815L35.8752 123.543C37.9162 125.796 40.8577 127.195 44.1276 127.195V124.636Z" fill="white"/>
</g>
<mask id="mask5_4001_322" style="mask-type:luminance" maskUnits="userSpaceOnUse" x="33" y="107" width="6" height="10">
<path fill-rule="evenodd" clip-rule="evenodd" d="M38.3994 109.789L36.6654 107.887C34.4048 109.92 33 112.85 33 116.108H35.5682C35.5682 113.616 36.6654 111.341 38.3994 109.789Z" fill="white"/>
</mask>
<g mask="url(#mask5_4001_322)">
<path d="M38.3994 109.789L36.6654 107.887C34.4048 109.92 33 112.85 33 116.108H35.5682C35.5682 113.616 36.6654 111.341 38.3994 109.789Z" fill="white"/>
</g>
<path fill-rule="evenodd" clip-rule="evenodd" d="M74.2656 139.333C74.0591 139.567 73.8163 139.769 73.5464 139.934C73.2016 140.147 72.8341 140.324 72.4504 140.462C71.9938 140.63 71.522 140.76 71.0423 140.849C70.494 140.953 69.9355 141.003 69.3769 140.999C68.3324 141.012 67.2929 140.853 66.3048 140.528C65.4309 140.239 64.6287 139.779 63.9494 139.177C63.289 138.575 62.772 137.843 62.4328 137.032C62.0586 136.118 61.8747 135.143 61.8914 134.16C61.8801 133.222 62.0608 132.291 62.4238 131.419C62.7627 130.606 63.2792 129.87 63.937 129.261C64.62 128.641 65.4282 128.163 66.3111 127.854C67.3054 127.508 68.3565 127.338 69.4142 127.353C70.3631 127.333 71.3083 127.463 72.2129 127.74C72.8387 127.93 73.4349 128.201 73.9858 128.543V131.831C73.7562 131.522 73.4939 131.238 73.2033 130.981C72.8859 130.697 72.5359 130.45 72.1594 130.244C71.7553 130.023 71.3261 129.848 70.8794 129.725C70.4023 129.591 69.9081 129.524 69.4116 129.526C68.7171 129.516 68.0263 129.631 67.3767 129.866C66.8013 130.075 66.2771 130.397 65.8403 130.811C65.4112 131.226 65.0819 131.726 64.8743 132.275C64.6449 132.884 64.5309 133.527 64.5395 134.174C64.5368 134.787 64.6428 135.396 64.8521 135.975C65.0445 136.528 65.3604 137.035 65.777 137.459C66.1936 137.883 66.7017 138.215 67.2655 138.433C67.9303 138.689 68.6386 138.82 69.3545 138.82C69.9154 138.824 70.4736 138.761 71.0173 138.631C71.4963 138.514 71.9592 138.343 72.3953 138.12C72.7952 137.919 73.1634 137.667 73.491 137.37C73.7955 137.094 74.0548 136.776 74.259 136.426L74.2656 139.333ZM212.107 134.723H206.183V138.214H213V140.35H203.881V127.351H212.796V129.486H206.183V132.584H212.114L212.107 134.723ZM189.872 137.063L196.841 127.351H199.322V140.35H197.049V130.489L190.042 140.35H187.598V127.351H189.879L189.872 137.063ZM181.374 134.723H174.281V140.35H171.966V127.351H174.281V132.587H181.374V127.351H183.69V140.35H181.374V134.723ZM169.361 140.35H166.934L165.711 137.267H159.857L158.652 140.35H156.333L161.514 127.351H164.105L169.361 140.35ZM164.868 135.132L162.775 129.801L160.677 135.132H164.868ZM143.959 140.348V127.351H149.602C152.522 127.351 153.982 128.428 153.982 130.581C154.006 131.232 153.845 131.876 153.519 132.439C153.209 132.93 152.72 133.307 152.052 133.57C152.857 133.708 153.447 134.027 153.822 134.527C154.195 135.028 154.381 135.706 154.379 136.56C154.394 137.155 154.273 137.746 154.026 138.287C153.797 138.762 153.449 139.169 153.014 139.467C152.53 139.79 151.988 140.017 151.417 140.136C150.719 140.286 150.006 140.358 149.292 140.35L143.959 140.348ZM149.268 132.846C150.011 132.846 150.595 132.691 151.022 132.382C151.229 132.236 151.396 132.041 151.507 131.814C151.619 131.587 151.673 131.336 151.662 131.083C151.675 130.855 151.633 130.628 151.536 130.42C151.441 130.213 151.297 130.032 151.116 129.894C150.749 129.622 150.152 129.486 149.323 129.485H146.28V132.846H149.268ZM149.436 138.212C150.326 138.212 150.982 138.065 151.403 137.77C151.823 137.474 152.034 137.014 152.034 136.387C152.034 135.756 151.812 135.31 151.366 135.049C150.92 134.789 150.289 134.659 149.472 134.66H146.28V138.2L149.436 138.212ZM127.025 134.159C127.015 133.221 127.185 132.29 127.531 131.416C127.855 130.606 128.346 129.872 128.974 129.261C129.619 128.643 130.387 128.164 131.229 127.854C132.175 127.507 133.18 127.337 134.19 127.352C135.187 127.34 136.178 127.499 137.119 127.822C137.961 128.111 138.733 128.572 139.385 129.174C140.021 129.777 140.516 130.509 140.836 131.32C141.194 132.236 141.369 133.212 141.352 134.194C141.363 135.131 141.191 136.062 140.847 136.935C140.524 137.745 140.031 138.48 139.403 139.09C138.756 139.71 137.985 140.19 137.14 140.499C136.194 140.843 135.194 141.013 134.187 140.999C133.19 141.011 132.198 140.854 131.254 140.537C130.411 140.253 129.639 139.795 128.989 139.194C128.352 138.589 127.857 137.853 127.538 137.038C127.183 136.12 127.008 135.143 127.025 134.159ZM129.546 134.177C129.544 134.795 129.646 135.409 129.85 135.993C130.036 136.541 130.339 137.044 130.738 137.467C131.15 137.895 131.648 138.233 132.2 138.459C133.464 138.942 134.864 138.952 136.136 138.488C136.681 138.276 137.175 137.953 137.588 137.543C137.998 137.125 138.314 136.625 138.515 136.077C138.737 135.468 138.847 134.824 138.84 134.177C138.842 133.56 138.739 132.946 138.536 132.363C138.35 131.814 138.046 131.311 137.646 130.888C137.234 130.46 136.738 130.122 136.187 129.895C135.547 129.638 134.86 129.513 134.17 129.527C133.511 129.517 132.855 129.632 132.24 129.866C131.69 130.075 131.192 130.4 130.782 130.818C130.37 131.235 130.056 131.737 129.86 132.286C129.645 132.893 129.538 133.533 129.546 134.177ZM118.092 133.739L113.593 127.351H116.44L119.838 132.271L123.45 127.351H126.203L121.456 133.609L126.373 140.35H123.54L119.77 135.113L116.125 140.35H113.346H110.676L109.331 137.267H102.892L101.567 140.35H99.0163L104.721 127.351H107.571L113.346 140.35L118.092 133.739ZM108.404 135.132L106.098 129.801L103.794 135.132H108.404ZM90.4673 136.302V140.35H87.9438V127.351H92.651C94.8878 127.351 96.5076 127.719 97.5122 128.456C98.5158 129.193 99.0173 130.291 99.0163 131.752C99.0163 133.274 98.4776 134.413 97.3997 135.169C96.3216 135.924 94.7393 136.302 92.651 136.302H90.4673ZM90.4673 129.486V134.166H92.8327C94.0171 134.166 94.9062 133.977 95.4994 133.599C96.0923 133.221 96.3885 132.587 96.3885 131.696C96.3885 130.892 96.1124 130.323 95.5598 129.987C95.0079 129.652 94.1115 129.485 92.8727 129.486H90.4673ZM86.6416 129.486H81.9743V140.35H79.5033V129.486H74.9172V127.351H86.6416V129.486Z" fill="white"/>
</g>
<defs>
<clipPath id="clip0_4001_322">
<rect width="180" height="36" fill="white" transform="translate(33 105)"/>
</clipPath>
</defs>
</svg>
