<svg width="246" height="246" viewBox="0 0 246 246" fill="none" xmlns="http://www.w3.org/2000/svg">
<path d="M55.483 131.725H51.7598V120.275L43.587 131.725H40V114.275H43.7686V125.725L51.9869 114.275H55.483V131.725ZM58.2073 114.321H62.0213V121.191H69.6493V114.321H73.4633V131.725H69.6493V124.718H62.0213V131.725H58.2073V114.321ZM79.9562 131.725H76.1876V114.275H87.9021V117.756H79.9562V131.725ZM106.2 123.023C106.2 117.71 102.386 114.092 97.1193 114H97.0284C91.7615 114.046 87.9475 117.71 87.9475 122.977C87.9475 128.29 91.7615 131.908 97.0284 131.954H97.1193C102.386 131.954 106.2 128.29 106.2 123.023ZM97.0738 128.473C94.0317 128.473 91.8977 126.366 91.8977 123.023C91.8977 119.634 94.0317 117.573 97.0738 117.573C100.116 117.573 102.25 119.679 102.25 123.023C102.25 126.366 100.116 128.473 97.0738 128.473ZM145.929 117.847H140.345V114.321H155.283V117.847H149.743V131.725H145.929V117.847ZM157.598 114.321H165.363C169.495 114.321 171.992 116.794 171.992 120.366C171.992 124.397 168.904 126.504 164.999 126.504H161.412V131.725H157.598V114.321ZM165.09 123.069C166.997 123.069 168.087 121.924 168.087 120.366C168.087 118.672 166.906 117.71 164.999 117.71H161.367V123.023H165.09V123.069ZM206 131.725L199.87 122.794L205.728 114.275H201.369L197.691 119.634L194.013 114.275H189.518L195.421 122.885L189.291 131.725H193.65L197.6 126L201.505 131.725H206ZM185.023 131.725H188.882L181.481 114.183H177.985L170.584 131.725H174.444L176.078 127.695H183.388L185.023 131.725ZM177.44 124.305L179.756 118.855L182.072 124.305H177.44ZM116.961 128.473C113.919 128.473 111.785 126.366 111.785 123.023C111.785 119.634 113.919 117.573 116.961 117.573C118.55 117.573 119.867 118.031 121.002 118.992L123.363 116.611C121.774 115.053 119.64 114.046 117.007 114.046H116.916C111.649 114.092 107.835 117.756 107.835 123.023C107.835 128.336 111.649 131.954 116.916 132H117.007C119.595 131.954 121.729 130.947 123.363 129.435L121.002 127.053C119.867 128.015 118.55 128.473 116.961 128.473ZM132.807 128.473C129.765 128.473 127.631 126.366 127.631 123.023C127.631 119.634 129.765 117.573 132.807 117.573C134.397 117.573 135.713 118.031 136.848 118.992L139.21 116.611C137.62 115.053 135.486 114.046 132.853 114.046H132.762C127.495 114.092 123.681 117.756 123.681 123.023C123.681 128.336 127.495 131.954 132.762 132H132.853C135.441 131.954 137.575 130.947 139.21 129.435L136.848 127.053C135.713 128.015 134.397 128.473 132.807 128.473Z" fill="white"/>
</svg>
