<svg width="246" height="246" viewBox="0 0 246 246" fill="none" xmlns="http://www.w3.org/2000/svg">
<g clip-path="url(#clip0_4052_132)">
<path d="M101.674 121.96L96.5321 130.208V121.96H87.252V144.863H96.5321V136.161L101.409 144.863H112.097L103.959 132.82L111.86 121.96H101.674Z" fill="white"/>
<path d="M84.8968 144.147C83.4338 144.903 81.4412 145.563 78.6683 145.563C71.102 145.563 65.7373 140.752 65.7373 133.424C65.7373 125.107 72.6347 121.286 78.5428 121.286C80.4379 121.286 83.0575 121.739 84.9108 123.018V131.032C83.4895 129.3 81.3994 128.613 79.7691 128.613C76.3273 128.613 74.6552 130.867 74.6552 133.658C74.6552 136.572 76.815 138.236 79.7273 138.236C81.7756 138.236 83.5731 137.315 84.8968 136.146V144.147Z" fill="white"/>
<path d="M53.2802 139.225V135.789H54.4089C55.3006 135.789 56.7219 135.953 56.7219 137.493C56.7219 139.102 55.2588 139.225 54.4089 139.225H53.2802ZM44 121.808V144.71H57.7252C64.1628 144.71 65.5562 140.655 65.5562 138.332C65.5562 135.225 63.3964 132.97 60.4145 132.475V132.407C62.3374 131.857 64.4554 130.207 64.4554 127.623C64.4554 125.849 63.7587 121.794 57.0982 121.794H44V121.808ZM53.2802 130.51V127.307H54.1441C55.7744 127.307 56.2064 128.118 56.2064 128.915C56.2064 129.712 55.7744 130.523 54.1441 130.523H53.2802V130.51Z" fill="white"/>
<path d="M166.356 124.874L163.709 124.97L163.472 124.352L160.922 124.173L160.908 123.719L158.163 123.678L158.623 124.627L159.835 124.764L159.696 124.448L160.797 125.163L162.636 125.562L163.848 125.603L166.928 125.218L166.356 124.874Z" fill="white"/>
<path d="M159.611 122.66L158.357 122.495C158.357 122.495 158.399 122.083 157.898 121.836C157.41 121.602 157.521 121.822 157.521 121.822L157.034 121.478L156.17 121.341L156.1 120.708L154.971 120.653L154.999 120.337L154.107 120.227L153.731 119.911L153.843 119.553L153.62 119.224L152.561 118.742L151.669 118.399L151.084 117.753L150.387 117.161L149.481 116.309L147.238 115.553L145.106 114.041L144.242 113.683L143.336 113.244L141.386 112.24L138.529 110.7L132.203 107.745L130.391 106.975C129.36 106.549 129.207 106.329 129.179 106.191C128.259 105.985 127.953 105.834 127.465 105.353C126.964 105.366 125.877 104.775 125.584 104.487C125.584 104.473 123.717 103.95 123.605 103.841C123.605 103.731 118.77 102.095 118.185 101.957C117.767 101.93 116.597 101.723 116.429 101.641C116.234 101.641 115.496 101.421 115.189 101.38C114.186 101.27 113.224 101.119 112.193 101.105C111.455 101.091 111.037 101.105 110.382 100.954C110.145 101.105 108.64 100.844 108.097 101.229C107.484 101.256 106.104 101.545 105.728 101.723C104.906 101.751 103.498 102.631 103.025 102.851C102.788 102.961 102.537 103.071 102.286 103.194C103.791 103.703 105.505 104.322 105.519 104.377C105.644 104.487 107.498 105.009 107.498 105.023C107.79 105.311 108.891 105.916 109.379 105.889C109.866 106.356 110.173 106.507 111.093 106.714C111.12 106.851 111.288 107.071 112.305 107.497L114.102 108.267L120.415 111.223L123.271 112.762L125.208 113.766L126.128 114.206L126.991 114.563L127.702 115.072L129.096 115.594L132.245 116.584L136.035 118L137.456 118.467L138.877 118.894L139.546 118.77L140.285 119.017L141.107 119.732L141.943 119.471L142.514 119.567L142.96 120.131L143.253 120.475L143.963 120.681L144.674 120.777L145.51 120.626L146.499 120.708L146.848 121.272L148.227 121.506L149.217 121.574L150.206 121.643L150.972 121.987L151.669 122.715L152.658 122.908L155.236 123.265L157.563 122.99L159.082 123.059L159.611 122.66Z" fill="white"/>
<path d="M138.767 126.275L141.512 126.317L141.526 126.77L144.076 126.949L144.312 127.568L146.96 127.471L147.531 127.815L144.452 128.214L143.239 128.159L141.4 127.774L140.285 127.045L140.439 127.361L139.226 127.224L138.767 126.275Z" fill="white"/>
<path d="M139.06 125.191C139.06 125.191 139.088 124.779 138.614 124.545C138.126 124.311 138.224 124.531 138.224 124.531L137.75 124.187L136.872 124.05L136.803 123.418L135.66 123.363L135.688 123.046L134.796 122.936L134.42 122.607L134.545 122.235L134.322 121.919L133.263 121.424L132.372 121.081L131.786 120.435L131.09 119.843L130.198 118.991L127.954 118.235L125.822 116.723L124.959 116.365L124.039 115.925L122.102 114.922L119.245 113.382L112.905 110.454L111.108 109.684C110.091 109.258 109.924 109.024 109.896 108.901C108.962 108.694 108.656 108.543 108.182 108.076C107.694 108.09 106.593 107.498 106.301 107.21C106.301 107.196 104.447 106.674 104.322 106.564C104.322 106.454 99.4868 104.818 98.9016 104.667C98.4835 104.639 97.3131 104.419 97.1598 104.35C96.9647 104.35 96.2262 104.13 95.9196 104.103C94.9164 103.993 93.9549 103.842 92.9238 103.828C92.1853 103.814 91.7672 103.828 91.1123 103.677C90.8894 103.814 89.3706 103.553 88.8271 103.938C88.2279 103.965 86.8485 104.254 86.4583 104.433C85.6362 104.474 84.2288 105.34 83.7551 105.56C83.337 105.753 82.8633 105.945 82.4731 106.179C82.292 106.316 79.6445 107.581 79.4633 107.732C79.5051 107.815 76.8855 109.327 76.6208 109.547C76.5093 109.657 75.8126 109.932 75.6314 110.097C75.4503 110.262 74.7536 110.867 74.5167 110.976C74.4052 111.183 73.7364 111.416 73.6388 111.636C73.4856 111.856 72.6774 112.214 72.552 112.365C72.538 112.379 72.0921 112.722 71.7298 113.011C71.5905 113.204 71.4372 113.382 71.2839 113.575C71.1167 113.643 70.4061 114.028 70.2249 114.166C70.2389 114.578 70.2668 115.211 69.6118 115.087C69.5979 115.073 68.8594 115.541 68.8315 115.527C68.9291 115.527 68.4274 116.228 68.0094 116.737C67.7586 117.025 66.6299 117.424 66.407 117.726C65.9471 118.345 65.3619 118.909 64.916 119.5C64.916 119.513 64.916 119.527 64.916 119.541C64.9299 119.541 64.9439 119.541 64.9718 119.541C64.9718 119.623 65.4037 119.61 65.4734 119.775C65.557 120.008 65.2922 120.215 65.2226 120.435C65.2365 120.435 65.2644 120.435 65.2783 120.435V120.476C65.6267 120.462 65.975 120.118 66.2537 119.967C66.4906 119.885 66.7275 119.788 66.9643 119.706C67.3824 119.472 67.8004 119.225 68.2184 118.991C71.3536 117.355 74.4749 115.719 77.5961 114.083C79.101 113.314 80.2854 112.585 81.9436 111.705C82.3338 111.499 83.8387 110.523 84.9813 110.454C86.4165 110.358 88.1443 110.715 88.6042 110.908C89.0501 111.059 90.1369 111.581 90.6804 111.719C90.8476 111.788 91.1681 111.994 91.2377 111.994C91.2935 112.063 92.3246 112.227 92.868 112.42C93.0492 112.53 93.2443 112.64 93.4254 112.75C94.3311 112.997 96.5606 113.506 97.3688 113.753C98.0516 113.96 98.4557 114.331 98.804 114.4C99.2778 114.716 99.3753 114.551 99.9466 114.826C100.811 114.908 101.34 115.211 101.368 115.238C101.633 115.348 101.814 115.458 102.079 115.568C102.301 115.596 102.733 115.912 102.901 115.994C103.096 116.035 104.517 116.448 104.656 116.517C104.893 116.503 105.883 116.915 106.008 117.011C106.287 117.135 106.607 117.204 106.928 117.273L109.798 118.345L112.933 119.335L116.737 120.764L118.159 121.232L119.58 121.658L120.249 121.534L120.987 121.782L121.809 122.497L122.645 122.235L123.217 122.332L123.663 122.895L123.955 123.239L124.666 123.445L125.377 123.541L126.213 123.39L127.202 123.473L127.55 124.036L128.93 124.27L129.919 124.352L130.908 124.421L131.675 124.765L132.372 125.493L133.361 125.686L135.939 126.043L138.266 125.768L139.785 125.837L140.328 125.438L139.06 125.191Z" fill="white"/>
<path d="M120.973 144.121H119.677V137.935H117.016V141.248C117.016 141.866 117.016 142.691 116.444 143.378C116.207 143.667 115.65 144.162 114.647 144.162C114.521 144.162 114.368 144.148 114.257 144.121V142.952C114.354 142.966 114.452 142.994 114.549 142.994C115.037 142.994 115.343 142.746 115.483 142.512C115.72 142.155 115.734 141.701 115.734 141.248V136.766H120.973V144.121Z" fill="white"/>
<path d="M132.287 136.779H133.583V139.79H137.108V136.779H138.404V144.134H137.108V140.958H133.583V144.134H132.287V136.779Z" fill="white"/>
<path d="M153.314 137.907H152.116C151.587 137.907 151.21 137.948 150.946 138.099C150.737 138.237 150.486 138.525 150.486 139.006C150.486 139.391 150.625 139.694 150.946 139.9C151.322 140.134 151.796 140.106 152.102 140.106H153.328V137.907H153.314ZM151.182 141.096C151.085 141.096 150.291 141.027 149.747 140.505C149.441 140.216 149.148 139.721 149.148 139.034C149.148 138.347 149.399 137.755 149.817 137.384C150.458 136.779 151.266 136.766 152.005 136.766H154.61V144.12H153.314V141.165H152.52L150.402 144.12H148.855L151.182 141.096Z" fill="white"/>
<path d="M164.559 136.779V139.79L167.36 136.779H168.864L165.646 140.175L169.199 144.134H167.582L164.81 141.027L164.559 141.275V144.134H163.263V141.275L163.012 141.027L160.253 144.134H158.637L162.19 140.175L158.957 136.779H160.462L163.263 139.79V136.779H164.559Z" fill="white"/>
<path d="M179.441 137.92C179.691 137.563 180.04 137.219 180.388 136.999C180.959 136.669 181.531 136.587 182.018 136.587C182.618 136.587 183.217 136.642 183.774 137.096C184.262 137.508 184.415 137.989 184.415 138.498C184.415 139.364 183.955 139.804 183.579 140.037C183.955 140.12 184.262 140.312 184.443 140.519C184.75 140.835 184.973 141.302 184.973 141.866C184.973 142.636 184.61 143.323 184.011 143.763C183.468 144.148 182.701 144.327 181.893 144.327C181.224 144.327 180.527 144.189 179.9 143.708C179.468 143.392 179.12 142.911 178.911 142.443L180.026 141.99C180.096 142.168 180.277 142.526 180.695 142.828C181.113 143.131 181.517 143.199 181.921 143.199C182.214 143.199 182.785 143.186 183.175 142.911C183.426 142.746 183.691 142.416 183.691 141.88C183.691 141.467 183.495 141.192 183.245 141.027C182.868 140.78 182.367 140.78 182.018 140.78H181.252V139.611H181.879C182.478 139.611 182.743 139.488 182.855 139.419C183.05 139.295 183.245 139.075 183.245 138.745C183.245 138.429 183.119 138.14 182.924 137.975C182.618 137.714 182.2 137.714 181.977 137.714C181.684 137.714 181.336 137.769 180.959 138.003C180.764 138.127 180.527 138.319 180.346 138.649L179.441 137.92Z" fill="white"/>
<path d="M186.979 136.779H188.26V139.79H191.786V136.779H193.082V144.134H191.786V140.958H188.26V144.134H186.979V136.779Z" fill="white"/>
<path d="M129.012 136.682L124.846 141.714V136.847H123.369V144.229H124.4L128.553 139.212V144.092H130.03V136.682H129.012Z" fill="white"/>
<path d="M146.291 136.682L142.124 141.714V136.847H140.661V144.229H141.678L145.831 139.212V144.092H147.308V136.682H146.291Z" fill="white"/>
<path d="M176.263 136.682L172.097 141.714V136.847H170.634V144.229H171.651L175.817 139.212V144.092H177.28V136.682H176.263Z" fill="white"/>
<path d="M200.969 136.682L196.817 141.714V136.847H195.354V144.229H196.357L200.523 139.212V144.092H202V136.682H200.969Z" fill="white"/>
</g>
<defs>
<clipPath id="clip0_4052_132">
<rect width="158" height="60" fill="white" transform="translate(44 93)"/>
</clipPath>
</defs>
</svg>
