<svg width="246" height="246" viewBox="0 0 246 246" fill="none" xmlns="http://www.w3.org/2000/svg">
<g clip-path="url(#clip0_4001_322)">
<mask id="mask0_4001_322" style="mask-type:luminance" maskUnits="userSpaceOnUse" x="34" y="109" width="179" height="27">
<path d="M213 109H34V136H213V109Z" fill="white"/>
</mask>
<g mask="url(#mask0_4001_322)">
<path d="M172.954 122.844C173.927 122.844 174.488 122.464 174.488 121.751C174.488 121.118 173.993 120.704 172.92 120.704H170.406V122.844H172.954ZM170.406 118.447H172.491C173.463 118.447 174.008 118.116 174.008 117.402C174.008 116.771 173.513 116.408 172.557 116.408H170.406L170.406 118.447ZM175.081 119.361C176.483 119.826 177.375 120.622 177.375 122.23C177.375 124.225 175.759 125.435 173.003 125.435H172.157V125.443H167.496V113.811H172.969C174.422 113.811 175.444 114.182 176.121 114.862C176.582 115.326 176.862 115.941 176.862 116.771C176.862 118.116 176.104 118.912 175.081 119.361ZM186.888 125.554V118.762L181.762 125.554H178.978V113.919H181.886V120.841L187.016 113.919H189.798V125.554L186.888 125.554ZM208.142 121.115L206.72 117.464L205.279 121.115H208.142ZM212.998 125.549H209.849L208.97 123.372H204.437L203.562 125.549H200.473L205.296 113.797H208.192L212.998 125.549ZM201.31 113.894V116.463H197.67V125.549H194.729V116.463H191.088V113.894H201.31ZM189.224 130.249H189.852V133.605L192.355 130.249H192.966V134.491H192.339V131.135L189.828 134.491H189.224V130.249ZM184.139 130.249H184.767V132.079H187.196V130.249H187.823V134.491H187.196V132.637H184.767V134.491H184.139V130.249ZM179.558 133.958L179.876 133.491C180.301 133.852 180.781 134.04 181.287 134.04C181.833 134.04 182.33 133.778 182.33 133.286C182.33 132.858 181.955 132.588 181.27 132.588H180.707V132.071H181.278C181.833 132.071 182.216 131.784 182.216 131.341C182.216 130.946 181.825 130.71 181.303 130.71C180.887 130.71 180.389 130.84 180.023 131.135L179.712 130.693C180.154 130.347 180.724 130.16 181.343 130.16C182.29 130.16 182.869 130.635 182.869 131.291C182.869 131.817 182.551 132.121 182.192 132.269C182.656 132.433 182.973 132.753 182.973 133.31C182.973 133.992 182.346 134.59 181.303 134.59C180.634 134.59 180.073 134.377 179.558 133.958ZM174.823 130.249H175.451V133.605L177.954 130.249H178.566V134.491H177.938V131.135L175.426 134.491H174.823V130.249ZM169.078 132.062L167.439 130.249H168.197L170.342 132.711V130.249H170.969V132.711L173.114 130.249H173.871L172.233 132.062L173.961 134.491H173.227L171.825 132.514L170.97 133.458V134.491H170.342V133.458L169.486 132.514L168.084 134.491H167.349L169.078 132.062Z" fill="white"/>
<path d="M165.955 119.625C165.955 120.536 165.221 121.274 164.316 121.274C163.414 121.276 162.68 120.538 162.678 119.627C162.678 119.626 162.678 119.626 162.678 119.625C162.679 118.713 163.412 117.975 164.315 117.976C164.316 117.976 164.316 117.976 164.316 117.976C165.219 117.975 165.953 118.713 165.955 119.625ZM136.688 123.717C135.549 124.986 133.95 125.714 132.283 125.714C128.997 125.714 126.326 123.023 126.326 119.715C126.326 116.41 128.997 113.718 132.283 113.718C133.814 113.718 135.266 114.316 136.387 115.403L134.946 117.436L134.831 117.543C134.218 116.844 133.34 116.444 132.416 116.441C130.621 116.441 129.164 117.909 129.164 119.715C129.164 121.521 130.621 122.99 132.416 122.99C133.198 122.99 133.95 122.701 134.551 122.173L134.566 122.182L134.809 121.952L136.688 123.717ZM86.3382 122.746C87.6093 122.347 88.5403 121.164 88.5403 119.751C88.5403 118.338 87.6093 117.157 86.3382 116.758C86.0418 116.667 85.7372 116.601 85.4109 116.601C84.1548 116.602 83.0199 117.359 82.5264 118.527C82.2038 119.311 82.2038 120.194 82.5264 120.978C83.0199 122.145 84.1542 122.902 85.4103 122.902C85.7372 122.902 86.0418 122.837 86.3382 122.746ZM85.4109 113.684C88.7417 113.684 91.4397 116.4 91.4397 119.751C91.4397 123.102 88.7417 125.819 85.4109 125.819C83.128 125.817 81.0354 124.534 79.9769 122.491C79.4455 123.213 78.8128 123.852 78.098 124.389C77.0601 125.17 75.4721 125.777 74.0662 125.777H74.0376C73.8163 125.783 73.595 125.782 73.3781 125.766C70.0592 125.522 67.5594 122.614 67.803 119.273C68.0454 115.931 70.9355 113.42 74.2545 113.663C75.7586 113.773 77.0775 114.442 78.0595 115.441L76.336 117.872C75.8095 117.148 74.9984 116.643 74.0425 116.573C72.3209 116.445 70.8205 117.751 70.6956 119.487C70.5688 121.22 71.7597 122.855 73.9363 122.855C77.4255 122.855 79.126 118.041 80.4331 116.261L80.443 116.251C81.5966 114.641 83.4438 113.687 85.4109 113.684ZM161.676 123.067V125.553H152.09V113.916H161.594V116.664H155.003V118.611H161.025V120.901H155.002V123.067H161.676ZM146.514 125.553V118.76L141.389 125.553H138.605V113.916H141.513V120.838L146.643 113.916H149.425V125.552L146.514 125.553ZM121.342 121.113L119.919 117.463L118.481 121.113H121.342ZM126.199 125.547H123.051L122.169 123.37H117.638L116.762 125.547H113.674L118.495 113.795H121.392L126.199 125.547ZM101.32 116.461H95.9974V125.547H93.0576V113.893H101.321L101.32 116.461ZM109.524 116.392H106.503V117.166C106.468 124.681 101.89 125.462 101.127 125.539V123.005C103.142 122.284 103.793 120.393 103.793 115.312V113.891H112.444V125.545H109.524L109.524 116.392ZM161.156 132.119C161.082 131.347 160.642 130.691 159.81 130.691C159.085 130.691 158.531 131.298 158.441 132.119H161.156ZM159.826 130.158C161.075 130.158 161.791 131.159 161.791 132.406C161.791 132.463 161.791 132.529 161.783 132.627H158.441C158.531 133.522 159.183 134.038 159.925 134.038C160.504 134.038 160.91 133.8 161.253 133.44L161.645 133.792C161.221 134.268 160.707 134.588 159.908 134.588C158.751 134.588 157.805 133.694 157.805 132.373C157.805 131.142 158.66 130.158 159.826 130.158H159.826ZM152.923 130.248H153.551V133.604L156.054 130.248H156.665V134.49H156.038V131.134L153.527 134.49H152.923V130.248ZM147.838 130.248H148.465V132.077H150.895V130.248H151.523V134.49H150.895V132.636H148.465V134.49H147.838V130.248ZM145.899 132.931V132.536C145.499 132.418 145.084 132.357 144.668 132.357C143.885 132.357 143.437 132.701 143.437 133.226C143.437 133.76 143.926 134.072 144.496 134.072C145.271 134.072 145.899 133.604 145.899 132.931ZM142.801 133.242C142.801 132.332 143.534 131.856 144.603 131.856C145.141 131.856 145.516 131.93 145.89 132.037V131.905C145.89 131.15 145.434 130.756 144.643 130.756C144.147 130.756 143.755 130.88 143.364 131.06L143.176 130.543C143.641 130.33 144.089 130.181 144.708 130.181C145.304 130.181 145.769 130.346 146.07 130.65C146.364 130.945 146.511 131.355 146.511 131.897V134.49H145.891V133.859C145.597 134.235 145.115 134.58 144.375 134.58C143.584 134.58 142.801 134.128 142.801 133.242ZM140.373 133.948C140.975 133.948 141.343 133.678 141.343 133.235C141.343 132.825 140.976 132.578 140.291 132.578H138.97V133.948H140.373ZM140.267 132.069C140.773 132.069 141.123 131.831 141.123 131.388C141.123 131.036 140.829 130.789 140.283 130.789H138.97V132.069H140.267ZM138.343 130.248H140.381C141.22 130.248 141.759 130.666 141.759 131.306C141.759 131.864 141.409 132.135 141.057 132.283C141.563 132.423 141.987 132.734 141.987 133.333C141.987 134.047 141.384 134.49 140.455 134.49H138.343V130.248ZM136.568 132.373C136.568 131.463 135.89 130.715 135.002 130.715C134.089 130.715 133.461 131.463 133.461 132.373C133.461 133.284 134.129 134.023 135.018 134.023C135.931 134.023 136.568 133.284 136.568 132.373ZM132.817 132.373C132.817 131.176 133.746 130.158 135.018 130.158C136.282 130.158 137.212 131.159 137.212 132.373C137.217 133.592 136.243 134.583 135.037 134.588C135.026 134.588 135.014 134.588 135.002 134.588C133.738 134.588 132.817 133.587 132.817 132.373ZM129.997 132.332L128.409 130.248H129.125L130.372 131.89L131.62 130.248H132.321L130.723 132.315L132.386 134.49H131.661L130.356 132.759L129.043 134.49H128.343L129.997 132.332ZM126.787 132.931V132.536C126.387 132.418 125.972 132.357 125.556 132.357C124.773 132.357 124.325 132.701 124.325 133.226C124.325 133.76 124.814 134.072 125.385 134.072C126.159 134.072 126.787 133.604 126.787 132.931ZM123.689 133.242C123.689 132.332 124.424 131.856 125.491 131.856C125.927 131.851 126.361 131.913 126.779 132.037V131.905C126.779 131.15 126.322 130.756 125.531 130.756C125.035 130.756 124.643 130.88 124.252 131.06L124.064 130.543C124.529 130.33 124.977 130.181 125.596 130.181C126.192 130.181 126.657 130.346 126.958 130.65C127.251 130.945 127.398 131.355 127.398 131.897V134.49H126.779V133.859C126.485 134.235 126.004 134.58 125.263 134.58C124.471 134.58 123.689 134.128 123.689 133.242ZM120.56 130.724C119.776 130.724 119.036 131.389 119.036 132.373C119.036 133.358 119.777 134.013 120.56 134.013C121.376 134.013 122.044 133.407 122.044 132.365C122.044 131.363 121.359 130.724 120.56 130.724ZM118.433 130.248H119.06V131.102C119.402 130.592 119.9 130.158 120.675 130.158C121.685 130.158 122.688 130.962 122.688 132.373C122.688 133.761 121.694 134.58 120.675 134.58C119.891 134.58 119.386 134.154 119.06 133.678V135.803H118.433V130.248ZM115.377 130.806H113.868V130.248H117.52V130.806H116.012V134.49H115.377V130.806ZM109.443 132.373C109.443 131.176 110.373 130.158 111.603 130.158C112.403 130.158 112.899 130.493 113.29 130.912L112.891 131.339C112.557 130.986 112.166 130.715 111.595 130.715C110.739 130.715 110.087 131.446 110.087 132.373C110.087 133.293 110.756 134.023 111.636 134.023C112.174 134.023 112.573 133.744 112.907 133.382L113.323 133.768C112.899 134.244 112.394 134.588 111.603 134.588C110.373 134.588 109.443 133.579 109.443 132.373Z" fill="white"/>
<path d="M54.6291 109.266C60.3223 109.266 64.9546 113.93 64.9546 119.662C64.9546 125.395 60.3223 130.057 54.6291 130.057C52.8298 130.057 51.0616 129.585 49.4978 128.686C47.9284 129.595 46.1509 130.072 44.3422 130.072C38.6391 130.072 34 125.403 34 119.662C34 113.921 38.6391 109.251 44.3422 109.251C46.154 109.251 47.9359 109.729 49.4978 110.639C51.0609 109.738 52.8298 109.266 54.6291 109.266ZM41.1519 119.634C41.9114 117.107 43.7592 114.674 46.6506 112.399C45.9041 112.158 45.1254 112.036 44.3422 112.037C40.1625 112.037 36.7658 115.456 36.7658 119.66C36.7658 123.862 40.1625 127.279 44.3422 127.279C45.3367 127.279 46.3069 127.088 47.2211 126.708L47.228 126.705C47.2516 126.697 49.8813 125.785 52.7223 122.866C54.9275 120.602 55.2817 119.108 55.2948 118.401L55.2917 118.398V118.296C55.2892 117.37 54.5452 116.619 53.6285 116.618C52.997 116.615 52.419 116.974 52.1368 117.544L52.1306 117.558L52.0902 117.642L49.3828 122.904C49.3405 123.004 49.2896 123.101 49.2337 123.194L49.21 123.248V123.243C48.4095 124.617 46.9508 125.462 45.3727 125.466C42.9282 125.466 40.9406 123.464 40.9406 121.005C40.9406 120.543 41.009 120.09 41.1457 119.655L41.1519 119.634ZM57.8337 119.686C57.0755 122.224 55.237 124.655 52.373 126.912C53.1225 127.157 53.9038 127.279 54.6987 127.279C58.8754 127.279 62.2689 123.862 62.2689 119.659C62.2689 115.456 58.8754 112.037 54.6987 112.037C53.6888 112.037 52.7061 112.235 51.7819 112.625C51.7483 112.636 49.1516 113.492 46.3156 116.408C44.0855 118.7 43.7188 120.202 43.7058 120.917V121.005C43.7089 121.932 44.4541 122.683 45.3721 122.682C45.9831 122.682 46.5424 122.347 46.8339 121.809L49.6277 116.361C49.6619 116.288 49.6992 116.216 49.7396 116.147L49.8042 116.018V116.03C50.6085 114.672 52.0585 113.838 53.6247 113.835C56.068 113.835 58.055 115.835 58.055 118.296C58.055 118.769 57.9804 119.236 57.8337 119.682V119.686Z" fill="white"/>
</g>
</g>
<defs>
<clipPath id="clip0_4001_322">
<rect width="179" height="27" fill="white" transform="translate(34 109)"/>
</clipPath>
</defs>
</svg>
