<svg width="246" height="246" viewBox="0 0 246 246" fill="none" xmlns="http://www.w3.org/2000/svg">
<path d="M137.417 127.358H141.06V112.913H130.378V114.656C130.378 120.945 129.576 123.311 127.106 124.183V127.296C128.032 127.171 133.712 126.237 133.774 116.898V115.964H137.54V127.358H137.417Z" fill="white"/>
<path d="M117.042 127.358H120.685V116.088H127.291V112.913H117.042V127.358Z" fill="white"/>
<path d="M152.112 112.788H148.531L142.542 127.358H146.37L147.481 124.68H153.1L154.211 127.358H158.101L152.112 112.788ZM148.531 121.878L150.321 117.333L152.112 121.878H148.531Z" fill="white"/>
<path d="M177.056 112.913H173.413V127.358H176.871L183.23 118.952V127.358H186.811V112.913H183.354L177.056 121.505V112.913Z" fill="white"/>
<path d="M201.197 121.568V118.766H193.726V116.337H201.877V112.913H190.145V127.358H202V124.245H193.726V121.568H201.197Z" fill="white"/>
<path d="M107.595 112.663C105.064 112.663 102.841 113.909 101.421 115.839C99.8156 118.018 97.7163 123.995 93.3943 123.995C90.6776 123.995 89.1958 121.941 89.381 119.824C89.5662 117.644 91.4185 116.026 93.5178 116.212C94.6909 116.275 95.6788 116.897 96.358 117.831L98.5189 114.843C97.2841 113.597 95.6788 112.788 93.8265 112.663C89.6897 112.352 86.1704 115.465 85.8617 119.637C85.553 123.809 88.6401 127.358 92.7769 127.669C93.0238 127.669 93.3326 127.669 93.5795 127.669H93.6413C95.3701 127.669 97.3458 126.922 98.6424 125.926C99.6303 125.179 100.371 124.369 100.989 123.56C102.224 125.988 104.817 127.669 107.719 127.669C111.855 127.669 115.19 124.307 115.19 120.135C115.066 116.026 111.732 112.663 107.595 112.663ZM108.707 123.871C108.336 123.995 107.966 124.058 107.533 124.058C105.928 124.058 104.57 123.062 103.952 121.692C103.767 121.194 103.644 120.695 103.644 120.197C103.644 119.637 103.767 119.139 103.952 118.703C104.57 117.271 105.928 116.337 107.533 116.337C107.904 116.337 108.336 116.399 108.707 116.524C110.312 117.022 111.423 118.454 111.423 120.26C111.485 121.941 110.312 123.373 108.707 123.871Z" fill="white"/>
<path d="M168.721 122.875L168.412 123.187C167.671 123.871 166.745 124.183 165.757 124.183C163.534 124.183 161.744 122.377 161.744 120.136C161.744 117.894 163.534 116.088 165.757 116.088C166.868 116.088 167.98 116.587 168.721 117.458L168.844 117.334L170.635 114.843C169.276 113.473 167.424 112.726 165.572 112.726C161.497 112.726 158.224 116.088 158.224 120.136C158.224 124.245 161.558 127.545 165.572 127.545C167.609 127.545 169.585 126.673 171.005 125.055L168.721 122.875Z" fill="white"/>
<path d="M139.825 137.881C138.714 137.881 137.911 136.947 137.911 135.826C137.911 134.706 138.714 133.772 139.763 133.772C140.442 133.772 140.936 134.083 141.368 134.519L141.862 133.959C141.368 133.46 140.751 133.025 139.763 133.025C138.22 133.025 137.108 134.27 137.108 135.764C137.108 137.259 138.281 138.504 139.763 138.504C140.751 138.504 141.368 138.068 141.924 137.508L141.43 137.009C140.998 137.508 140.504 137.881 139.825 137.881Z" fill="white"/>
<path d="M147.111 133.149H142.603V133.896H144.456V138.441H145.258V133.896H147.111V133.149Z" fill="white"/>
<path d="M151.062 133.086C150.074 133.086 149.457 133.647 149.086 134.269V133.211H148.284V140.122H149.086V137.507C149.519 138.067 150.136 138.628 151.062 138.628C152.297 138.628 153.532 137.631 153.532 135.888C153.532 134.082 152.297 133.086 151.062 133.086ZM150.877 137.818C149.889 137.818 148.963 137.009 148.963 135.764C148.963 134.518 149.889 133.709 150.877 133.709C151.865 133.709 152.729 134.518 152.729 135.764C152.729 137.071 151.927 137.818 150.877 137.818Z" fill="white"/>
<path d="M157.113 133.086C156.372 133.086 155.816 133.273 155.199 133.522L155.446 134.145C155.94 133.896 156.434 133.771 157.051 133.771C158.039 133.771 158.595 134.269 158.595 135.203V135.39C158.101 135.265 157.669 135.141 156.989 135.141C155.693 135.141 154.767 135.701 154.767 136.884C154.767 138.005 155.755 138.565 156.742 138.565C157.669 138.565 158.286 138.13 158.595 137.694V138.503H159.336V135.203C159.336 134.518 159.15 134.02 158.78 133.647C158.409 133.273 157.854 133.086 157.113 133.086ZM158.595 136.511C158.595 137.32 157.792 137.943 156.866 137.943C156.187 137.943 155.569 137.569 155.569 136.884C155.569 136.262 156.125 135.826 157.113 135.826C157.73 135.826 158.224 135.95 158.656 136.075V136.511H158.595Z" fill="white"/>
<path d="M163.04 135.203L161.497 133.149H160.632L162.608 135.764L160.509 138.441H161.435L163.04 136.262L164.646 138.441H165.572L163.473 135.764L165.448 133.149H164.584L163.04 135.203Z" fill="white"/>
<path d="M168.844 133.086C167.239 133.086 166.127 134.331 166.127 135.826C166.127 137.32 167.239 138.565 168.844 138.565C170.449 138.565 171.561 137.32 171.561 135.826C171.561 134.331 170.388 133.086 168.844 133.086ZM168.844 137.881C167.733 137.881 166.93 136.947 166.93 135.826C166.93 134.705 167.733 133.771 168.844 133.771C169.955 133.771 170.758 134.705 170.758 135.826C170.758 136.947 169.955 137.881 168.844 137.881Z" fill="white"/>
<path d="M176.315 135.702C176.747 135.515 177.179 135.204 177.179 134.519C177.179 133.709 176.5 133.211 175.451 133.211H172.919V138.504H175.512C176.685 138.504 177.426 137.943 177.426 137.072C177.426 136.262 176.932 135.889 176.315 135.702ZM173.722 133.834H175.327C176.006 133.834 176.377 134.145 176.377 134.581C176.377 135.141 175.944 135.453 175.327 135.453H173.722V133.834ZM175.451 137.756H173.722V136.075H175.389C176.253 136.075 176.685 136.387 176.685 136.885C176.624 137.445 176.191 137.756 175.451 137.756Z" fill="white"/>
<path d="M180.822 133.086C180.081 133.086 179.526 133.273 178.908 133.522L179.155 134.145C179.649 133.896 180.143 133.771 180.76 133.771C181.748 133.771 182.304 134.269 182.304 135.203V135.39C181.81 135.265 181.378 135.141 180.699 135.141C179.402 135.141 178.476 135.701 178.476 136.884C178.476 138.005 179.464 138.565 180.452 138.565C181.378 138.565 181.995 138.13 182.304 137.694V138.503H183.045V135.203C183.045 134.518 182.86 134.02 182.489 133.647C182.119 133.273 181.563 133.086 180.822 133.086ZM182.304 136.511C182.304 137.32 181.501 137.943 180.575 137.943C179.896 137.943 179.279 137.569 179.279 136.884C179.279 136.262 179.834 135.826 180.822 135.826C181.44 135.826 181.934 135.95 182.366 136.075V136.511H182.304Z" fill="white"/>
<path d="M185.453 133.149H184.712V138.441H185.453V136.137H188.478V138.441H189.281V133.149H188.478V135.452H185.453V133.149Z" fill="white"/>
<path d="M191.751 138.441L194.838 134.269V138.441H195.641V133.149H194.9L191.751 137.32V133.149H191.01V138.441H191.751Z" fill="white"/>
<path d="M199.53 133.086C198.11 133.086 196.999 134.331 196.999 135.826C196.999 137.445 198.172 138.565 199.592 138.565C200.58 138.565 201.197 138.192 201.753 137.569L201.259 137.133C200.827 137.569 200.333 137.881 199.592 137.881C198.666 137.881 197.863 137.258 197.74 136.137H201.877C201.877 136.013 201.877 135.95 201.877 135.888C202 134.331 201.074 133.086 199.53 133.086ZM197.863 135.514C197.987 134.518 198.666 133.771 199.53 133.771C200.58 133.771 201.136 134.581 201.197 135.514H197.863Z" fill="white"/>
<path d="M69.4998 107.184C67.277 107.184 65.0543 107.745 63.1403 108.865C61.2263 107.745 59.0035 107.122 56.7808 107.122C49.7421 107.122 44 112.913 44 120.011C44 127.109 49.7421 132.9 56.7808 132.9C59.0035 132.9 61.2263 132.277 63.1403 131.156C65.0543 132.277 67.277 132.837 69.4998 132.837C76.5385 132.837 82.2806 127.047 82.2806 119.949C82.2806 112.913 76.5385 107.184 69.4998 107.184ZM52.7675 120.011C52.5823 120.571 52.5205 121.132 52.5205 121.692C52.5205 124.743 54.9902 127.234 58.0156 127.234C59.9914 127.234 61.7819 126.175 62.7698 124.494L62.8316 124.432C62.8933 124.307 62.955 124.183 63.0168 124.058L66.3509 117.52L66.4126 117.396C66.7831 116.711 67.4623 116.275 68.2649 116.275C69.3763 116.275 70.3025 117.209 70.3025 118.33V118.454C70.3025 119.326 69.8703 121.194 67.0918 123.996C63.5725 127.607 60.3001 128.728 60.3001 128.79C59.1887 129.288 57.9539 129.475 56.719 129.475C51.5326 129.475 47.3341 125.241 47.3341 120.011C47.3341 114.781 51.5326 110.547 56.719 110.547C57.7069 110.547 58.6331 110.671 59.5592 110.982C56.0399 113.847 53.7554 116.898 52.7675 120.011ZM73.4513 120.073C73.6366 119.513 73.6983 118.952 73.6983 118.33C73.6983 115.279 71.2286 112.788 68.2032 112.788C66.2892 112.788 64.4369 113.847 63.449 115.528L63.3873 115.715C63.3255 115.777 63.2638 115.901 63.2638 115.964L59.8062 122.75C59.4357 123.435 58.7565 123.809 58.0156 123.809C56.9043 123.809 55.9781 122.875 55.9781 121.754V121.692C55.9781 120.82 56.472 118.952 59.1887 116.088C62.7081 112.477 65.9187 111.418 65.9805 111.418C67.1536 110.92 68.3267 110.671 69.6233 110.671C74.8097 110.671 79.0082 114.905 79.0082 120.135C79.0082 125.366 74.8097 129.6 69.6233 129.6C68.6354 129.6 67.6475 129.475 66.7214 129.164C70.2407 126.237 72.5252 123.249 73.4513 120.073Z" fill="white"/>
</svg>
