<svg width="246" height="246" viewBox="0 0 246 246" fill="none" xmlns="http://www.w3.org/2000/svg">
<path d="M149.369 129.778C151.162 128.465 153.679 128.485 155.634 129.429C155.629 130.142 155.629 130.854 155.629 131.561C153.805 130.466 151.334 130.386 150.234 132.514C149.512 133.908 149.551 135.687 150.622 136.929C151.9 138.333 153.942 137.662 155.498 137.222C155.705 137.808 155.917 138.394 156.135 138.975C153.957 140.02 151.198 140.333 149.106 138.925C146.261 136.748 146.448 131.808 149.369 129.778ZM134.967 128.919C135.796 128.919 136.62 128.919 137.449 128.919C137.454 131.283 137.423 133.652 137.459 136.015C139.136 133.682 140.677 131.248 142.36 128.919C143.184 128.919 144.007 128.919 144.831 128.919C144.836 132.48 144.816 136.035 144.846 139.591C143.972 139.601 143.103 139.601 142.234 139.601C142.229 137.333 142.234 135.061 142.375 132.798C140.617 134.985 139.141 137.379 137.484 139.642C136.645 139.627 135.806 139.621 134.967 139.616C134.973 136.051 134.967 132.485 134.967 128.919ZM126.483 135.207C126.393 136.04 126.418 136.879 126.413 137.717C127.362 137.782 130.889 138.173 130.142 136.167C129.606 134.743 127.686 135.056 126.483 135.207ZM126.438 130.869C126.433 131.712 126.433 132.55 126.438 133.394C127.313 133.421 128.214 133.473 129.066 133.269C130.404 132.948 129.985 131.444 129.236 131.058C128.454 130.655 127.298 131.008 126.438 130.869ZM123.785 128.924C126.562 129.075 130.137 128.206 132.165 130.57C132.989 131.529 132.32 133.578 130.955 134.182C131.774 134.743 132.704 135.384 132.764 136.485C132.81 138.116 131.405 139.369 129.854 139.52C127.833 139.697 125.806 139.596 123.785 139.616C123.785 136.051 123.785 132.485 123.785 128.924ZM114.493 130.93C114.452 133.137 114.498 135.339 114.447 137.54C115.781 137.813 117.519 137.904 118.383 136.621C119.429 134.985 119.268 132.288 117.439 131.263C116.564 130.707 115.463 130.99 114.493 130.93ZM111.84 129.414C113.977 128.692 116.367 128.485 118.54 129.157C121.526 130.242 122.476 134.177 121.153 136.859C120.182 139.485 116.999 140.227 114.503 139.758C114.462 141.5 114.467 143.243 114.472 144.99C113.588 144.99 112.709 144.995 111.83 145C111.845 139.808 111.83 134.611 111.84 129.414ZM102.674 133.146C104.19 133.197 105.711 133.197 107.226 133.111C107.12 131.814 106.059 130.419 104.589 130.727C103.351 130.844 102.926 132.126 102.674 133.146ZM103.224 128.99C104.892 128.53 106.852 128.697 108.166 129.914C109.435 131.253 109.707 133.167 109.632 134.934C107.317 134.945 105.008 134.909 102.694 134.975C102.992 135.879 103.164 137.015 104.164 137.419C105.544 138.278 107.196 137.758 108.576 137.182C108.838 137.763 109.106 138.344 109.374 138.929C107.363 139.924 104.897 140.278 102.81 139.313C99.0203 137.293 99.2729 130.682 103.224 128.99ZM89.8693 125.793C92.3301 124.344 95.4023 124.455 98.035 125.343C98.0299 126.147 98.035 126.95 98.04 127.758C96.2512 126.985 94.1694 126.399 92.2947 127.237C88.2422 128.798 88.1411 135.561 92.0977 137.288C93.9925 138.045 96.1199 137.606 97.8884 136.712C98.131 137.369 98.3735 138.025 98.6262 138.682C95.9026 140.126 92.3958 140.369 89.6469 138.874C85.1194 136.096 85.3669 128.48 89.8693 125.793ZM199.404 107.596C201.056 105.44 204.249 105.111 206.599 106.217C206.604 106.955 206.624 107.687 206.655 108.424C205.139 107.5 202.86 107.227 201.627 108.753C200.141 110.475 200.626 114.147 203.203 114.53C204.34 114.773 205.457 114.364 206.513 113.975C206.741 114.561 206.983 115.141 207.231 115.717C205.472 116.596 203.385 117.278 201.491 116.384C197.938 115.268 197.104 110.253 199.404 107.596ZM186.427 105.854C187.271 105.849 188.125 105.838 188.979 105.828C188.974 107.121 188.974 108.409 188.994 109.702C190.399 109.747 191.809 109.758 193.219 109.738C193.284 108.445 193.289 107.152 193.305 105.859C194.219 105.854 195.129 105.849 196.043 105.843C196.043 109.404 196.043 112.965 196.043 116.525C195.129 116.515 194.219 116.5 193.31 116.48C193.279 114.985 193.284 113.49 193.269 111.99C191.849 111.975 190.429 111.98 189.015 111.985C188.969 113.495 188.974 115.005 188.974 116.51C188.12 116.51 187.271 116.51 186.422 116.51C186.417 112.96 186.412 109.404 186.427 105.854ZM177.938 111.828C176.963 112.318 177.089 114.086 178.09 114.495C179.08 115.131 180.172 114.318 181.071 113.889C181.051 113.096 181.041 112.303 181.031 111.515C180 111.571 178.909 111.404 177.938 111.828ZM175.291 106.626C176.938 105.556 178.974 105.52 180.864 105.717C182.319 105.929 183.552 107.232 183.573 108.722C183.805 111.308 183.466 113.919 183.84 116.5C183.32 116.505 182.269 116.515 181.748 116.52C181.597 116.298 181.299 115.849 181.147 115.621C180.325 116.123 179.376 116.657 178.408 116.779C177.4 116.906 176.092 116.406 175.422 115.642C174.163 114.205 174.258 111.535 176.084 110.601C177.605 109.677 179.409 109.738 181.122 109.783C181.263 106.869 177.726 107.46 175.953 108.248C175.72 107.712 175.503 107.172 175.291 106.626ZM165.791 107.717C165.695 109.94 165.735 112.162 165.73 114.389C166.822 114.394 168.06 114.753 169.005 114.02C170.647 112.752 170.667 110.121 169.439 108.571C168.479 107.576 167.049 107.692 165.791 107.717ZM163.133 106.202C165.316 105.581 167.767 105.288 169.934 106.081C173.857 107.658 173.846 113.997 170.37 115.988C168.901 116.83 167.367 116.886 165.725 116.601C165.735 118.369 165.73 120.131 165.735 121.899C164.866 121.884 164.002 121.879 163.138 121.884C163.194 116.657 163.199 111.43 163.133 106.202ZM141.799 110.071C143.174 110.056 144.548 110.111 145.917 109.995C146.448 108.702 144.786 107.192 143.482 107.667C142.304 107.788 141.895 109.071 141.799 110.071ZM139.828 108.177C141.056 105.046 145.998 104.687 147.787 107.465C148.59 108.732 148.555 110.298 148.793 111.737C146.453 111.798 144.113 111.743 141.774 111.783C141.951 112.803 142.35 113.94 143.401 114.359C144.735 115.106 146.251 114.46 147.58 114.051C147.868 114.627 148.156 115.202 148.444 115.783C146.675 116.53 144.664 117.263 142.785 116.46C139.283 115.606 138.459 111.071 139.828 108.177ZM128.308 105.843C131.531 105.849 134.76 105.854 137.989 105.843C137.757 106.576 137.529 107.308 137.302 108.041C136.261 108.035 135.22 108.03 134.184 108.03C134.088 110.859 134.149 113.687 134.144 116.515C133.26 116.515 132.38 116.52 131.501 116.525C131.542 113.697 131.531 110.869 131.511 108.041C130.44 108.035 129.374 108.035 128.308 108.035C128.303 107.303 128.303 106.576 128.308 105.843ZM105.513 108.172C104.904 108.746 104.724 109.724 104.68 110.02C106.17 110.071 107.666 110.071 109.157 110.015C109.146 109.219 108.895 108.031 108.121 107.652C107.334 107.266 106.145 107.379 105.513 108.172ZM105.326 105.823C106.933 105.445 108.879 105.465 110.132 106.707C111.461 108.02 111.764 109.98 111.703 111.768C109.384 111.768 107.06 111.752 104.74 111.783C104.922 112.965 105.564 114.192 106.802 114.536C108.096 114.995 109.419 114.475 110.602 113.945C110.824 114.566 111.218 115.162 111.193 115.854C109.45 116.748 107.333 117.177 105.473 116.374C101.021 114.909 100.971 107.445 105.326 105.823ZM150.041 101.657C153.921 101.763 157.802 101.591 161.678 101.758C161.501 102.253 161.137 103.242 160.955 103.738C159.611 103.798 158.267 103.793 156.923 103.798C156.877 108.041 156.898 112.283 156.913 116.525C156.034 116.52 155.154 116.52 154.28 116.52C154.26 112.278 154.316 108.035 154.25 103.793C152.84 103.788 151.435 103.788 150.031 103.803C150.036 103.086 150.036 102.369 150.041 101.657ZM86.9233 101.632C87.7571 101.652 88.5959 101.672 89.4347 101.682C89.4751 103.687 89.465 105.697 89.46 107.707C91.9056 107.707 94.3513 107.707 96.797 107.707C96.797 105.697 96.802 103.692 96.7869 101.687C97.6964 101.687 98.6161 101.687 99.5307 101.687C99.5307 106.636 99.5307 111.581 99.5307 116.525C98.6211 116.51 97.7065 116.5 96.802 116.48C96.7869 114.323 96.802 112.172 96.7919 110.015C94.3463 109.99 91.9006 109.965 89.4549 110.046C89.46 112.202 89.465 114.354 89.4549 116.51C88.5959 116.51 87.7419 116.51 86.888 116.51C86.8981 111.551 86.8323 106.591 86.9233 101.632ZM121.385 107.556C121.243 109.929 121.259 112.313 121.355 114.687C123.406 114.253 125.008 111.955 124.058 109.929C123.669 108.682 122.512 108.02 121.385 107.556ZM115.963 111.258C115.877 113.005 117.297 114.192 118.813 114.697C118.904 112.323 118.889 109.94 118.828 107.566C117.231 108.096 115.741 109.414 115.963 111.258ZM118.848 101C119.662 101.01 120.475 101.01 121.294 101.01C121.294 102.505 121.294 104 121.294 105.495C122.815 105.864 124.467 106.258 125.533 107.495C127.302 109.652 127.287 113.268 125.134 115.167C124.093 116.177 122.618 116.465 121.284 116.884C121.294 118.54 121.294 120.202 121.294 121.859C120.486 121.859 119.677 121.859 118.869 121.859C118.869 120.192 118.869 118.525 118.869 116.859C117.595 116.455 116.221 116.157 115.17 115.278C112.79 113.146 112.8 108.823 115.397 106.864C116.357 106.036 117.661 105.849 118.848 105.53C118.879 104.02 118.874 102.51 118.848 101Z" fill="white"/>
<path d="M52.1234 103.207C53.4978 102.384 54.8621 101.182 56.5649 101.283C58.9551 101.268 61.3452 101.354 63.7302 101.207C58.6568 105.232 55.3068 111.389 54.8771 117.864C54.3921 123.914 56.5397 130.056 60.4607 134.657C62.6791 137.389 65.7413 139.212 68.768 140.919C60.0112 140.692 51.2389 140.753 42.4771 140.879C39.4808 135.424 38.5914 128.924 39.5463 122.808C40.7843 114.909 45.4179 107.591 52.1234 103.207Z" fill="white"/>
<path d="M65.4885 101.328C69.5613 101.283 73.634 101.328 77.7117 101.298C77.641 114.505 77.8179 127.712 77.6209 140.914C71.077 139.616 65.0286 135.682 61.6986 129.833C56.1655 120.955 57.8735 108.475 65.4885 101.328Z" fill="white"/>
<path d="M38.0758 101.288C42.5477 101.303 47.0246 101.354 51.4967 101.258C45.6301 104.323 40.7034 109.323 38 115.394C38.197 110.697 38.0758 105.99 38.0758 101.288Z" fill="white"/>
</svg>
