<svg width="246" height="246" viewBox="0 0 246 246" fill="none" xmlns="http://www.w3.org/2000/svg">
<g clip-path="url(#clip0_4052_192)">
<path d="M76.3662 124.723H82.7181C83.6119 124.691 84.5056 124.723 85.3993 124.821C87.3783 125.081 89.4212 125.991 89.4212 128.462C89.4212 130.543 88.2082 131.486 86.7719 131.811V131.941C88.8466 132.299 90.0595 133.437 90.0595 135.681C90.0595 139.355 86.6123 140.363 83.8353 140.493C83.165 140.525 82.2713 140.525 81.6967 140.525H76.3662V124.723ZM80.8349 137.501H82.6543C84.1864 137.501 85.6866 137.046 85.6866 135.518C85.6866 134.12 84.5375 133.6 82.4309 133.6H80.8349V137.501ZM80.8987 130.836H82.2393C84.0907 130.836 85.1759 130.478 85.1759 129.243C85.1759 128.267 84.5056 127.714 82.6862 127.714H80.8668V130.836H80.8987Z" fill="white"/>
<path d="M54.3737 140.818C47.6388 140.818 44 135.875 44 129.698C44 123.455 48.3091 118.317 55.3632 118.317C57.2465 118.317 58.8743 118.577 60.2788 119.325V123.357C58.8424 122.447 57.2145 121.992 55.5228 122.024C50.7349 122.024 48.8517 125.633 48.8517 129.405C48.8517 133.632 51.1818 136.981 55.076 136.981C56.7677 136.981 58.3956 136.526 59.8638 135.68L61.0448 138.867C59.0659 140.135 56.7358 140.85 54.3737 140.818ZM130.15 140.818C125.171 140.818 122.617 137.111 122.617 132.656C122.617 127.682 126 124.398 130.501 124.398C132.48 124.398 133.533 124.788 134.363 125.308V128.885C133.438 128.137 132.32 127.747 131.139 127.779C128.586 127.779 127.022 129.698 127.022 132.429C127.022 134.9 128.235 137.306 131.076 137.306C132.129 137.241 133.15 136.916 134.076 136.396L135.129 139.289C133.629 140.232 131.905 140.753 130.15 140.818ZM143.907 128.267V140.492H139.47V128.267H135.161V124.69H148.727L147.61 128.267H143.907ZM165.133 126.576C165.133 132.071 164.91 134.965 163.92 136.265C163.41 136.916 162.676 137.371 161.878 137.501L163.122 140.85C164.495 140.785 165.772 140.232 166.761 139.289C168.166 137.891 168.644 136.103 168.836 134.217C169.027 132.526 169.155 130.803 169.155 129.08V128.299H172.602V140.525H177.007V124.723H165.101V126.576H165.133ZM64.939 133.827C65.0348 135.94 66.9818 137.273 69.0566 137.273C70.5568 137.273 71.7059 136.981 73.4614 136.135L74.4509 138.997C72.6315 140.2 70.4929 140.818 68.3543 140.818C62.8323 140.818 60.5661 136.818 60.5661 132.656C60.5661 128.234 63.1834 124.398 67.8117 124.398C72.057 124.398 74.9935 127.584 74.9935 132.461V133.827H64.939ZM67.6521 127.682C65.8646 127.682 64.8432 129.307 64.8432 130.738H70.4291C70.3653 129.242 69.5354 127.682 67.6521 127.682ZM95.3899 133.827C95.4857 135.94 97.4327 137.273 99.5075 137.273C101.008 137.273 102.157 136.981 103.912 136.135L104.902 138.997C103.082 140.2 100.944 140.818 98.8053 140.818C93.2832 140.818 91.017 136.818 91.017 132.656C91.017 128.234 93.6343 124.398 98.2626 124.398C102.508 124.398 105.444 127.584 105.444 132.461V133.827H95.3899ZM98.103 127.682C96.3156 127.682 95.2941 129.307 95.2941 130.738H100.848C100.784 129.242 99.9543 127.682 98.103 127.682ZM157.217 139.094C156.068 140.232 154.536 140.85 152.94 140.818C150.004 140.818 147.801 138.802 147.801 135.68C147.801 132.331 150.451 130.608 154.377 130.51L156.994 130.413V130.088C156.994 128.429 155.685 127.779 154.121 127.779C152.749 127.779 151.376 128.137 150.195 128.885L148.855 126.121C150.961 124.723 153.004 124.398 155.111 124.398C159.196 124.398 161.367 126.056 161.367 130.218V140.492H157.92L157.217 139.094ZM155.015 133.437C153.1 133.502 152.206 134.152 152.206 135.355C152.206 136.526 153.036 137.338 154.536 137.338C155.398 137.371 156.228 137.111 156.93 136.623V133.404L155.015 133.437ZM111.222 140.167V146.833L106.817 148.198V124.723H110.52L110.998 126.153C112.147 125.243 113.456 124.398 115.18 124.398C118.723 124.398 121.532 127.161 121.532 132.136C121.532 136.818 118.787 140.785 114.19 140.785C113.169 140.85 112.147 140.622 111.222 140.167ZM111.222 129.47V136.948C111.764 137.371 112.435 137.566 113.137 137.566C116.137 137.566 117.127 134.77 117.127 132.104C117.127 128.852 116.074 127.714 114.318 127.714C113.137 127.714 111.733 128.69 111.222 129.47Z" fill="white"/>
<path d="M183.295 129.861V124.041L178.858 125.407V140.493H184.508C188.626 140.493 192.456 139.355 192.456 135.031C192.456 131.357 189.36 129.829 185.561 129.829L183.295 129.861ZM183.295 137.405V132.983H184.763C186.327 132.983 188.051 133.243 188.051 135.096C188.051 136.982 186.583 137.372 184.827 137.372L183.295 137.405Z" fill="white"/>
<path d="M193.944 98.1567C194.184 98.2734 194.424 98.437 194.615 98.603H194.616C195.251 99.1907 195.562 100.187 195.688 101.245L195.688 101.252C195.802 102.005 195.835 102.787 195.816 103.55C194.397 103.647 192.979 103.878 191.58 104.247L190.954 104.42C189.278 104.88 187.665 105.505 186.115 106.327H186.114C185.367 106.724 184.653 107.188 183.972 107.716H183.971C183.129 108.376 182.303 109.268 182.093 110.268V110.271C182.079 110.339 182.07 110.406 182.062 110.471C181.523 109.659 181.041 108.795 180.618 107.909H180.619C180.384 107.382 180.184 106.831 180.073 106.305C179.962 105.777 179.944 105.294 180.057 104.892C180.288 104.067 181.09 103.232 182.007 102.555C183.014 101.817 184.053 101.209 185.186 100.696L185.185 100.695C186.61 100.082 188.1 99.5343 189.465 99.0815C190.924 98.6387 192.417 98.3505 193.944 98.1567Z" fill="white" stroke="#A4E9FF" stroke-width="0.5"/>
<path d="M194.867 98.1143C195.845 98.0445 196.822 98.0379 197.798 98.1143V98.1152C198.934 98.2117 200.007 98.4989 200.645 99.1182C201.2 99.6583 201.51 100.562 201.642 101.554L201.688 101.983C201.782 103.206 201.781 104.459 201.655 105.71C201.341 108.849 200.589 111.924 199.401 114.84C199.178 115.003 198.936 115.138 198.698 115.219C197.896 115.481 196.917 115.255 195.938 114.837H195.938C195.249 114.545 194.563 114.199 193.926 113.803C194.653 112.286 195.234 110.682 195.636 109.046L195.635 109.045C196.086 107.338 196.345 105.598 196.409 103.825V103.816C196.409 102.933 196.377 102.077 196.28 101.22L196.278 101.211C196.128 100.201 195.831 99.0969 195.186 98.4014L195.049 98.2646L194.867 98.1143Z" fill="white" stroke="#A4E9FF" stroke-width="0.5"/>
<path d="M186.217 106.878C187.152 108.279 188.206 109.563 189.409 110.727C190.633 111.973 191.986 113.088 193.436 114.04L193.438 114.041C194.154 114.505 194.933 114.902 195.709 115.231C196.709 115.658 197.87 115.953 198.824 115.629C198.895 115.605 198.965 115.575 199.034 115.545C198.62 116.44 198.131 117.296 197.58 118.111C197.251 118.591 196.887 119.047 196.498 119.412C196.108 119.779 195.703 120.043 195.293 120.158C194.459 120.393 193.35 120.103 192.306 119.619H192.305C191.368 119.17 190.455 118.647 189.544 118.028L189.153 117.757C187.887 116.822 186.718 115.823 185.612 114.696L185.609 114.694L185.199 114.278C184.267 113.315 183.405 112.279 182.613 111.172C182.59 110.892 182.593 110.643 182.646 110.371C182.819 109.551 183.524 108.753 184.342 108.111C184.941 107.647 185.567 107.237 186.217 106.878Z" fill="white" stroke="#A4E9FF" stroke-width="0.5"/>
</g>
<defs>
<clipPath id="clip0_4052_192">
<rect width="158" height="60" fill="white" transform="translate(44 93)"/>
</clipPath>
</defs>
</svg>
