<svg width="246" height="246" viewBox="0 0 246 246" fill="none" xmlns="http://www.w3.org/2000/svg">
<g clip-path="url(#clip0_4052_201)">
<path d="M113.951 126.761H103.536V129.116L103.861 129.082L103.869 129.044C103.938 128.695 104.565 128.028 105.338 128.028H107.665C107.665 128.134 107.665 140.114 107.665 140.114H109.937C109.937 140.114 109.924 128.147 109.924 128.036H112.303C113.089 128.036 113.605 128.465 113.691 128.869L113.699 128.912L114.028 128.903L114.007 126.761H113.951Z" fill="white"/>
<path d="M46.37 125.953C44.8626 127.513 44 129.651 44 131.819C44 134.234 44.9779 136.428 46.7543 138C48.4539 139.501 50.7214 140.33 53.1469 140.33C54.4152 140.33 56.909 140.113 59.3089 138.676L59.4029 138.621L59.689 135.22L59.2406 135.165L59.1723 135.305C57.4086 138.978 54.6287 138.978 53.5868 138.978C48.9023 138.978 46.7671 135.11 46.7671 131.517C46.7671 127.925 48.8809 124.533 53.5996 124.533C55.0472 124.533 57.6819 125.005 59.0484 128.155L59.1253 128.329L59.5651 128.193L59.279 124.647L59.1637 124.596C56.9645 123.64 55.1881 123.215 53.4117 123.215C50.5378 123.215 48.1037 124.163 46.37 125.953Z" fill="white"/>
<path d="M61.9305 126.76H61.875V127.07L61.9092 127.083C62.1013 127.185 62.3106 127.7 62.3106 128.274V140.113H64.5396C64.5396 140.113 64.5311 134.14 64.5311 134.03C64.6293 134.03 65.509 134.055 65.509 134.055C66.3844 134.102 66.7303 134.68 67.1701 135.416L67.2256 135.505L67.5075 135.977C67.9858 136.776 68.6391 137.877 69.3181 138.88C69.8049 139.603 70.4155 140.015 71.1799 140.147C71.7265 140.241 72.8154 140.207 73.2254 140.079L73.7165 139.952L73.9044 139.905L73.2254 139.696C72.9521 139.611 72.5208 139.424 71.9443 138.761C71.5856 138.349 71.0048 137.426 70.1294 136.032L69.2583 134.655L69.2412 134.629C69.0106 134.289 68.6178 133.741 67.9644 133.392C69.2199 132.984 70.454 131.845 70.454 130.144C70.454 129.664 70.3301 128.737 69.4974 127.955C68.6562 127.16 67.3452 126.756 65.5987 126.756H61.9305V126.76ZM65.7481 127.963C68.037 128.061 68.1011 129.987 68.1011 130.204C68.1011 132.142 66.662 132.831 65.4321 132.831C65.4321 132.831 64.6293 132.814 64.5354 132.814V127.984C64.7702 127.967 65.1973 127.942 65.7439 127.963H65.7481Z" fill="white"/>
<path d="M84.7639 126.761H84.7041L84.7468 127.092L84.7724 127.105C84.9689 127.203 85.1525 127.679 85.1525 128.091L85.1397 140.118H88.9658C91.4896 140.118 93.582 139.336 95.0083 137.856C96.1954 136.628 96.8744 134.94 96.8744 133.231C96.8744 132.198 96.5242 130.638 95.542 129.354C94.2225 127.632 92.1344 126.761 89.3288 126.761H84.7724H84.7639ZM87.4072 128.04C87.5097 128.04 88.6029 128.04 88.6029 128.04C88.9231 128.045 89.7259 128.066 90.2896 128.151C94.0475 128.716 94.4531 131.888 94.4531 133.227C94.4531 134.324 94.2567 135.88 93.3215 137.087C92.4034 138.269 90.9686 138.868 89.0512 138.868C88.5943 138.868 88.0264 138.868 87.4029 138.838C87.4029 138.736 87.4029 128.147 87.4029 128.036L87.4072 128.04Z" fill="white"/>
<path d="M101.486 126.761H98.8643L98.8728 127.084L98.9027 127.101C99.1461 127.22 99.2998 127.653 99.2998 128.206V140.118H101.537V126.765H101.486V126.761Z" fill="white"/>
<path d="M146.559 126.761H143.92L143.946 127.063L143.971 127.075C144.21 127.194 144.368 127.649 144.368 128.206V140.118H146.606V126.765H146.555L146.559 126.761Z" fill="white"/>
<path d="M81.8687 126.76H74.3701L74.4128 127.075L74.4384 127.087C74.6434 127.189 74.8569 127.661 74.8569 128.274V140.113H82.347L82.8893 137.745L82.5861 137.639L82.5007 137.771C81.8815 138.74 81.2538 138.867 79.0802 138.867C78.3073 138.884 77.5515 138.816 77.0775 138.774V133.324H80.8652V132.121C80.8652 132.121 77.18 132.121 77.0775 132.121V127.967C77.1842 127.967 80.1478 128.001 80.1478 128.001C80.8396 128.001 81.5997 128.66 81.668 129.06L81.6765 129.107L81.984 129.098L81.9242 126.756H81.8687V126.76Z" fill="white"/>
<path d="M177.744 126.76H170.271L170.289 127.1L170.318 127.113C170.519 127.215 170.733 127.653 170.733 128.269V140.109H178.223L178.769 137.741L178.432 137.635L178.347 137.766C177.727 138.736 177.104 138.863 174.96 138.863C174.187 138.88 173.431 138.812 172.957 138.77V133.32H176.745V132.117C176.745 132.117 173.06 132.117 172.957 132.117V127.963C173.064 127.963 176.028 127.997 176.028 127.997C176.878 127.997 177.514 128.639 177.514 129.056V129.115L177.864 129.094L177.804 126.756H177.749L177.744 126.76Z" fill="white"/>
<path d="M120.467 124.26C119.677 124.826 118.734 125.863 118.717 127.606V127.657C118.717 129.8 120.087 130.926 122.299 132.04C122.299 132.04 122.295 132.027 122.291 132.019C122.346 132.065 122.539 132.163 123.141 132.469C124.985 133.392 126.318 134.059 126.318 135.934C126.318 136.576 126.074 137.507 125.391 138.179C124.823 138.74 124.055 139.02 123.115 139.012C120.297 138.982 119.302 136.525 119.003 135.466L118.952 135.284L118.478 135.36L118.61 138.85L118.712 138.91C119.613 139.433 121.117 140.3 123.269 140.321C124.793 140.338 126.343 139.718 127.411 138.668C128.346 137.745 128.841 136.576 128.841 135.284C128.841 132.452 126.805 131.39 124.644 130.263L124.238 130.05C122.026 128.945 120.984 128.273 121.001 126.883C121.01 125.94 121.723 124.452 123.598 124.469C125.775 124.49 126.975 126.122 127.223 127.143L127.266 127.33L127.735 127.27L127.577 124.248L127.492 124.188C126.202 123.321 124.584 123.215 123.948 123.21C122.688 123.198 121.42 123.58 120.472 124.256L120.467 124.26Z" fill="white"/>
<path d="M150.171 130.136C150.154 131.985 151.269 132.925 153.075 133.835C153.075 133.835 153.754 134.179 153.758 134.179C155.18 134.889 156.124 135.361 156.124 136.691C156.124 136.925 156.077 137.729 155.454 138.341C155.022 138.766 154.424 138.974 153.681 138.97C151.546 138.949 150.765 137.295 150.487 136.313L150.436 136.13L149.983 136.207L150.09 139.021L150.193 139.081C150.906 139.493 152.093 140.182 153.805 140.199C155.018 140.211 156.248 139.718 157.098 138.881C157.845 138.145 158.238 137.214 158.238 136.185C158.238 133.847 156.611 133.001 154.894 132.1L154.591 131.943C152.742 131.02 152.097 130.604 152.11 129.575C152.119 128.852 152.661 127.781 154.13 127.794C155.928 127.811 156.713 129.107 156.876 129.787L156.918 129.975L157.371 129.915L157.243 127.471L157.153 127.411C156.128 126.722 154.843 126.637 154.339 126.633C152.336 126.612 150.201 127.832 150.176 130.136H150.171Z" fill="white"/>
<path d="M160.216 130.135C160.199 131.985 161.313 132.924 163.119 133.838L163.798 134.182C165.22 134.892 166.164 135.364 166.164 136.695C166.164 136.929 166.117 137.732 165.494 138.344C165.062 138.77 164.465 138.978 163.721 138.974C161.591 138.952 160.805 137.299 160.527 136.317L160.476 136.134L160.023 136.21L160.13 139.025L160.233 139.084C160.946 139.496 162.133 140.185 163.845 140.202C165.058 140.215 166.288 139.722 167.138 138.884C167.885 138.149 168.278 137.218 168.278 136.189C168.278 133.851 166.655 133.005 164.934 132.104L164.631 131.946C162.782 131.024 162.137 130.607 162.15 129.578C162.154 129.124 162.355 128.656 162.692 128.329C163.055 127.976 163.568 127.793 164.174 127.797C165.972 127.814 166.758 129.111 166.92 129.795L166.967 129.982L167.42 129.923L167.291 127.478L167.202 127.419C166.177 126.73 164.892 126.645 164.388 126.641C162.385 126.62 160.245 127.84 160.224 130.144L160.216 130.135Z" fill="white"/>
<path d="M140.995 126.747L139.231 126.76L139.261 127.062L139.287 127.074C139.376 127.117 139.667 127.329 139.667 128.171L139.675 135.764C139.675 137.235 139.133 138.986 136.554 138.986C134.115 138.986 133.616 137.537 133.616 135.356V126.76H130.827L130.849 127.057L130.874 127.07C131.053 127.164 131.352 127.517 131.352 128.239V135.356C131.352 139.777 134.269 140.287 136.468 140.287C137.54 140.287 141.037 139.964 141.037 135.798L141.046 126.751H140.99L140.995 126.747Z" fill="white"/>
<path d="M196.995 122.947C198.571 123.453 200.245 124.158 202 125.136C197.691 118.049 189.984 110.333 182.421 105.334C184.372 107.256 187.532 111.485 188.357 116.021C191.457 118.219 194.378 120.557 196.995 122.951V122.947Z" fill="white"/>
<path d="M196.991 122.942C193.293 121.76 190.145 121.701 187.805 121.939C188.629 120.017 188.711 117.994 188.356 116.025C182.634 111.966 176.327 108.378 170.259 105.818C174.708 108.82 179.615 117.471 181.673 126.755C186.059 125.463 192.814 124.57 201.526 127.487C200.155 125.965 198.63 124.443 196.986 122.942H196.991Z" fill="white"/>
</g>
<defs>
<clipPath id="clip0_4052_201">
<rect width="158" height="60" fill="white" transform="translate(44 93)"/>
</clipPath>
</defs>
</svg>
