<svg width="246" height="246" viewBox="0 0 246 246" fill="none" xmlns="http://www.w3.org/2000/svg">
<g clip-path="url(#clip0_4001_322)">
<path d="M76.3295 106.337C78.7659 106.337 80.7552 107.397 81.5909 108.189L80.1902 109.889C79.5075 109.295 78.0008 108.457 76.3059 108.457C73.2456 108.457 71.327 110.541 71.327 113.394C71.327 116.247 73.1397 118.331 76.3412 118.331C78.1893 118.331 79.79 117.365 80.4962 116.689L81.8263 118.448C80.9906 119.321 78.8954 120.45 76.3295 120.45C71.8214 120.45 69.0317 117.458 69.0317 113.394C69.0434 109.33 71.9037 106.337 76.3295 106.337Z" fill="white"/>
<path d="M90.2541 106.337C94.4327 106.337 97.4694 109.33 97.4694 113.394C97.4694 117.469 94.4327 120.45 90.2541 120.45C86.0756 120.45 83.0388 117.458 83.0388 113.394C83.0388 109.33 86.0756 106.337 90.2541 106.337ZM90.2541 118.331C93.0791 118.331 95.1743 116.223 95.1743 113.394C95.1743 110.553 93.0909 108.457 90.2541 108.457C87.4292 108.457 85.334 110.564 85.334 113.394C85.334 116.235 87.4292 118.331 90.2541 118.331Z" fill="white"/>
<path d="M111.806 116.235C111.806 118.226 110.523 120.148 107.18 120.148H99.9058V106.64H106.756C109.522 106.64 111.123 108.34 111.123 110.25C111.123 111.333 110.617 112.311 109.405 113.103C110.629 113.51 111.806 114.384 111.806 116.235ZM102.154 108.771V112.357L106.486 112.334C108.027 112.334 108.828 111.484 108.828 110.483C108.828 109.551 108.145 108.771 106.78 108.771H102.154ZM107.321 118.028C108.899 118.028 109.511 117.155 109.511 116.212C109.511 115.187 108.793 114.36 107.368 114.36H102.166V118.028H107.321Z" fill="white"/>
<path d="M120.775 113.184L126.825 120.148H123.836L118.786 114.244H116.196V120.148H113.948V106.64H116.196V112.218H118.786L123.718 106.64H126.708L120.775 113.184Z" fill="white"/>
<path d="M133.746 106.337C137.925 106.337 140.962 109.33 140.962 113.394C140.962 117.469 137.925 120.45 133.746 120.45C129.568 120.45 126.531 117.458 126.531 113.394C126.531 109.33 129.568 106.337 133.746 106.337ZM133.746 118.331C136.571 118.331 138.666 116.223 138.666 113.394C138.666 110.553 136.583 108.457 133.746 108.457C130.91 108.457 128.826 110.564 128.826 113.394C128.826 116.235 130.91 118.331 133.746 118.331Z" fill="white"/>
<path d="M156.052 106.64H158.217V120.148H155.969V110.11L151.485 116.037H150.119L145.635 110.11V120.148H143.386V106.64H145.552L150.802 113.569L156.052 106.64Z" fill="white"/>
<path d="M168.493 112.16C171.494 112.16 173.13 113.895 173.13 116.13C173.13 118.366 171.494 120.148 168.646 120.148H161.23V106.64H171.859V108.759H163.478V112.16H168.493ZM168.552 118.028C170.117 118.028 170.811 117.178 170.811 116.154C170.811 115.152 170.105 114.279 168.552 114.279H163.478V118.017H168.552V118.028Z" fill="white"/>
<path d="M185.596 120.148L184.112 116.771H177.663L176.179 120.148H173.72L179.652 106.64H182.123L188.055 120.148H185.596ZM178.533 114.745H183.23L180.888 109.365L178.533 114.745Z" fill="white"/>
<path d="M199.85 106.64H202.098V120.148H199.85V114.36H191.952V120.148H189.703V106.64H191.952V112.241H199.85V106.64Z" fill="white"/>
<path d="M211.95 113.184L218 120.148H215.01L209.961 114.244H207.371V120.148H205.123V106.64H207.371V112.218H209.961L214.892 106.64H217.882L211.95 113.184Z" fill="white"/>
<path d="M29 122.5C29 131.618 36.4743 139 45.6789 139C45.9025 139 46.1261 139 46.3498 138.988V132.735H45.6789C39.9702 132.735 35.3326 128.159 35.3326 122.5C35.3326 116.853 39.9584 112.265 45.6789 112.265H46.3498V106.012C46.1261 106 45.9025 106 45.6789 106C36.4743 106 29 113.383 29 122.5Z" fill="white"/>
<path d="M49.0218 106.326V114.908H45.6908C41.4533 114.908 38.0164 118.308 38.0164 122.5C38.0164 126.692 41.4533 130.092 45.6908 130.092H49.0218V138.674C56.6375 137.148 62.3697 130.488 62.3697 122.5C62.3697 114.512 56.6375 107.851 49.0218 106.326Z" fill="white"/>
<path d="M75.8823 125.271C78.307 125.271 80.155 126.273 80.9317 127.041L79.6135 128.613C78.9425 128.031 77.5772 127.274 75.8351 127.274C73.0573 127.274 71.2093 129.254 71.2093 131.955C71.2093 134.668 72.9867 136.636 75.8351 136.636C77.7773 136.636 79.2251 135.763 79.9077 135.099L81.1437 136.729C80.3669 137.568 78.4247 138.651 75.8704 138.651C71.7037 138.651 69.02 135.81 69.02 131.955C69.02 128.101 71.7978 125.271 75.8823 125.271Z" fill="white"/>
<path d="M93.5497 127.577H88.9239V138.371H86.7934V127.577H82.144V125.562H93.538V127.577H93.5497Z" fill="white"/>
<path d="M106.639 129.603C106.639 131.897 105.085 133.69 101.825 133.69H97.5753V138.371H95.4448V125.562H101.683C105.085 125.562 106.639 127.321 106.639 129.603ZM101.742 131.676C103.778 131.676 104.426 130.744 104.426 129.626C104.426 128.509 103.778 127.577 101.742 127.577H97.5753V131.676H101.742Z" fill="white"/>
<path d="M117.632 138.371L116.232 135.169H110.111L108.71 138.371H106.38L112.006 125.562H114.36L119.986 138.371H117.632ZM110.935 133.248H115.396L113.171 128.148L110.935 133.248Z" fill="white"/>
<path d="M133.923 138.371H131.333L127.296 133.376L123.223 138.371H120.657L125.907 131.874L120.834 125.562H123.388L127.272 130.325L131.157 125.562H133.723L128.649 131.839L133.923 138.371Z" fill="white"/>
<path d="M141.197 125.271C145.152 125.271 148.036 128.113 148.036 131.967C148.036 135.821 145.152 138.662 141.197 138.662C137.242 138.662 134.347 135.821 134.347 131.967C134.347 128.113 137.242 125.271 141.197 125.271ZM141.197 136.648C143.881 136.648 145.858 134.657 145.858 131.967C145.858 129.277 143.881 127.286 141.197 127.286C138.513 127.286 136.536 129.277 136.536 131.967C136.536 134.657 138.513 136.648 141.197 136.648Z" fill="white"/>
<path d="M161.913 134.657C161.913 136.543 160.689 138.371 157.534 138.371H150.637V125.562H157.135C159.76 125.562 161.278 127.169 161.278 128.986C161.278 130.011 160.796 130.942 159.653 131.699C160.806 132.072 161.913 132.899 161.913 134.657ZM152.756 127.577V130.977L156.934 130.954C158.382 130.954 159.077 130.15 159.077 129.196C159.077 128.322 158.394 127.565 157.064 127.565H152.756V127.577ZM157.652 136.357C159.147 136.357 159.724 135.518 159.724 134.622C159.724 133.655 159.147 132.887 157.747 132.887H152.756V136.368H157.652V136.357Z" fill="white"/>
<path d="M173.955 138.371L172.554 135.169H166.434L165.033 138.371H162.702L168.328 125.562H170.683L176.309 138.371H173.955ZM167.257 133.248H171.719L169.493 128.148L167.257 133.248Z" fill="white"/>
<path d="M187.749 125.562H189.88V138.371H187.749V132.794H180.252V138.371H178.121V125.562H180.252V130.779H187.749V125.562Z" fill="white"/>
<path d="M202.734 125.562H204.699V138.371H202.568V128.776L194.964 138.371H193.022V125.562H195.153V135.111L202.734 125.562Z" fill="white"/>
<path d="M209.96 136.357H217.823V138.371H207.831V125.562H217.635V127.577H209.96V130.907H217.023V132.922H209.96V136.357Z" fill="white"/>
</g>
<defs>
<clipPath id="clip0_4001_322">
<rect width="189" height="33" fill="white" transform="translate(29 106)"/>
</clipPath>
</defs>
</svg>
