<svg xmlns="http://www.w3.org/2000/svg" width="33" height="33" viewBox="0 0 33 33" fill="none">
    <path
        d="M15.1277 4.57192C15.5451 4.33158 16.0184 4.20508 16.5 4.20508C16.9816 4.20508 17.4549 4.33158 17.8723 4.57192L26.466 9.51917C26.8848 9.7603 27.2326 10.1075 27.4745 10.5258C27.7163 10.9442 27.8437 11.4188 27.8438 11.902V21.098C27.8437 21.5813 27.7163 22.0559 27.4745 22.4743C27.2326 22.8926 26.8848 23.2398 26.466 23.4809L17.8723 28.4282C17.4549 28.6685 16.9816 28.795 16.5 28.795C16.0184 28.795 15.5451 28.6685 15.1277 28.4282L6.534 23.4809C6.11524 23.2398 5.76742 22.8926 5.52554 22.4743C5.28367 22.0559 5.1563 21.5813 5.15625 21.098V11.902C5.1563 11.4188 5.28367 10.9442 5.52554 10.5258C5.76742 10.1075 6.11524 9.7603 6.534 9.51917L15.1277 4.57192Z"
        stroke="#002435" stroke-width="1.5" stroke-linecap="square" />
    <path
        d="M20.9688 16.5C20.9687 17.6852 20.4979 18.8218 19.6599 19.6599C18.8218 20.4979 17.6852 20.9688 16.5 20.9688C15.3148 20.9688 14.1782 20.4979 13.3401 19.6599C12.5021 18.8218 12.0313 17.6852 12.0312 16.5C12.0312 15.3148 12.5021 14.1782 13.3401 13.3401C14.1782 12.5021 15.3148 12.0313 16.5 12.0312C17.6852 12.0313 18.8218 12.5021 19.6599 13.3401C20.4979 14.1782 20.9688 15.3148 20.9688 16.5Z"
        stroke="#002435" stroke-width="1.5" stroke-linecap="square" />
</svg>