<svg xmlns="http://www.w3.org/2000/svg" width="33" height="33" viewBox="0 0 33 33" fill="none">
    <path
        d="M21.6562 8.25V9.96875C21.6562 10.3334 21.8011 10.6832 22.059 10.941C22.3168 11.1989 22.6666 11.3438 23.0312 11.3438H24.75M21.6562 8.25V6.53125C21.6562 6.16658 21.8011 5.81684 22.059 5.55898C22.3168 5.30112 22.6666 5.15625 23.0312 5.15625H26.4688C26.8334 5.15625 27.1832 5.30112 27.441 5.55898C27.6989 5.81684 27.8438 6.16658 27.8438 6.53125V9.96875C27.8438 10.3334 27.6989 10.6832 27.441 10.941C27.1832 11.1989 26.8334 11.3438 26.4688 11.3438H24.75M21.6562 8.25H11.3438M24.75 11.3438V14.0938M8.25 11.3438V21.6562M11 24.75V23.0312C11 22.6666 10.8551 22.3168 10.5973 22.059C10.3394 21.8011 9.98967 21.6562 9.625 21.6562H6.53125C6.16658 21.6562 5.81684 21.8011 5.55898 22.059C5.30112 22.3168 5.15625 22.6666 5.15625 23.0312V26.4688C5.15625 26.8334 5.30112 27.1832 5.55898 27.441C5.81684 27.6989 6.16658 27.8438 6.53125 27.8438H9.625C9.98967 27.8438 10.3394 27.6989 10.5973 27.441C10.8551 27.1832 11 26.8334 11 26.4688V24.75ZM11 24.75H14.0938M6.53125 11.3438H9.96875C10.3334 11.3438 10.6832 11.1989 10.941 10.941C11.1989 10.6832 11.3438 10.3334 11.3438 9.96875V6.53125C11.3438 6.16658 11.1989 5.81684 10.941 5.55898C10.6832 5.30112 10.3334 5.15625 9.96875 5.15625H6.53125C6.16658 5.15625 5.81684 5.30112 5.55898 5.55898C5.30112 5.81684 5.15625 6.16658 5.15625 6.53125V9.96875C5.15625 10.3334 5.30112 10.6832 5.55898 10.941C5.81684 11.1989 6.16658 11.3438 6.53125 11.3438ZM17.7595 16.8603L27.1535 19.5442C27.2923 19.5845 27.416 19.6651 27.5089 19.7758C27.6018 19.8866 27.6597 20.0224 27.6752 20.1662C27.6906 20.3099 27.663 20.4549 27.5959 20.5829C27.5287 20.7109 27.425 20.816 27.2979 20.8849L23.3214 23.0258C23.1961 23.0933 23.0933 23.1961 23.0258 23.3214L20.8849 27.2979C20.816 27.425 20.7109 27.5287 20.5829 27.5959C20.4549 27.663 20.3099 27.6906 20.1662 27.6752C20.0224 27.6597 19.8866 27.6018 19.7758 27.5089C19.6651 27.416 19.5845 27.2923 19.5442 27.1535L16.8603 17.7595C16.8251 17.6348 16.8238 17.503 16.8565 17.3777C16.8892 17.2523 16.9547 17.1379 17.0463 17.0463C17.1379 16.9547 17.2523 16.8892 17.3777 16.8565C17.503 16.8238 17.6348 16.8251 17.7595 16.8603Z"
        stroke="#002435" stroke-width="1.5" stroke-linecap="round" stroke-linejoin="round" />
</svg>