<svg xmlns="http://www.w3.org/2000/svg" width="33" height="33" viewBox="0 0 33 33" fill="none">
    <path
        d="M23.7188 25.0938H26.8125M5.15625 23.0312V7.90625C5.15625 7.1769 5.44598 6.47743 5.96171 5.96171C6.47743 5.44598 7.1769 5.15625 7.90625 5.15625H25.0938C25.8231 5.15625 26.5226 5.44598 27.0383 5.96171C27.554 6.47743 27.8438 7.1769 27.8438 7.90625V12.0312M5.15625 23.0312H2.40625V25.0938C2.40625 25.8231 2.69598 26.5226 3.21171 27.0383C3.72743 27.554 4.4269 27.8438 5.15625 27.8438H19.5938M5.15625 23.0312H19.5938M27.8438 12.0312H22.3438C21.6144 12.0312 20.9149 12.321 20.3992 12.8367C19.8835 13.3524 19.5938 14.0519 19.5938 14.7812V26.4688C19.5938 27.1981 19.8835 27.8976 20.3992 28.4133C20.9149 28.929 21.6144 29.2188 22.3438 29.2188H27.8438C28.5731 29.2188 29.2726 28.929 29.7883 28.4133C30.304 27.8976 30.5938 27.1981 30.5938 26.4688V14.7812C30.5938 14.0519 30.304 13.3524 29.7883 12.8367C29.2726 12.321 28.5731 12.0312 27.8438 12.0312Z"
        stroke="#002435" stroke-width="1.5" stroke-linecap="round" stroke-linejoin="round" />
</svg>