<svg xmlns="http://www.w3.org/2000/svg" width="33" height="33" viewBox="0 0 33 33" fill="none">
    <path fill-rule="evenodd" clip-rule="evenodd"
        d="M14.938 4.91563C12.0054 5.31816 9.33461 6.81824 7.46483 9.11309C5.59504 11.4079 4.66546 14.3267 4.86369 17.2802C5.06193 20.2337 6.37323 23.002 8.53292 25.0264C10.6926 27.0508 13.5399 28.1805 16.5 28.1875C22.4263 28.1875 27.3212 23.7779 28.0844 18.062C26.245 18.8738 24.2031 19.1104 22.2268 18.7408C20.2505 18.3711 18.4322 17.4126 17.0105 15.9909C15.5888 14.5692 14.6302 12.7509 14.2606 10.7746C13.891 8.79827 14.1276 6.7564 14.9394 4.917L14.938 4.91563ZM2.75 16.5C2.75 8.90588 8.90588 2.75 16.5 2.75C16.5935 2.75 16.687 2.75092 16.7805 2.75275C16.9678 2.75656 17.1504 2.8113 17.3089 2.9111C17.4674 3.01089 17.5958 3.15196 17.6802 3.31918C17.7645 3.48639 17.8018 3.67343 17.7879 3.86021C17.774 4.04699 17.7095 4.22647 17.6014 4.37937C16.5256 5.90217 16.0226 7.75614 16.1813 9.61382C16.3399 11.4715 17.1499 13.2134 18.4683 14.5317C19.7866 15.8501 21.5285 16.6601 23.3862 16.8187C25.2439 16.9774 27.0978 16.4744 28.6206 15.3986C28.7735 15.2905 28.953 15.226 29.1398 15.2121C29.3266 15.1982 29.5136 15.2355 29.6808 15.3198C29.848 15.4042 29.9891 15.5326 30.0889 15.6911C30.1887 15.8496 30.2434 16.0322 30.2472 16.2195L30.25 16.5C30.25 24.0941 24.0941 30.25 16.5 30.25C8.90588 30.25 2.75 24.0941 2.75 16.5Z"
        fill="#002435" />
    <path
        d="M22.3318 6.89819L23.4483 4.66656C23.5054 4.55252 23.5932 4.45663 23.7017 4.38961C23.8103 4.3226 23.9353 4.28711 24.0629 4.28711C24.1905 4.28711 24.3155 4.3226 24.4241 4.38961C24.5326 4.45663 24.6204 4.55252 24.6775 4.66656L25.794 6.89819C25.8606 7.03152 25.9687 7.13962 26.102 7.20619L28.3336 8.32269C28.4477 8.37985 28.5436 8.46761 28.6106 8.57615C28.6776 8.6847 28.7131 8.80975 28.7131 8.93731C28.7131 9.06488 28.6776 9.18993 28.6106 9.29847C28.5436 9.40702 28.4477 9.49478 28.3336 9.55194L26.102 10.6684C25.9689 10.7347 25.8608 10.8422 25.794 10.9751L24.6775 13.2067C24.6204 13.3207 24.5326 13.4166 24.4241 13.4836C24.3155 13.5507 24.1905 13.5861 24.0629 13.5861C23.9353 13.5861 23.8103 13.5507 23.7017 13.4836C23.5932 13.4166 23.5054 13.3207 23.4483 13.2067L22.3318 10.9751C22.2653 10.8425 22.1578 10.7349 22.0251 10.6684L19.7935 9.55194C19.6795 9.49478 19.5836 9.40702 19.5166 9.29847C19.4496 9.18993 19.4141 9.06488 19.4141 8.93731C19.4141 8.80975 19.4496 8.6847 19.5166 8.57615C19.5836 8.46761 19.6795 8.37985 19.7935 8.32269L22.0251 7.20619C22.158 7.13938 22.2656 7.03131 22.3318 6.89819Z"
        fill="#002435" />
</svg>