<svg xmlns="http://www.w3.org/2000/svg" width="33" height="33" viewBox="0 0 33 33" fill="none">
    <path
        d="M16.5 29.2188C19.8732 29.2187 23.1083 27.8787 25.4935 25.4935C27.8787 23.1083 29.2188 19.8732 29.2188 16.5C29.2188 13.1268 27.8787 9.89171 25.4935 7.50649C23.1083 5.12126 19.8732 3.78125 16.5 3.78125C13.1268 3.78125 9.89171 5.12126 7.50649 7.50649C5.12126 9.89171 3.78125 13.1268 3.78125 16.5C3.78125 19.8732 5.12126 23.1083 7.50649 25.4935C9.89171 27.8787 13.1268 29.2187 16.5 29.2188Z"
        stroke="#002435" stroke-width="1.5" stroke-linecap="round" stroke-linejoin="round" />
    <path d="M19.5898 22.3438C17.5273 20.2675 16.4988 18.1967 16.4961 15.4688" stroke="#002435" stroke-width="1.5"
        stroke-linecap="round" stroke-linejoin="round" />
    <path
        d="M13.4062 22.3438C15.5237 20.2923 16.5 18.1967 16.4973 15.4688M12.0312 14.7001C12.0312 14.7001 14.74 15.0645 16.5 15.0645C18.2586 15.0645 20.9688 14.7001 20.9688 14.7001M17.5312 11C17.5312 11.2735 17.4226 11.5358 17.2292 11.7292C17.0358 11.9226 16.7735 12.0312 16.5 12.0312C16.2265 12.0312 15.9642 11.9226 15.7708 11.7292C15.5774 11.5358 15.4688 11.2735 15.4688 11C15.4688 10.7265 15.5774 10.4642 15.7708 10.2708C15.9642 10.0774 16.2265 9.96875 16.5 9.96875C16.7735 9.96875 17.0358 10.0774 17.2292 10.2708C17.4226 10.4642 17.5312 10.7265 17.5312 11Z"
        stroke="#002435" stroke-width="1.5" stroke-linecap="round" stroke-linejoin="round" />
</svg>