<svg xmlns="http://www.w3.org/2000/svg" width="33" height="33" viewBox="0 0 33 33" fill="none">
    <path
        d="M12.3166 6.93489L15.5286 3.72289C15.7865 3.46512 16.1362 3.32031 16.5008 3.32031C16.8654 3.32031 17.215 3.46512 17.4729 3.72289L20.6849 6.93489C20.9427 7.19274 21.0875 7.54242 21.0875 7.90702C21.0875 8.27162 20.9427 8.62129 20.6849 8.87914L17.4729 12.0911C17.215 12.3489 16.8654 12.4937 16.5008 12.4937C16.1362 12.4937 15.7865 12.3489 15.5286 12.0911L12.3166 8.87914C12.0589 8.62129 11.9141 8.27162 11.9141 7.90702C11.9141 7.54242 12.0589 7.19274 12.3166 6.93489ZM12.3166 24.1224L15.5286 20.9104C15.7865 20.6526 16.1362 20.5078 16.5008 20.5078C16.8654 20.5078 17.215 20.6526 17.4729 20.9104L20.6849 24.1224C20.9427 24.3802 21.0875 24.7299 21.0875 25.0945C21.0875 25.4591 20.9427 25.8088 20.6849 26.0666L17.4729 29.2786C17.215 29.5364 16.8654 29.6812 16.5008 29.6812C16.1362 29.6812 15.7865 29.5364 15.5286 29.2786L12.3166 26.0666C12.0589 25.8088 11.9141 25.4591 11.9141 25.0945C11.9141 24.7299 12.0589 24.3802 12.3166 24.1224ZM3.72289 15.5286L6.93489 12.3166C7.19274 12.0589 7.54242 11.9141 7.90702 11.9141C8.27162 11.9141 8.62129 12.0589 8.87914 12.3166L12.0911 15.5286C12.3489 15.7865 12.4937 16.1362 12.4937 16.5008C12.4937 16.8654 12.3489 17.215 12.0911 17.4729L8.87914 20.6849C8.62129 20.9427 8.27162 21.0875 7.90702 21.0875C7.54242 21.0875 7.19274 20.9427 6.93489 20.6849L3.72289 17.4729C3.46512 17.215 3.32031 16.8654 3.32031 16.5008C3.32031 16.1362 3.46512 15.7865 3.72289 15.5286ZM20.9104 15.5286L24.1224 12.3166C24.3802 12.0589 24.7299 11.9141 25.0945 11.9141C25.4591 11.9141 25.8088 12.0589 26.0666 12.3166L29.2786 15.5286C29.5364 15.7865 29.6812 16.1362 29.6812 16.5008C29.6812 16.8654 29.5364 17.215 29.2786 17.4729L26.0666 20.6849C25.8088 20.9427 25.4591 21.0875 25.0945 21.0875C24.7299 21.0875 24.3802 20.9427 24.1224 20.6849L20.9104 17.4729C20.6526 17.215 20.5078 16.8654 20.5078 16.5008C20.5078 16.1362 20.6526 15.7865 20.9104 15.5286Z"
        stroke="#002435" stroke-width="1.5" stroke-linejoin="round" />
</svg>