<svg xmlns="http://www.w3.org/2000/svg" width="33" height="33" viewBox="0 0 33 33" fill="none">
    <path
        d="M15.4688 6.53125H6.53125C5.8019 6.53125 5.10243 6.82098 4.58671 7.33671C4.07098 7.85243 3.78125 8.5519 3.78125 9.28125V23.7188C3.78125 24.4481 4.07098 25.1476 4.58671 25.6633C5.10243 26.179 5.8019 26.4688 6.53125 26.4688H15.4688M15.4688 6.53125H26.4688C27.1981 6.53125 27.8976 6.82098 28.4133 7.33671C28.929 7.85243 29.2188 8.5519 29.2188 9.28125V23.7188C29.2188 24.4481 28.929 25.1476 28.4133 25.6633C27.8976 26.179 27.1981 26.4688 26.4688 26.4688H15.4688M15.4688 6.53125V26.4688"
        stroke="#002435" stroke-width="1.5" stroke-linecap="square" stroke-linejoin="round" />
    <path
        d="M8.59375 11.6875C8.59375 11.961 8.7024 12.2233 8.8958 12.4167C9.08919 12.6101 9.3515 12.7188 9.625 12.7188C9.8985 12.7188 10.1608 12.6101 10.3542 12.4167C10.5476 12.2233 10.6562 11.961 10.6562 11.6875C10.6562 11.414 10.5476 11.1517 10.3542 10.9583C10.1608 10.7649 9.8985 10.6563 9.625 10.6562C9.3515 10.6563 9.08919 10.7649 8.8958 10.9583C8.7024 11.1517 8.59375 11.414 8.59375 11.6875ZM8.59375 16.5C8.59375 16.7735 8.7024 17.0358 8.8958 17.2292C9.08919 17.4226 9.3515 17.5312 9.625 17.5312C9.8985 17.5312 10.1608 17.4226 10.3542 17.2292C10.5476 17.0358 10.6562 16.7735 10.6562 16.5C10.6562 16.2265 10.5476 15.9642 10.3542 15.7708C10.1608 15.5774 9.8985 15.4688 9.625 15.4688C9.3515 15.4688 9.08919 15.5774 8.8958 15.7708C8.7024 15.9642 8.59375 16.2265 8.59375 16.5ZM8.59375 21.3125C8.59375 21.586 8.7024 21.8483 8.8958 22.0417C9.08919 22.2351 9.3515 22.3438 9.625 22.3438C9.8985 22.3438 10.1608 22.2351 10.3542 22.0417C10.5476 21.8483 10.6562 21.586 10.6562 21.3125C10.6562 21.039 10.5476 20.7767 10.3542 20.5833C10.1608 20.3899 9.8985 20.2812 9.625 20.2812C9.3515 20.2812 9.08919 20.3899 8.8958 20.5833C8.7024 20.7767 8.59375 21.039 8.59375 21.3125Z"
        fill="#002435" stroke="#002435" stroke-width="0.5" />
</svg>