<svg xmlns="http://www.w3.org/2000/svg" width="40" height="40" viewBox="0 0 40 40">
    <path
        d="M18.418 28.5176C18.1323 28.8173 17.6573 28.8286 17.3574 28.543L9.4824 21.043C9.3339 20.9015 9.25 20.7052 9.25 20.5C9.25 20.2949 9.3339 20.0986 9.4824 19.9571L17.3574 12.4571C17.6573 12.1715 18.1323 12.1827 18.418 12.4824C18.7036 12.7823 18.6923 13.2573 18.3926 13.543L11.875 19.75L31 19.75C31.4142 19.75 31.75 20.0858 31.75 20.5C31.75 20.9142 31.4142 21.25 31 21.25L11.875 21.25L18.3926 27.4571C18.6923 27.7427 18.7036 28.2177 18.418 28.5176Z" />
</svg>