<svg xmlns="http://www.w3.org/2000/svg" width="40" height="40" viewBox="0 0 40 40">
    <path
        d="M21.582 11.4824C21.8677 11.1827 22.3427 11.1714 22.6426 11.457L30.5176 18.957C30.6661 19.0985 30.75 19.2948 30.75 19.5C30.75 19.7051 30.6661 19.9014 30.5176 20.0429L22.6426 27.5429C22.3427 27.8285 21.8677 27.8173 21.582 27.5176C21.2964 27.2177 21.3077 26.7427 21.6074 26.457L28.125 20.25H9C8.58579 20.25 8.25 19.9142 8.25 19.5C8.25 19.0858 8.58579 18.75 9 18.75H28.125L21.6074 12.5429C21.3077 12.2573 21.2964 11.7823 21.582 11.4824Z" />
</svg>